<svg id="Illustrations" xmlns="http://www.w3.org/2000/svg" xmlns:xlink="http://www.w3.org/1999/xlink" viewBox="0 0 1428 1009.46"><defs><style>.cls-1{fill:url(#linear-gradient);}.cls-2{fill:url(#linear-gradient-2);}.cls-3{fill:url(#linear-gradient-3);}.cls-4{fill:url(#linear-gradient-4);}.cls-5{fill:url(#_131);}.cls-6{fill:#eac09d;}.cls-7{fill:#e2b896;}.cls-8{fill:#f9cba2;}.cls-9{fill:#8eb259;}.cls-10{fill:#b6c127;}.cls-11{fill:#cddc39;}.cls-12{fill:#7884b1;}.cls-13{fill:#e3ea54;}.cls-14{fill:url(#_99);}.cls-15{fill:#558b2f;}.cls-16{fill:#7ba42f;}.cls-17{fill:#776a68;}.cls-18{fill:#7f7675;}.cls-19{fill:#74aa35;}.cls-20{fill:#5f932c;}.cls-21{fill:#687499;}.cls-22,.cls-23,.cls-24,.cls-70{fill:#fff;}.cls-22{opacity:0.16;}.cls-23{opacity:0.7;}.cls-24{opacity:0.43;}.cls-25{fill:#ddd;}.cls-26{fill:#b5b5b5;}.cls-27,.cls-80{fill:#40b1dd;}.cls-28{fill:#c9c9c9;}.cls-29{fill:#b2b2b2;}.cls-30{fill:#38a5c6;}.cls-31{fill:#338faf;}.cls-32{fill:#d1d3d3;}.cls-33{fill:#9b9b9b;}.cls-34{fill:#359cbc;}.cls-35{fill:#cc4266;}.cls-36{fill:#bc3f66;}.cls-37{fill:#bc3c64;}.cls-38{fill:#a5345d;}.cls-39{opacity:0.12;}.cls-40{fill:#acadad;}.cls-41{fill:#c1c1c1;}.cls-42{fill:#f5f5f5;}.cls-43{fill:#e5e5e5;}.cls-44{fill:#55d2f9;}.cls-45{fill:#d6d6d6;}.cls-46{fill:#53bfea;}.cls-47,.cls-71{fill:#f04866;}.cls-48{fill:#d84464;}.cls-49{fill:#ba385a;}.cls-50{fill:#d3d3d3;}.cls-51{fill:#c9c7c7;}.cls-52{fill:#c6c6c6;}.cls-53{fill:#cecece;}.cls-54,.cls-84{fill:#ccc;}.cls-55{fill:#919191;}.cls-56{fill:#bcbcbc;}.cls-57{fill:#b7b6b6;}.cls-58{fill:#e8eaea;}.cls-59{fill:#d8d8d8;}.cls-60{fill:#c4c4c4;}.cls-61{fill:#a8a8a8;}.cls-62{fill:#3997c6;}.cls-63{fill:#3a89ba;}.cls-64{fill:#7f7f7f;}.cls-65,.cls-82{fill:#d1d1d1;}.cls-66,.cls-83{fill:#ededed;}.cls-67{fill:#adadad;}.cls-68{fill:#aaa;}.cls-69{fill:#afafaf;}.cls-70,.cls-71,.cls-72,.cls-73,.cls-74,.cls-76,.cls-80,.cls-81,.cls-82,.cls-83,.cls-84,.cls-85,.cls-87{fill-rule:evenodd;}.cls-72{fill:#d9d9d9;}.cls-73,.cls-75{fill:#2c384c;}.cls-74{fill:#16243a;}.cls-76{fill:#d0e4f5;}.cls-77{fill:#bec3cc;}.cls-78{fill:#26292e;}.cls-79,.cls-87{fill:#2d88ea;}.cls-81{fill:#359bba;}.cls-85{fill:#feb100;}.cls-86{fill:#f60;}.cls-88{fill:#4e4f4f;opacity:0.28;}</style><linearGradient id="linear-gradient" x1="714" y1="6.08" x2="714" y2="670.11" gradientUnits="userSpaceOnUse"><stop offset="0" stop-color="#fff"/><stop offset="0.02" stop-color="#fffefa"/><stop offset="0.14" stop-color="#fff6db"/><stop offset="0.26" stop-color="#fff1c5"/><stop offset="0.38" stop-color="#ffedb8"/><stop offset="0.48" stop-color="#ffecb3"/><stop offset="0.74" stop-color="#ffcda3"/><stop offset="0.99" stop-color="#ffab91"/></linearGradient><linearGradient id="linear-gradient-2" x1="541.03" y1="296.43" x2="541.03" y2="545.94" xlink:href="#linear-gradient"/><linearGradient id="linear-gradient-3" x1="1234.38" y1="311.7" x2="1234.38" y2="503.92" xlink:href="#linear-gradient"/><linearGradient id="linear-gradient-4" x1="248.67" y1="240.46" x2="248.67" y2="505.6" xlink:href="#linear-gradient"/><linearGradient id="_131" x1="1093.55" y1="137.84" x2="1093.55" y2="499.42" gradientUnits="userSpaceOnUse"><stop offset="0" stop-color="#fff"/><stop offset="0.02" stop-color="#fffefa"/><stop offset="0.16" stop-color="#fff6db"/><stop offset="0.3" stop-color="#fff1c5"/><stop offset="0.43" stop-color="#ffedb8"/><stop offset="0.55" stop-color="#ffecb3"/><stop offset="0.77" stop-color="#ffcda3"/><stop offset="0.99" stop-color="#ffab91"/></linearGradient><linearGradient id="_99" x1="191.26" y1="136.44" x2="191.26" y2="324.85" gradientUnits="userSpaceOnUse"><stop offset="0" stop-color="#fff"/><stop offset="0.11" stop-color="#fffdf6"/><stop offset="0.29" stop-color="#fff7de"/><stop offset="0.51" stop-color="#ffedb7"/><stop offset="0.53" stop-color="#ffecb3"/><stop offset="0.69" stop-color="#ffcda3"/><stop offset="0.85" stop-color="#ffab91"/></linearGradient></defs><rect class="cls-1" width="1428" height="873.67"/><path class="cls-2" d="M506.5,350.07a12.1,12.1,0,0,1,11,7.14A14.66,14.66,0,0,1,544.65,353a21.52,21.52,0,1,1,21.51,21.9H531.89c-6.29,0-19.78-.54-25.39-.54a12.12,12.12,0,0,1,0-24.24Z" transform="translate(0)"/><path class="cls-3" d="M1268.91,335.48a12.1,12.1,0,0,0-11,7.14,14.66,14.66,0,0,0-27.13-4.26,21.52,21.52,0,1,0-21.51,21.9h34.26c6.3,0,19.79-.54,25.4-.54a12.12,12.12,0,0,0,0-24.24Z" transform="translate(0)"/><path class="cls-4" d="M428.72,309.46h-14c-1.72-4-4.61-4.73-7.95-5,0-.1,0-.28,0-.38a16.68,16.68,0,0,0-32.14-6.32,15.38,15.38,0,0,0-2.33,2.16,15.47,15.47,0,0,0-15.57-4.81,23.35,23.35,0,0,0-8.34-11.35,27.9,27.9,0,0,0-41.22-34.65,14.52,14.52,0,0,0-23.7,11.25,14.79,14.79,0,0,0,.38,3.28A25.08,25.08,0,0,0,268,293.77q-.15.44-.27.87c-.46,0-.92-.07-1.39-.07a15.57,15.57,0,0,0-12,5.7,17.21,17.21,0,0,0-26.82-4.42,17.14,17.14,0,0,0-9.28-4.4v-.1A17.22,17.22,0,0,0,206.42,275a29.94,29.94,0,0,0-47.83,6.35,25.06,25.06,0,0,0-40.26,12.89,16.44,16.44,0,0,0-6.94-1.55,16.61,16.61,0,0,0-15.74,11.67,10.42,10.42,0,0,0-8.43,5.08H68.61a8,8,0,1,0,0,16H428.72a8,8,0,1,0,0-16Z" transform="translate(0)"/><path class="cls-5" d="M1011.32,204.64h22.52a38.9,38.9,0,1,1,68.78-29,22.43,22.43,0,0,1,30.46,29h7.4a12.86,12.86,0,0,1,25.69,0h9.36a9.58,9.58,0,0,1,9.63,9.57,9.39,9.39,0,0,1-9.39,9.21H1011.32a9.4,9.4,0,0,1-9.39-9.39h0A9.39,9.39,0,0,1,1011.32,204.64Z" transform="translate(0)"/><polygon class="cls-6" points="1427.54 466.71 1428 772.46 0 772.46 0 457.46 33 457.46 33 436.46 72 436.46 72 456.46 100 456.46 100 497.46 134 497.46 134 420.22 160.65 381.46 196 381.46 196 476.46 212 476.46 212 405.46 233 405.46 233 426.46 264 426.46 264 376.86 288.98 349.87 315 376.4 315 438.96 417 438.92 417 401.46 472 401.46 472 430.46 491 430.46 491 403.46 503 403.46 503 430.46 519 430.46 519 467.46 547 467.46 547 441.68 582.73 421.46 624 421.46 624 485.05 1156 485.82 1156 426.46 1198 426.46 1198 473.47 1221 473.94 1221 416.46 1238 416.46 1238 403.46 1286 403.46 1286 417.46 1306 417.46 1306 473.46 1325 473.46 1325 430.46 1377 430.46 1377 509.46 1399 509.46 1399 466.46 1427.54 466.71"/><rect class="cls-7" x="-18.98" y="507.45" width="82.17" height="6.81" transform="translate(-488.76 532.95) rotate(-90)"/><rect class="cls-7" x="-16.92" y="522.17" width="111.62" height="6.81" transform="translate(-486.7 564.46) rotate(-90)"/><rect class="cls-7" x="9.91" y="512.13" width="91.52" height="6.81" transform="translate(-459.86 571.2) rotate(-90)"/><rect class="cls-7" x="21.7" y="517.12" width="101.51" height="6.81" transform="translate(-448.08 592.98) rotate(-90)"/><rect class="cls-7" x="1360.95" y="538.75" width="38.71" height="6.81" transform="translate(838.14 1922.46) rotate(-90)"/><rect class="cls-7" x="1147.23" y="470.8" width="71.35" height="6.81" transform="translate(708.7 1657.1) rotate(-90)"/><rect class="cls-7" x="1372.69" y="538.75" width="38.71" height="6.81" transform="translate(849.89 1934.21) rotate(-90)"/><polygon class="cls-7" points="112.36 573.63 97.45 548.96 97.45 497.7 112.36 497.7 112.36 573.63"/><polygon class="cls-7" points="1324.08 549.33 1306.17 524.65 1306.17 473.39 1324.08 473.39 1324.08 549.33"/><rect class="cls-7" x="167.45" y="528.81" width="14.91" height="20.05"/><rect class="cls-7" x="158.86" y="407.04" width="8.33" height="16.29"/><rect class="cls-7" x="1240.69" y="427.07" width="8.33" height="16.29"/><rect class="cls-7" x="1258.8" y="427.07" width="8.33" height="16.29"/><rect class="cls-7" x="1276.91" y="427.07" width="8.33" height="16.29"/><rect class="cls-7" x="1240.69" y="453.27" width="8.33" height="16.29"/><rect class="cls-7" x="1258.8" y="453.27" width="8.33" height="16.29"/><rect class="cls-7" x="1276.91" y="453.27" width="8.33" height="16.29"/><rect class="cls-7" x="1240.69" y="479.97" width="8.33" height="16.29"/><rect class="cls-7" x="1258.8" y="479.97" width="8.33" height="16.29"/><rect class="cls-7" x="1258.8" y="507.85" width="8.33" height="16.29"/><rect class="cls-7" x="1276.91" y="479.97" width="8.33" height="16.29"/><rect class="cls-7" x="176.19" y="407.04" width="8.33" height="16.29"/><rect class="cls-7" x="158.86" y="436.4" width="8.33" height="16.29"/><rect class="cls-7" x="158.86" y="463.67" width="8.33" height="16.29"/><rect class="cls-7" x="176.19" y="436.4" width="8.33" height="16.29"/><rect class="cls-7" x="194.09" y="476.84" width="7.61" height="56.79"/><polygon class="cls-7" points="232.72 426.5 232.79 433.46 264.41 433.46 264.43 426.5 232.72 426.5"/><polygon class="cls-7" points="313.79 379.46 262.07 379.46 262.07 376.86 287.06 349.87 313.79 376.86 313.79 379.46"/><rect class="cls-7" x="272.44" y="387.95" width="6.24" height="60.96"/><rect class="cls-7" x="284.58" y="387.95" width="6.24" height="119.51"/><rect class="cls-7" x="297.42" y="387.95" width="6.24" height="60.96"/><rect class="cls-7" x="252.29" y="442.63" width="9.83" height="9.83"/><rect class="cls-7" x="232.94" y="442.63" width="9.83" height="9.83"/><rect class="cls-7" x="1336.4" y="456.07" width="9.83" height="9.83"/><rect class="cls-7" x="1355.23" y="456.07" width="9.83" height="9.83"/><rect class="cls-7" x="1336.4" y="475.9" width="9.83" height="9.83"/><rect class="cls-7" x="1355.23" y="475.9" width="9.83" height="9.83"/><rect class="cls-7" x="1336.4" y="495.73" width="28.66" height="9.83"/><rect class="cls-7" x="1410.77" y="479.34" width="14.33" height="9.83"/><rect class="cls-7" x="1410.77" y="499.63" width="14.33" height="9.83"/><rect class="cls-7" x="1336.4" y="514.31" width="28.66" height="9.83"/><rect class="cls-7" x="1336.4" y="533.62" width="9.83" height="9.83"/><rect class="cls-7" x="1336.4" y="551.69" width="9.83" height="9.83"/><rect class="cls-7" x="252.29" y="460.99" width="9.83" height="9.83"/><rect class="cls-7" x="232.94" y="460.99" width="9.83" height="9.83"/><rect class="cls-7" x="252.29" y="479.34" width="9.83" height="9.83"/><rect class="cls-7" x="232.94" y="479.34" width="9.83" height="9.83"/><rect class="cls-7" x="252.29" y="497.7" width="9.83" height="9.83"/><rect class="cls-7" x="232.94" y="497.7" width="9.83" height="9.83"/><rect class="cls-7" x="232.94" y="518" width="9.83" height="9.83"/><rect class="cls-7" x="130.59" y="544.18" width="131.04" height="141.71"/><rect class="cls-7" x="1192.49" y="547.32" width="110.06" height="150.28"/><rect class="cls-7" x="56.69" y="589.43" width="102.76" height="96.45"/><rect class="cls-8" x="130.59" y="544.18" width="7.68" height="45.25"/><rect class="cls-8" x="73.56" y="602.92" width="10.22" height="11.47"/><rect class="cls-8" x="95.15" y="602.92" width="10.22" height="11.47"/><rect class="cls-8" x="116.74" y="602.92" width="10.22" height="11.47"/><rect class="cls-8" x="95.15" y="624.05" width="10.22" height="11.47"/><rect class="cls-8" x="116.74" y="624.05" width="10.22" height="11.47"/><rect class="cls-8" x="138.33" y="602.92" width="10.22" height="11.47"/><rect class="cls-8" x="56.09" y="589.43" width="8" height="97.1"/><rect class="cls-8" x="163.15" y="559.55" width="7.42" height="126.34"/><rect class="cls-8" x="181.07" y="559.55" width="7.42" height="126.34"/><rect class="cls-8" x="198.99" y="559.55" width="7.42" height="126.34"/><rect class="cls-8" x="218.27" y="559.55" width="7.42" height="126.34"/><rect class="cls-8" x="1216.89" y="557.55" width="7.42" height="126.34"/><rect class="cls-8" x="1238.01" y="557.55" width="7.42" height="126.34"/><rect class="cls-8" x="1256.63" y="557.55" width="7.42" height="126.34"/><rect class="cls-7" x="131.77" y="420.21" width="12.36" height="82.4"/><polygon class="cls-7" points="194.07 391.02 151.89 391.02 158.39 381.59 194.07 381.59 194.07 391.02"/><path class="cls-7" d="M72,427.94v8.52H33v-8.52A19.6,19.6,0,0,1,52.61,408.4,19.41,19.41,0,0,1,72,427.94Z" transform="translate(0)"/><rect class="cls-7" x="1214.01" y="416.68" width="12.36" height="82.4"/><rect class="cls-7" x="1322.69" y="430.46" width="57.61" height="14.09"/><rect class="cls-7" x="1282.05" y="590.69" width="121.74" height="106.97"/><rect class="cls-7" x="1328" y="577.17" width="46.29" height="20.53"/><rect class="cls-8" x="1276.39" y="557.55" width="7.42" height="126.34"/><rect class="cls-8" x="1304.51" y="607.47" width="23.49" height="9.83"/><rect class="cls-8" x="1380.3" y="607.47" width="23.49" height="90.14"/><rect class="cls-8" x="1304.51" y="630.75" width="23.49" height="9.83"/><rect class="cls-8" x="1304.51" y="654.02" width="23.49" height="9.83"/><rect class="cls-8" x="1338.01" y="607.47" width="9.83" height="9.83"/><rect class="cls-8" x="1357.73" y="607.47" width="9.83" height="9.83"/><rect class="cls-8" x="1338.01" y="630.75" width="9.83" height="9.83"/><rect class="cls-8" x="1357.73" y="630.75" width="9.83" height="9.83"/><rect class="cls-8" x="1338.01" y="654.02" width="9.83" height="9.83"/><rect class="cls-8" x="1357.73" y="654.02" width="9.83" height="9.83"/><path class="cls-9" d="M1226.19,677.44a13.92,13.92,0,0,1,5.63,1.25,30.72,30.72,0,0,1,35.28-5.79,13.91,13.91,0,0,1,18.06-8.62,9.65,9.65,0,0,1-.62-3.53,9.79,9.79,0,0,1,13.55-8.94,27.47,27.47,0,0,1,44.52.27,12.75,12.75,0,0,1,17.85-1.3,22.08,22.08,0,0,1,30.18-9.39A27.47,27.47,0,0,1,1428,617l0,147.43-190.06-1.92.36-35.68a30.59,30.59,0,0,1-15.07-22,13.85,13.85,0,0,1,3-27.42Z" transform="translate(0)"/><path class="cls-9" d="M241.23,690.43a16.61,16.61,0,0,0-6.76,1.43,36.74,36.74,0,0,0-42.21-7.38,16.68,16.68,0,0,0-21.54-10.58,11.75,11.75,0,0,0-11-16,11.82,11.82,0,0,0-4.38.85,32.89,32.89,0,0,0-53.36-.22,15.26,15.26,0,0,0-21.38-1.77,26.43,26.43,0,0,0-36.06-11.65A32.9,32.9,0,0,0,.1,615.37L0,755.52H226.15V749.6a36.76,36.76,0,0,0,18.34-26.2,16.65,16.65,0,0,0-3.26-33Z" transform="translate(0)"/><path class="cls-10" d="M207.67,754.46a17.52,17.52,0,0,0,4.6-12,18.07,18.07,0,0,0-18.1-18c-.4,0-.8,0-1.2.07,0-.23,0-.45,0-.68a20.9,20.9,0,0,0-32.94-17.08,17.37,17.37,0,0,0-21.89-16.22A20.45,20.45,0,0,0,100.09,697c-.54,0-1.1-.08-1.65-.08a17.28,17.28,0,0,0-17,14.21,17.24,17.24,0,0,0-26.81,10.11q-.66-.06-1.32-.06a13.13,13.13,0,0,0-8.75,3.34c-.46,0-.92-.07-1.39-.07a18.19,18.19,0,0,0-18.25,18,17.71,17.71,0,0,0,4.61,12Z" transform="translate(0)"/><path class="cls-10" d="M1428,727.18a14.93,14.93,0,0,0-12.27-14.69,16.15,16.15,0,0,0,.5-4,16.61,16.61,0,0,0-13.34-16.29,12.09,12.09,0,0,0-21.36-4.59,14.94,14.94,0,0,0-18.33,4.25,17.26,17.26,0,0,0-12.48-1.35,20.45,20.45,0,0,0-38.09,6.48c-.55,0-1.1-.08-1.65-.08a17.27,17.27,0,0,0-17,14.21,17.24,17.24,0,0,0-26.81,10.11q-.66-.06-1.32-.06a13.13,13.13,0,0,0-8.75,3.34c-.46,0-.92-.07-1.39-.07a18.19,18.19,0,0,0-18.25,18,17.71,17.71,0,0,0,4.61,12l185.47-1Z" transform="translate(0)"/><rect class="cls-11" y="743.28" width="1428" height="82.4"/><rect class="cls-12" y="792.28" width="1428" height="217.18"/><path class="cls-13" d="M1406.7,771H81.18a21.29,21.29,0,0,0-21.3,21.3H1428A21.29,21.29,0,0,0,1406.7,771Z" transform="translate(0)"/><path class="cls-14" d="M105.91,185l4.86,0a25.89,25.89,0,0,1,24.13-34.82l1.08,0a37.58,37.58,0,1,1,71.36,22.25,15.11,15.11,0,0,1,20.92,11.81l5.12,0a17.44,17.44,0,0,1-.14-2.17,19.28,19.28,0,1,1,38.55-.25c0,.74,0,1.46-.11,2.17l4.83,0a8.49,8.49,0,0,1,.11,17l-21.81.14c-.72.08-1.44.13-2.17.14s-1.46,0-2.18-.11l-35.21.22a13.3,13.3,0,0,1-3.71,0l-73.78.47a25.67,25.67,0,0,1-5.06,0L106,202a8.49,8.49,0,0,1-.11-17Z" transform="translate(0)"/><path class="cls-15" d="M327,661.09a48.72,48.72,0,1,1-97.43,0c0-37.48,21.81-104.7,48.72-104.7S327,634.11,327,661.09Z" transform="translate(0)"/><path class="cls-16" d="M327,661.09c0-34.6-21.81-104.7-48.71-104.7V709.93A48.77,48.77,0,0,0,327,661.09Z" transform="translate(0)"/><polygon class="cls-17" points="274.38 661.22 271.44 761.18 285.22 761.18 282.27 661.22 274.38 661.22"/><polygon class="cls-18" points="278.32 661.22 278.32 761.18 285.22 761.18 282.27 661.22 278.32 661.22"/><path class="cls-15" d="M271.88,656.5a35.13,35.13,0,1,1-70.25,0c0-27,15.73-75.5,35.13-75.5S271.88,637.05,271.88,656.5Z" transform="translate(0)"/><path class="cls-16" d="M271.88,656.5c0-25-15.73-75.5-35.12-75.5V691.72A35.18,35.18,0,0,0,271.88,656.5Z" transform="translate(0)"/><polygon class="cls-17" points="233.91 656.6 231.79 728.67 241.72 728.67 239.6 656.6 233.91 656.6"/><polygon class="cls-18" points="236.75 656.6 236.75 728.67 241.72 728.67 239.6 656.6 236.75 656.6"/><polygon class="cls-17" points="200.51 677.37 194.91 771.01 200.51 771.47 200.51 677.37"/><polygon class="cls-18" points="200.36 677.37 200.36 771.47 205.96 771.01 200.36 677.37"/><path class="cls-19" d="M240.19,691.68a39.4,39.4,0,0,1-39.39,39.4h-.1V582.59h.1c5.31,0,14.57,20,22.77,43.27l-17.92,10.27,20.86-1.68C234.12,657.47,240.19,681.61,240.19,691.68Z" transform="translate(0)"/><path class="cls-20" d="M200.7,582.59V731.08a39.4,39.4,0,0,1-39.3-39.4c0-3.86.89-9.79,2.42-16.95l22.84.79-21.2-7.94C173.68,633.94,192.16,583,200.7,582.59Z" transform="translate(0)"/><path class="cls-19" d="M381.22,722.67A67.26,67.26,0,0,1,314,789.93h-.16V536.43H314c9.08,0,24.89,34.18,38.89,73.88l-30.6,17.52,35.6-2.87C370.86,664.26,381.22,705.47,381.22,722.67Z" transform="translate(0)"/><path class="cls-20" d="M313.8,536.43v253.5a67.25,67.25,0,0,1-67.09-67.26c0-6.58,1.52-16.72,4.13-28.93l39,1.34-36.18-13.56C267.66,624.09,299.21,537.05,313.8,536.43Z" transform="translate(0)"/><rect class="cls-21" y="792.28" width="1428" height="19.88"/><rect class="cls-22" x="219.52" y="891.87" width="69.75" height="9" rx="4.5"/><rect class="cls-22" x="299.56" y="891.87" width="23.79" height="9" rx="4.5"/><path class="cls-21" d="M1304.35,848H1064.59a4.5,4.5,0,0,1-4.5-4.5h0a4.5,4.5,0,0,1,4.5-4.5h239.76a4.49,4.49,0,0,1,4.5,4.5h0A4.49,4.49,0,0,1,1304.35,848Z" transform="translate(0)"/><path class="cls-21" d="M1338.43,848h-14.79a4.5,4.5,0,0,1-4.5-4.5h0a4.5,4.5,0,0,1,4.5-4.5h14.79a4.49,4.49,0,0,1,4.5,4.5h0A4.49,4.49,0,0,1,1338.43,848Z" transform="translate(0)"/><rect class="cls-21" x="1139.18" y="896.37" width="67.22" height="9" rx="4.5"/><path class="cls-21" d="M194.35,837.48H159a4.51,4.51,0,0,1-4.5-4.5h0a4.5,4.5,0,0,1,4.5-4.5h35.39a4.49,4.49,0,0,1,4.5,4.5h0A4.5,4.5,0,0,1,194.35,837.48Z" transform="translate(0)"/><path class="cls-23" d="M1332.71,269.46h-30.8a8,8,0,0,0,7.95-8h0a8,8,0,0,0-7.95-8h-44.85a8,8,0,0,0-8,8h0a8,8,0,0,0,8,8H1202.8a8,8,0,0,0-8,8h0a8,8,0,0,0,8,8h129.91a8,8,0,0,0,8-8h0A8,8,0,0,0,1332.71,269.46Z" transform="translate(0)"/><path class="cls-24" d="M414.18,202.2H369.33a8,8,0,0,1-7.95-7.95h0a8,8,0,0,1,7.95-7.95h44.85a8,8,0,0,1,7.95,7.95h0A8,8,0,0,1,414.18,202.2Z" transform="translate(0)"/><rect class="cls-23" x="1354.33" y="269.59" width="29.36" height="15.89" rx="7.95"/><path class="cls-23" d="M977.84,224.12H964.37a7.93,7.93,0,0,1-7.94-7.94h0a7.94,7.94,0,0,1,7.94-8h13.47a8,8,0,0,1,7.95,8h0A7.94,7.94,0,0,1,977.84,224.12Z" transform="translate(0)"/><rect class="cls-24" x="318.8" y="187.14" width="29.36" height="15.89" rx="7.95"/><path class="cls-24" d="M1318.55,360.65h-13.47a8,8,0,0,1-7.95-7.95h0a7.94,7.94,0,0,1,7.95-7.94h13.47a7.94,7.94,0,0,1,8,7.94h0A8,8,0,0,1,1318.55,360.65Z" transform="translate(0)"/><polygon class="cls-25" points="437.61 438.35 600.2 438.35 600.54 792.36 437.61 792.36 437.61 438.35"/><rect class="cls-26" x="340.03" y="438.35" width="97.58" height="354"/><rect class="cls-27" x="463.51" y="466.58" width="118.26" height="27.13" transform="translate(1045.29 960.29) rotate(180)"/><polygon class="cls-28" points="579.8 469.76 583.75 465.8 583.75 493.71 579.8 493.71 579.8 469.76"/><polygon class="cls-29" points="579.79 469.76 583.74 465.8 463.51 465.8 463.51 469.76 579.79 469.76"/><polygon class="cls-30" points="579.8 493.71 576.73 493.71 576.73 472.7 463.51 472.7 463.51 469.76 579.79 469.76 579.8 493.71"/><rect class="cls-30" x="490.37" y="472.2" width="2.35" height="21.51" transform="translate(983.09 965.9) rotate(180)"/><rect class="cls-30" x="521.76" y="472.2" width="2.35" height="21.51" transform="translate(1045.88 965.9) rotate(180)"/><rect class="cls-30" x="553.16" y="472.2" width="2.35" height="21.51" transform="translate(1108.67 965.9) rotate(180)"/><rect class="cls-27" x="437.47" y="513.46" width="58" height="69"/><polygon class="cls-28" points="492.98 517.79 497.42 513.35 497.42 582.41 492.98 582.41 492.98 517.79"/><polygon class="cls-29" points="492.97 517.79 497.41 513.35 437.13 513.35 437.13 517.79 492.97 517.79"/><polygon class="cls-30" points="492.98 582.41 489.55 582.41 489.55 521.09 437.61 521.09 437.61 517.79 492.97 517.79 492.98 582.41"/><polygon class="cls-31" points="437.46 516.46 437.46 520.46 383.46 520.46 383.46 582.46 379.46 582.46 379.46 582.31 379.76 521.18 379.93 516.46 437.46 516.46"/><polygon class="cls-28" points="379.93 516.46 379.76 521.18 379.46 582.31 379.46 582.46 377.46 582.46 377.46 515.64 379.92 516.46 379.93 516.46"/><polygon class="cls-32" points="377.46 515.64 377.46 582.46 375.46 582.46 375.46 513.25 375.63 512.46 375.49 512.46 377.52 515.02 377.46 515.64"/><polygon class="cls-28" points="375.63 512.46 377.72 514.55 375.49 512.46 375.63 512.46"/><polygon class="cls-32" points="379.46 517.69 379.46 582.46 377.46 582.46 377.46 515.64 379.46 517.69"/><polygon class="cls-33" points="437.46 512.46 437.46 517.24 437.46 517.24 437.46 513.46 377.46 513.46 377.46 515.63 377.52 515.02 375.49 512.46 437.46 512.46"/><rect class="cls-30" x="437.47" y="516.46" height="4"/><rect class="cls-34" x="383.47" y="520.46" width="54" height="62"/><polygon class="cls-33" points="437.46 513.46 437.46 516.46 379.92 516.46 377.46 515.64 377.46 513.46 437.46 513.46"/><rect class="cls-27" x="507.72" y="514.22" width="31.12" height="25.72" transform="translate(1046.55 1054.17) rotate(180)"/><polygon class="cls-28" points="536.61 517.79 541.05 513.35 541.05 539.95 536.61 539.95 536.61 517.79"/><polygon class="cls-29" points="536.6 517.79 541.04 513.35 507.71 513.35 507.71 517.79 536.6 517.79"/><polygon class="cls-30" points="536.61 539.95 533.18 539.95 533.18 521.09 507.71 521.09 507.71 517.79 536.6 517.79 536.61 539.95"/><rect class="cls-27" x="551.35" y="514.22" width="31.12" height="25.72" transform="translate(1133.81 1054.17) rotate(180)"/><polygon class="cls-28" points="580.24 517.79 584.68 513.35 584.68 539.95 580.24 539.95 580.24 517.79"/><polygon class="cls-29" points="580.23 517.79 584.67 513.35 551.35 513.35 551.35 517.79 580.23 517.79"/><polygon class="cls-30" points="580.24 539.95 576.81 539.95 576.81 521.09 551.35 521.09 551.35 517.79 580.23 517.79 580.24 539.95"/><rect class="cls-27" x="507.72" y="556.69" width="31.12" height="25.72" transform="translate(1046.55 1139.1) rotate(180)"/><polygon class="cls-28" points="536.61 560.25 541.05 555.81 541.05 582.41 536.61 582.41 536.61 560.25"/><polygon class="cls-29" points="536.6 560.25 541.04 555.81 507.71 555.81 507.71 560.25 536.6 560.25"/><polygon class="cls-30" points="536.61 582.41 533.18 582.41 533.18 563.55 507.71 563.55 507.71 560.25 536.6 560.25 536.61 582.41"/><rect class="cls-27" x="551.35" y="556.69" width="31.12" height="25.72" transform="translate(1133.81 1139.1) rotate(180)"/><polygon class="cls-28" points="580.24 560.25 584.68 555.81 584.68 582.41 580.24 582.41 580.24 560.25"/><polygon class="cls-29" points="580.23 560.25 584.67 555.81 551.35 555.81 551.35 560.25 580.23 560.25"/><polygon class="cls-30" points="580.24 582.41 576.81 582.41 576.81 563.55 551.35 563.55 551.35 560.25 580.23 560.25 580.24 582.41"/><rect class="cls-35" x="442.54" y="430.1" width="157.66" height="11.17"/><rect class="cls-36" x="442.54" y="441.27" width="157.66" height="4.95"/><rect class="cls-37" x="333.48" y="430.1" width="110.42" height="11.17"/><rect class="cls-38" x="333.48" y="441.27" width="110.42" height="4.95"/><rect class="cls-39" x="340.03" y="446.22" width="260.51" height="5.96"/><rect class="cls-29" x="437.61" y="515.57" width="2.33" height="66.98"/><polygon class="cls-28" points="492.98 537.55 492.97 539.88 439.94 539.88 439.94 537.55 492.98 537.55"/><polygon class="cls-40" points="435.55 537.55 435.54 539.88 380 539.88 380 537.55 435.55 537.55"/><polygon class="cls-28" points="492.98 561.28 492.97 563.62 439.94 563.62 439.94 561.28 492.98 561.28"/><polygon class="cls-40" points="435.55 561.28 435.54 563.62 380 563.62 380 561.28 435.55 561.28"/><rect class="cls-33" x="435.28" y="515.57" width="2.33" height="66.98"/><rect class="cls-25" x="914.54" y="304.02" width="235.74" height="482.93" transform="translate(2064.81 1090.98) rotate(180)"/><rect class="cls-41" x="809.92" y="304.02" width="217.61" height="482.93" transform="translate(1837.45 1090.98) rotate(180)"/><rect class="cls-42" x="981.28" y="548.78" width="231.36" height="243.58"/><rect class="cls-43" x="865.79" y="548.78" width="115.49" height="243.58"/><rect class="cls-44" x="916.58" y="689.02" width="46.78" height="103.33"/><polygon class="cls-45" points="918.97 692.87 914.19 688.08 914.19 792.36 918.97 792.36 918.97 692.87"/><polygon class="cls-29" points="918.99 692.87 914.2 688.08 963.36 688.08 963.36 692.87 918.99 692.87"/><polygon class="cls-46" points="918.97 792.36 922.67 792.36 922.67 696.42 963.36 696.42 963.36 692.87 918.99 692.87 918.97 792.36"/><rect class="cls-44" x="999.87" y="689.42" width="188.95" height="102.93" transform="translate(2188.68 1481.78) rotate(180)"/><polygon class="cls-28" points="1186.42 693.26 1191.21 688.48 1191.21 792.36 1186.42 792.36 1186.42 693.26"/><polygon class="cls-29" points="1186.41 693.26 1191.19 688.48 999.87 688.48 999.87 693.26 1186.41 693.26"/><polygon class="cls-46" points="1186.42 792.36 1182.72 792.36 1182.72 696.82 999.87 696.82 999.87 693.26 1186.41 693.26 1186.42 792.36"/><polygon class="cls-47" points="987.9 544.26 1215.44 544.26 1205.68 532.45 987.9 532.45 987.9 544.26"/><rect class="cls-35" x="987.9" y="544.26" width="227.8" height="3.99"/><rect class="cls-39" x="875.26" y="548.25" width="337.38" height="7.34"/><rect class="cls-48" x="861.3" y="532.45" width="126.59" height="11.81"/><rect class="cls-49" x="861.3" y="544.26" width="126.59" height="3.99"/><rect class="cls-43" x="668.59" y="139.94" width="77.1" height="77.29"/><rect class="cls-50" x="607.06" y="139.94" width="63.01" height="77.29"/><rect class="cls-42" x="669.37" y="187" width="205.3" height="605.35"/><polygon class="cls-43" points="695.67 792.36 574.84 792.36 574.84 187 671.63 187 671.63 643.27 695.67 643.95 695.67 792.36"/><rect class="cls-44" x="688.58" y="218.17" width="167.28" height="43.21" transform="translate(1544.44 479.56) rotate(180)"/><polygon class="cls-28" points="853.47 222.01 858.25 217.23 858.25 261.38 853.47 261.38 853.47 222.01"/><polygon class="cls-29" points="853.45 222.01 858.24 217.23 688.58 217.23 688.58 222.01 853.45 222.01"/><polygon class="cls-46" points="853.47 261.38 849.77 261.38 849.77 225.57 688.58 225.57 688.58 222.01 853.45 222.01 853.47 261.38"/><rect class="cls-46" x="767.83" y="224.96" width="2.84" height="36.42" transform="translate(1538.49 486.34) rotate(180)"/><rect class="cls-46" x="811.25" y="224.96" width="2.84" height="36.42" transform="translate(1625.33 486.34) rotate(180)"/><rect class="cls-46" x="724.47" y="224.96" width="2.84" height="36.42" transform="translate(1451.79 486.34) rotate(180)"/><rect class="cls-51" x="574.24" y="777.45" width="97.27" height="14.9"/><polygon class="cls-42" points="575.18 792.36 228.98 792.36 228.98 610.88 574.84 610.88 574.84 641.36 575.18 641.36 575.18 792.36"/><polygon class="cls-47" points="842.65 174.6 839.65 174.6 839.65 158.18 745.68 158.18 745.68 155.18 842.65 155.18 842.65 174.6"/><rect class="cls-47" x="759.52" y="156.68" width="3" height="17.92"/><rect class="cls-47" x="779.43" y="156.68" width="3" height="17.92"/><rect class="cls-47" x="799.34" y="156.68" width="3" height="17.92"/><rect class="cls-47" x="819.26" y="156.68" width="3" height="17.92"/><rect class="cls-52" x="671.63" y="261.38" width="23.55" height="16.7"/><rect class="cls-25" x="695.36" y="261.38" width="193.76" height="16.7"/><rect class="cls-44" x="688.58" y="279.02" width="167.28" height="43.21" transform="translate(1544.44 601.25) rotate(180)"/><polygon class="cls-28" points="853.47 282.86 858.25 278.08 858.25 322.23 853.47 322.23 853.47 282.86"/><polygon class="cls-29" points="853.45 282.86 858.24 278.08 688.58 278.08 688.58 282.86 853.45 282.86"/><polygon class="cls-46" points="853.47 322.23 849.77 322.23 849.77 286.42 688.58 286.42 688.58 282.86 853.45 282.86 853.47 322.23"/><rect class="cls-46" x="767.83" y="285.81" width="2.84" height="36.43" transform="translate(1538.49 608.04) rotate(180)"/><rect class="cls-46" x="811.25" y="285.81" width="2.84" height="36.43" transform="translate(1625.33 608.04) rotate(180)"/><rect class="cls-46" x="724.47" y="285.81" width="2.84" height="36.43" transform="translate(1451.79 608.04) rotate(180)"/><rect class="cls-52" x="671.63" y="322.23" width="23.55" height="16.7"/><rect class="cls-25" x="695.36" y="322.23" width="193.76" height="16.7"/><rect class="cls-44" x="688.58" y="339.87" width="167.28" height="43.21" transform="translate(1544.44 722.95) rotate(180)"/><polygon class="cls-28" points="853.47 343.71 858.25 338.93 858.25 383.08 853.47 383.08 853.47 343.71"/><polygon class="cls-29" points="853.45 343.71 858.24 338.93 688.58 338.93 688.58 343.71 853.45 343.71"/><polygon class="cls-46" points="853.47 383.08 849.77 383.08 849.77 347.26 688.58 347.26 688.58 343.71 853.45 343.71 853.47 383.08"/><rect class="cls-46" x="767.83" y="346.66" width="2.84" height="36.42" transform="translate(1538.49 729.74) rotate(180)"/><rect class="cls-46" x="811.25" y="346.66" width="2.84" height="36.42" transform="translate(1625.33 729.74) rotate(180)"/><rect class="cls-46" x="724.47" y="346.66" width="2.84" height="36.42" transform="translate(1451.79 729.74) rotate(180)"/><rect class="cls-52" x="671.63" y="383.08" width="23.55" height="16.7"/><rect class="cls-25" x="695.36" y="383.08" width="193.76" height="16.7"/><rect class="cls-44" x="688.58" y="400.72" width="167.28" height="43.21" transform="translate(1544.44 844.65) rotate(180)"/><polygon class="cls-28" points="853.47 404.56 858.25 399.78 858.25 443.93 853.47 443.93 853.47 404.56"/><polygon class="cls-29" points="853.45 404.56 858.24 399.78 688.58 399.78 688.58 404.56 853.45 404.56"/><polygon class="cls-46" points="853.47 443.93 849.77 443.93 849.77 408.11 688.58 408.11 688.58 404.56 853.45 404.56 853.47 443.93"/><rect class="cls-46" x="767.83" y="407.51" width="2.84" height="36.42" transform="translate(1538.49 851.44) rotate(180)"/><rect class="cls-46" x="811.25" y="407.51" width="2.84" height="36.42" transform="translate(1625.33 851.44) rotate(180)"/><rect class="cls-46" x="724.47" y="407.51" width="2.84" height="36.42" transform="translate(1451.79 851.44) rotate(180)"/><rect class="cls-52" x="671.63" y="443.93" width="23.55" height="16.7"/><rect class="cls-25" x="695.36" y="443.93" width="193.76" height="16.7"/><rect class="cls-44" x="688.58" y="461.57" width="167.28" height="43.21" transform="translate(1544.44 966.35) rotate(180)"/><polygon class="cls-28" points="853.47 465.41 858.25 460.63 858.25 504.78 853.47 504.78 853.47 465.41"/><polygon class="cls-29" points="853.45 465.41 858.24 460.63 688.58 460.63 688.58 465.41 853.45 465.41"/><polygon class="cls-46" points="853.47 504.78 849.77 504.78 849.77 468.96 688.58 468.96 688.58 465.41 853.45 465.41 853.47 504.78"/><rect class="cls-46" x="767.83" y="468.35" width="2.84" height="36.42" transform="translate(1538.49 973.13) rotate(180)"/><rect class="cls-46" x="811.25" y="468.35" width="2.84" height="36.42" transform="translate(1625.33 973.13) rotate(180)"/><rect class="cls-46" x="724.47" y="468.35" width="2.84" height="36.42" transform="translate(1451.79 973.13) rotate(180)"/><rect class="cls-52" x="671.63" y="504.78" width="23.55" height="16.7"/><rect class="cls-25" x="695.36" y="504.78" width="193.76" height="16.7"/><rect class="cls-44" x="688.58" y="522.42" width="167.28" height="43.21" transform="translate(1544.44 1088.04) rotate(180)"/><polygon class="cls-28" points="853.47 526.26 858.25 521.48 858.25 565.63 853.47 565.63 853.47 526.26"/><polygon class="cls-29" points="853.45 526.26 858.24 521.48 688.58 521.48 688.58 526.26 853.45 526.26"/><polygon class="cls-46" points="853.47 565.63 849.77 565.63 849.77 529.81 688.58 529.81 688.58 526.26 853.45 526.26 853.47 565.63"/><rect class="cls-46" x="767.83" y="529.2" width="2.84" height="36.42" transform="translate(1538.49 1094.83) rotate(180)"/><rect class="cls-46" x="811.25" y="529.2" width="2.84" height="36.42" transform="translate(1625.33 1094.83) rotate(180)"/><rect class="cls-46" x="724.47" y="529.2" width="2.84" height="36.42" transform="translate(1451.79 1094.83) rotate(180)"/><rect class="cls-52" x="671.63" y="565.63" width="23.55" height="16.7"/><rect class="cls-25" x="695.36" y="565.63" width="193.76" height="16.7"/><rect class="cls-44" x="688.58" y="583.26" width="167.28" height="43.21" transform="translate(1544.44 1209.74) rotate(180)"/><polygon class="cls-28" points="853.47 587.11 858.25 582.32 858.25 626.48 853.47 626.48 853.47 587.11"/><polygon class="cls-29" points="853.45 587.11 858.24 582.32 688.58 582.32 688.58 587.11 853.45 587.11"/><polygon class="cls-46" points="853.47 626.48 849.77 626.48 849.77 590.66 688.58 590.66 688.58 587.11 853.45 587.11 853.47 626.48"/><rect class="cls-46" x="767.83" y="590.05" width="2.84" height="36.42" transform="translate(1538.49 1216.53) rotate(180)"/><rect class="cls-46" x="811.25" y="590.05" width="2.84" height="36.42" transform="translate(1625.33 1216.53) rotate(180)"/><rect class="cls-46" x="724.47" y="590.05" width="2.84" height="36.42" transform="translate(1451.79 1216.53) rotate(180)"/><rect class="cls-52" x="671.63" y="626.48" width="23.55" height="16.7"/><rect class="cls-25" x="695.36" y="626.48" width="193.76" height="16.7"/><rect class="cls-53" x="574.24" y="777.45" width="97.24" height="14.9"/><rect class="cls-44" x="453.04" y="730.26" width="47.06" height="25.42"/><polygon class="cls-28" points="455.43 734.1 450.65 729.32 450.65 755.68 455.43 755.68 455.43 734.1"/><polygon class="cls-29" points="455.44 734.1 450.66 729.32 500.1 729.32 500.1 734.1 455.44 734.1"/><polygon class="cls-46" points="455.43 755.68 459.13 755.68 459.13 737.66 500.1 737.66 500.1 734.1 455.44 734.1 455.43 755.68"/><rect class="cls-46" x="469.99" y="745.09" width="18.82" height="2.42" transform="translate(1225.7 266.9) rotate(90)"/><rect class="cls-44" x="323.21" y="730.26" width="47.06" height="25.42"/><polygon class="cls-28" points="325.6 734.1 320.82 729.32 320.82 755.68 325.6 755.68 325.6 734.1"/><polygon class="cls-29" points="325.61 734.1 320.83 729.32 370.27 729.32 370.27 734.1 325.61 734.1"/><polygon class="cls-46" points="325.6 755.68 329.3 755.68 329.3 737.66 370.27 737.66 370.27 734.1 325.61 734.1 325.6 755.68"/><rect class="cls-46" x="340.16" y="745.09" width="18.82" height="2.42" transform="translate(1095.87 396.73) rotate(90)"/><rect class="cls-44" x="999.26" y="575.91" width="189.7" height="25.42" transform="translate(2188.22 1177.25) rotate(180)"/><polygon class="cls-28" points="1186.57 579.76 1191.35 574.97 1191.35 601.33 1186.57 601.33 1186.57 579.76"/><polygon class="cls-29" points="1186.56 579.76 1191.34 574.97 999.26 574.97 999.26 579.76 1186.56 579.76"/><polygon class="cls-46" points="1186.57 601.33 1182.87 601.33 1182.87 583.31 999.26 583.31 999.26 579.76 1186.56 579.76 1186.57 601.33"/><rect class="cls-46" x="1021.08" y="590.31" width="19.64" height="2.42" transform="translate(1622.42 -439.39) rotate(90)"/><rect class="cls-46" x="1059.77" y="590.31" width="19.64" height="2.42" transform="translate(1661.1 -478.07) rotate(90)"/><rect class="cls-46" x="1098.45" y="590.31" width="19.64" height="2.42" transform="translate(1699.78 -516.76) rotate(90)"/><rect class="cls-46" x="1137.13" y="590.31" width="19.64" height="2.42" transform="translate(1738.47 -555.44) rotate(90)"/><rect class="cls-44" x="999.26" y="624.89" width="189.7" height="25.42" transform="translate(2188.22 1275.19) rotate(180)"/><polygon class="cls-28" points="1186.57 628.73 1191.35 623.95 1191.35 650.31 1186.57 650.31 1186.57 628.73"/><polygon class="cls-29" points="1186.56 628.73 1191.34 623.95 999.26 623.95 999.26 628.73 1186.56 628.73"/><polygon class="cls-46" points="1186.57 650.31 1182.87 650.31 1182.87 632.28 999.26 632.28 999.26 628.73 1186.56 628.73 1186.57 650.31"/><rect class="cls-46" x="1021.08" y="639.28" width="19.64" height="2.42" transform="translate(1671.39 -390.42) rotate(90)"/><rect class="cls-46" x="1059.77" y="639.28" width="19.64" height="2.42" transform="translate(1710.07 -429.1) rotate(90)"/><rect class="cls-46" x="1098.45" y="639.28" width="19.64" height="2.42" transform="translate(1748.76 -467.78) rotate(90)"/><rect class="cls-46" x="1137.13" y="639.28" width="19.64" height="2.42" transform="translate(1787.44 -506.47) rotate(90)"/><rect class="cls-44" x="916.33" y="624.89" width="47.06" height="25.42"/><polygon class="cls-28" points="918.72 628.73 913.94 623.95 913.94 650.31 918.72 650.31 918.72 628.73"/><polygon class="cls-29" points="918.74 628.73 913.95 623.95 963.39 623.95 963.39 628.73 918.74 628.73"/><polygon class="cls-46" points="918.72 650.31 922.43 650.31 922.43 632.28 963.39 632.28 963.39 628.73 918.74 628.73 918.72 650.31"/><rect class="cls-46" x="933.28" y="639.72" width="18.82" height="2.42" transform="translate(1583.62 -301.76) rotate(90)"/><rect class="cls-44" x="916.33" y="575.91" width="47.06" height="25.42"/><polygon class="cls-28" points="918.72 579.76 913.94 574.97 913.94 601.33 918.72 601.33 918.72 579.76"/><polygon class="cls-29" points="918.74 579.76 913.95 574.97 963.39 574.97 963.39 579.76 918.74 579.76"/><polygon class="cls-46" points="918.72 601.33 922.43 601.33 922.43 583.31 963.39 583.31 963.39 579.76 918.74 579.76 918.72 601.33"/><rect class="cls-46" x="933.28" y="590.75" width="18.82" height="2.42" transform="translate(1534.64 -350.74) rotate(90)"/><rect class="cls-44" x="259.91" y="730.26" width="47.06" height="25.42"/><polygon class="cls-28" points="262.3 734.1 257.52 729.32 257.52 755.68 262.3 755.68 262.3 734.1"/><polygon class="cls-29" points="262.32 734.1 257.54 729.32 306.98 729.32 306.98 734.1 262.32 734.1"/><polygon class="cls-46" points="262.3 755.68 266.01 755.68 266.01 737.66 306.98 737.66 306.98 734.1 262.32 734.1 262.3 755.68"/><rect class="cls-46" x="276.86" y="745.09" width="18.82" height="2.42" transform="translate(1032.57 460.03) rotate(90)"/><rect class="cls-44" x="253.38" y="679.47" width="321.33" height="25.42"/><polygon class="cls-28" points="255.77 683.32 250.99 678.53 250.99 704.89 255.77 704.89 255.77 683.32"/><polygon class="cls-29" points="255.78 683.32 251 678.53 574.71 678.53 574.71 683.32 255.78 683.32"/><polygon class="cls-46" points="255.77 704.89 259.47 704.89 259.47 686.87 574.71 686.87 574.71 683.32 255.78 683.32 255.77 704.89"/><rect class="cls-46" x="347.94" y="694.31" width="18.82" height="2.42" transform="translate(1052.86 338.17) rotate(90)"/><rect class="cls-46" x="296.85" y="694.3" width="18.82" height="2.42" transform="translate(1001.77 389.26) rotate(90)"/><rect class="cls-46" x="396.6" y="694.31" width="18.82" height="2.42" transform="translate(1101.52 289.51) rotate(90)"/><rect class="cls-46" x="445.26" y="694.3" width="18.82" height="2.42" transform="translate(1150.18 240.85) rotate(90)"/><rect class="cls-46" x="493.92" y="694.31" width="18.82" height="2.42" transform="translate(1198.84 192.19) rotate(90)"/><rect class="cls-46" x="542.58" y="694.31" width="18.82" height="2.42" transform="translate(1247.5 143.53) rotate(90)"/><rect class="cls-44" x="254.2" y="634.63" width="320.48" height="25.42"/><polygon class="cls-28" points="256.59 638.47 251.81 633.69 251.81 660.05 256.59 660.05 256.59 638.47"/><polygon class="cls-29" points="256.6 638.47 251.82 633.69 574.67 633.69 574.67 638.47 256.6 638.47"/><polygon class="cls-46" points="256.59 660.05 260.29 660.05 260.29 642.02 574.67 642.02 574.67 638.47 256.6 638.47 256.59 660.05"/><rect class="cls-46" x="348.75" y="649.46" width="18.82" height="2.42" transform="translate(1008.83 292.51) rotate(90)"/><rect class="cls-46" x="297.17" y="649.46" width="18.82" height="2.42" transform="translate(957.24 344.09) rotate(90)"/><rect class="cls-46" x="397.41" y="649.46" width="18.82" height="2.42" transform="translate(1057.49 243.85) rotate(90)"/><rect class="cls-46" x="446.07" y="649.46" width="18.82" height="2.42" transform="translate(1106.15 195.19) rotate(90)"/><rect class="cls-46" x="494.73" y="649.46" width="18.82" height="2.42" transform="translate(1154.81 146.53) rotate(90)"/><rect class="cls-46" x="543.39" y="649.46" width="18.82" height="2.42" transform="translate(1203.47 97.87) rotate(90)"/><rect class="cls-25" x="228.98" y="777.45" width="158.54" height="14.9"/><rect class="cls-25" x="428.21" y="777.45" width="146.96" height="14.9"/><polygon class="cls-47" points="574.84 606.79 226.19 606.79 235.95 594.99 574.84 594.99 574.84 606.79"/><rect class="cls-35" x="225.93" y="606.79" width="348.9" height="3.99"/><rect class="cls-42" x="694.44" y="643.98" width="205.3" height="148.38"/><rect class="cls-54" x="599.61" y="674.12" width="83.28" height="107.53"/><rect class="cls-53" x="708.91" y="674.12" width="175.63" height="103.23"/><rect class="cls-26" x="798.23" y="675.03" width="86.31" height="109.78"/><rect class="cls-33" x="725.43" y="708.78" width="40.25" height="63.66"/><polygon class="cls-55" points="769.51 704.87 765.67 708.78 725.41 708.78 725.41 704.95 725.41 704.87 769.51 704.87"/><polygon class="cls-56" points="765.68 708.72 765.68 772.44 769.53 772.4 769.53 704.89 765.68 708.72"/><rect class="cls-33" x="648.01" y="707.93" width="34.88" height="63.66"/><polygon class="cls-55" points="682.84 704.02 682.88 707.93 648 707.93 647.99 704.1 647.99 704.02 682.84 704.02"/><rect class="cls-57" x="622.86" y="771.04" width="60.03" height="10.61"/><rect class="cls-58" x="708.91" y="781.75" width="174.78" height="10.61"/><rect class="cls-59" x="708.91" y="771.04" width="152.27" height="10.61"/><polygon class="cls-60" points="708.45 792.36 708.45 770.92 720.22 770.92 720.22 781.52 731.99 781.52 731.99 792.36 708.45 792.36"/><rect class="cls-47" x="664.21" y="174.13" width="214.79" height="12.78"/><rect class="cls-48" x="570.98" y="174.13" width="106.86" height="12.78"/><rect class="cls-43" x="872.79" y="674.22" width="11.75" height="118.13"/><rect class="cls-42" x="599.61" y="674.22" width="11.55" height="118.13"/><rect class="cls-61" x="611.16" y="781.75" width="71.73" height="10.61"/><rect class="cls-39" x="228.98" y="610.78" width="345.86" height="7.34"/><rect class="cls-39" x="574.83" y="186.91" width="299.83" height="7.34"/><rect class="cls-27" x="948.59" y="329" width="197.65" height="203.48"/><polygon class="cls-54" points="1149.68 325.58 1145.85 329.49 944.8 329.49 944.79 325.67 944.79 325.58 1149.68 325.58"/><polygon class="cls-45" points="1145.85 329.43 1145.85 532.47 1149.7 532.43 1149.7 325.6 1145.85 329.43"/><rect class="cls-30" x="1141.59" y="329.57" width="4.26" height="202.77"/><rect class="cls-30" x="1043.11" y="231.06" width="4.26" height="200.84" transform="translate(713.75 1376.72) rotate(-90)"/><rect class="cls-62" x="946.66" y="333.61" width="80.73" height="198.82"/><rect class="cls-29" x="944.82" y="325.71" width="82.39" height="3.64"/><rect class="cls-63" x="948.59" y="329.36" width="78.62" height="4.08"/><rect class="cls-63" x="948.48" y="329.57" width="4.26" height="202.77"/><polygon class="cls-45" points="944.74 325.6 948.59 329.44 948.59 532.57 944.74 532.52 944.74 325.6"/><rect class="cls-54" x="1047.28" y="319.09" width="2.17" height="194.97" transform="translate(631.79 1464.94) rotate(-90)"/><rect class="cls-54" x="950.88" y="462.3" width="194.97" height="2.17"/><rect class="cls-54" x="950.88" y="506.44" width="195.36" height="2.17"/><rect class="cls-54" x="950.88" y="368.95" width="195.36" height="2.17"/><rect class="cls-29" x="985.55" y="378.41" width="2.17" height="76.32" transform="translate(570.07 1403.21) rotate(-90)"/><rect class="cls-29" x="985.61" y="425.52" width="2.17" height="76.21" transform="translate(523.07 1450.32) rotate(-90)"/><rect class="cls-29" x="985.61" y="469.65" width="2.17" height="76.21" transform="translate(478.94 1494.45) rotate(-90)"/><polygon class="cls-29" points="1024.8 369.18 1024.8 371.35 948.48 371.35 948.59 369.18 1024.8 369.18"/><rect class="cls-54" x="1026.93" y="327.78" width="2.31" height="204.65"/><rect class="cls-29" x="1024.8" y="327.78" width="2.31" height="204.65"/><polygon class="cls-54" points="1089.9 532.34 1087.72 532.34 1087.72 328.13 1089.9 327.17 1089.9 532.34"/><rect class="cls-42" x="1089.32" y="674.41" width="7.65" height="117.95"/><rect class="cls-43" x="1082.93" y="688.48" width="6.39" height="103.87"/><rect class="cls-64" x="389.28" y="729.9" width="38.93" height="62.46"/><polygon class="cls-65" points="384.13 724.78 387.97 728.69 428.23 728.69 428.23 724.87 428.23 724.79 384.13 724.78"/><polygon class="cls-66" points="387.96 728.63 387.96 792.36 384.11 792.31 384.11 724.8 387.96 728.63"/><rect class="cls-67" x="387.96" y="728.9" width="4.26" height="63.46" transform="translate(780.18 1521.25) rotate(180)"/><rect class="cls-67" x="405.96" y="710.55" width="4.26" height="40.25" transform="translate(-322.59 1138.76) rotate(-90)"/><rect class="cls-64" x="518.88" y="729.9" width="38.93" height="62.46"/><polygon class="cls-65" points="513.73 724.78 517.56 728.69 557.82 728.69 557.83 724.87 557.83 724.79 513.73 724.78"/><polygon class="cls-66" points="517.55 728.63 517.55 792.36 513.71 792.31 513.71 724.8 517.55 728.63"/><rect class="cls-67" x="517.55" y="728.9" width="4.26" height="63.46" transform="translate(1039.37 1521.25) rotate(180)"/><rect class="cls-67" x="535.55" y="710.55" width="4.26" height="40.25" transform="translate(-192.99 1268.36) rotate(-90)"/><rect class="cls-68" x="944.38" y="288.26" width="82.47" height="15.76"/><rect class="cls-60" x="1026.53" y="288.26" width="82.47" height="15.76"/><rect class="cls-52" x="417.36" y="717.13" width="10.88" height="7.56"/><rect class="cls-69" x="375.48" y="717.13" width="42.38" height="7.56"/><rect class="cls-52" x="547.27" y="717.13" width="10.88" height="7.56"/><rect class="cls-69" x="505.39" y="717.13" width="42.38" height="7.56"/><path class="cls-47" d="M746.49,668.43V661.2H737.7v7.23h-3.37V650.54h3.37v7.54h8.79v-7.54h3.35v17.89Z" transform="translate(0)"/><path class="cls-47" d="M770.59,659.56c-.05,4.63-2.89,9.26-9.18,9.26s-9.2-4.53-9.2-9.23,3-9.43,9.2-9.43S770.64,654.89,770.59,659.56Zm-15.06.08c.08,2.94,1.67,6.08,5.88,6.08s5.81-3.16,5.86-6.1-1.64-6.39-5.86-6.39S755.46,656.63,755.53,659.64Z" transform="translate(0)"/><path class="cls-47" d="M784.61,654.84a5.1,5.1,0,0,0-4.24-2c-2.5,0-3.7,1-3.7,2.38,0,1.56,1.84,2,4,2.25,3.73.46,7.21,1.43,7.21,5.7,0,4-3.53,5.7-7.51,5.7-3.66,0-6.47-1.13-7.8-4.4l2.81-1.45c.79,2,2.86,2.83,5,2.83s4.11-.74,4.11-2.68c0-1.69-1.76-2.38-4.14-2.63-3.65-.44-7-1.41-7-5.42,0-3.68,3.63-5.19,6.93-5.22,2.78,0,5.67.8,7,3.56Z" transform="translate(0)"/><path class="cls-47" d="M798.9,663.14h-5.06v5.27h-3.38V650.52l8.44,0C807.64,650.49,807.66,663.14,798.9,663.14Zm-5.06-3.09h5.06a3.17,3.17,0,1,0,0-6.34h-5.06Z" transform="translate(0)"/><path class="cls-47" d="M807.76,668.41V650.52h3.35v17.89Z" transform="translate(0)"/><path class="cls-47" d="M819.72,653.58h-5.67v-3.06h14.72v3.06h-5.68v14.83h-3.37Z" transform="translate(0)"/><path class="cls-47" d="M843.51,665h-9.35l-1.54,3.38H829l8-17.89h3.68l8,17.89H845Zm-4.68-10.76-3.32,7.62h6.65Z" transform="translate(0)"/><path class="cls-47" d="M853.86,650.52v14.77h9.2v3.12H850.48V650.52Z" transform="translate(0)"/><polygon class="cls-46" points="1150.07 696.82 1097.46 696.79 1097.46 749.9 1097.46 783.46 1183.8 696.79 1150.07 696.82"/><polygon class="cls-46" points="1183.8 711.33 1102.67 792.46 1109.48 792.46 1183.29 718.64 1183.8 711.33"/><polygon class="cls-46" points="1048.56 696.82 999.87 696.82 1000.47 745.52 1000.47 783.46 1082.46 699.64 1082.46 696.79 1048.56 696.82"/><polygon class="cls-46" points="1082.93 714.2 1004.67 792.46 1011.48 792.46 1083.01 720.92 1082.93 714.2"/><polygon class="cls-46" points="962.93 754.2 924.67 792.46 931.48 792.46 963.01 760.92 962.93 754.2"/><polygon class="cls-46" points="962.93 696.87 920.39 695.33 921.53 753.59 920.39 777.55 963.01 734.92 962.93 696.87"/><polygon class="cls-46" points="1011.22 631.98 999.26 632.28 998.97 650.31 1000.6 650.31 1019.91 632.11 1011.22 631.98"/><polygon class="cls-46" points="1128.23 631.41 1109.48 649.74 1120.78 649.74 1139.59 631.55 1128.23 631.41"/><polygon class="cls-46" points="1142.81 631.41 1124.05 649.74 1130.18 649.74 1148.99 631.55 1142.81 631.41"/><polygon class="cls-46" points="1070.94 631.41 1052.18 649.74 1063.49 649.74 1082.3 631.55 1070.94 631.41"/><polygon class="cls-46" points="1085.52 631.41 1066.76 649.74 1072.89 649.74 1091.7 631.55 1085.52 631.41"/><polygon class="cls-46" points="1119.64 582.71 1100.88 601.04 1112.19 601.04 1131 582.85 1119.64 582.71"/><polygon class="cls-46" points="1134.21 582.71 1115.46 601.04 1121.59 601.04 1140.4 582.85 1134.21 582.71"/><polygon class="cls-46" points="1037.76 582.79 1019 601.12 1030.31 601.12 1049.12 582.92 1037.76 582.79"/><polygon class="cls-46" points="1052.34 582.79 1033.58 601.12 1039.71 601.12 1058.52 582.92 1052.34 582.79"/><polygon class="cls-46" points="1176.97 582.67 1158.21 601 1169.52 601 1185.72 585.41 1184 581.69 1176.97 582.67"/><polygon class="cls-46" points="1184.68 589.54 1172.79 601 1186.57 601.33 1184.68 589.54"/><polygon class="cls-46" points="706.09 589.84 688.45 590.66 688.58 626.48 702.81 626.69 740.15 589.98 706.09 589.84"/><polygon class="cls-46" points="743.37 589.84 706.09 626.69 712.22 626.69 749.55 589.98 743.37 589.84"/><polygon class="cls-46" points="738.86 527.99 701.58 565.63 764.66 565.63 802 528.13 738.86 527.99"/><polygon class="cls-46" points="805.22 527.99 767.94 565.63 774.07 565.63 811.4 528.13 805.22 527.99"/><polygon class="cls-46" points="688.58 405.93 690.34 443.57 714.7 443.57 752.04 406.06 688.58 405.93"/><polygon class="cls-46" points="759.26 405.93 721.98 443.57 732.61 443.57 769.94 406.06 759.26 405.93"/><polygon class="cls-46" points="743.52 345.24 706.25 382.88 774.89 382.88 812.23 345.38 743.52 345.24"/><polygon class="cls-46" points="819.44 345.24 782.17 382.88 792.8 382.88 830.13 345.38 819.44 345.24"/><polygon class="cls-46" points="787.81 223.38 750.53 261.02 774.89 261.02 812.23 223.52 787.81 223.38"/><polygon class="cls-46" points="819.44 223.38 782.17 261.02 792.8 261.02 830.13 223.52 819.44 223.38"/><polygon class="cls-46" points="689.08 285.36 689.12 322.44 712.48 322.44 749.81 285.44 689.08 285.36"/><polygon class="cls-46" points="757.03 285.3 719.75 322.44 730.38 322.44 767.71 285.44 757.03 285.3"/><polygon class="cls-46" points="688.58 223.38 689.25 261.02 717.61 261.02 754.94 223.52 688.58 223.38"/><polygon class="cls-46" points="762.16 223.38 724.88 261.02 735.51 261.02 772.85 223.52 762.16 223.38"/><polygon class="cls-46" points="808.31 284.55 771.03 322.19 835.61 322.19 853.53 304.09 851.72 285.81 808.31 284.55"/><polygon class="cls-46" points="853.4 311.3 842.88 322.19 853.51 322.19 853.43 322.11 853.4 311.3"/><polygon class="cls-46" points="796.51 467.72 759.24 504.57 825.43 504.57 852.68 477.94 850.44 467.72 796.51 467.72"/><polygon class="cls-46" points="851.59 482.11 828.71 504.57 834.84 504.57 852.3 487.73 851.59 482.11"/><polygon class="cls-46" points="274.89 686.17 257.52 686.11 256.13 704.5 274.94 704.5 293.75 686.3 274.89 686.17"/><polygon class="cls-46" points="296.96 686.17 278.21 704.5 284.34 704.5 303.15 686.3 296.96 686.17"/><polygon class="cls-46" points="300.06 641.72 281.3 660.05 318.88 660.05 337.69 641.86 300.06 641.72"/><polygon class="cls-46" points="340.91 641.72 322.16 660.05 328.29 660.05 347.1 641.86 340.91 641.72"/><polygon class="cls-46" points="331.19 686.17 312.44 704.5 363.54 704.5 382.35 686.3 331.19 686.17"/><polygon class="cls-46" points="385.57 686.17 366.81 704.5 372.94 704.5 391.75 686.3 385.57 686.17"/><polygon class="cls-46" points="373.64 641.72 354.88 660.05 407.49 660.05 426.3 641.86 373.64 641.72"/><polygon class="cls-46" points="429.51 641.72 410.76 660.05 416.89 660.05 435.7 641.86 429.51 641.72"/><polygon class="cls-46" points="485.57 686.17 466.82 704.5 513.74 704.5 532.55 686.3 485.57 686.17"/><polygon class="cls-46" points="535.77 686.17 517.01 704.5 523.14 704.5 541.96 686.3 535.77 686.17"/><polygon class="cls-46" points="528.02 641.72 509.27 660.05 557.69 660.05 574.86 643.49 574.67 641.26 528.02 641.72"/><polygon class="cls-46" points="574.47 646.97 560.96 660.05 567.09 660.05 574.38 653.38 574.47 646.97"/><polygon class="cls-17" points="125.57 723.67 121.55 723.67 121.55 749.24 125.57 749.49 125.57 723.67"/><polygon class="cls-18" points="129.47 723.67 125.45 723.67 125.45 749.49 129.47 749.24 129.47 723.67"/><polygon class="cls-19" points="124.62 638.23 104.68 730.16 125.51 736.92 144.57 730.16 124.62 638.23"/><polygon class="cls-20" points="124.62 638.23 104.68 730.16 125.51 736.92 124.62 638.23"/><polygon class="cls-17" points="1289.87 716.35 1285.86 716.35 1285.86 741.91 1289.87 742.16 1289.87 716.35"/><polygon class="cls-18" points="1293.78 716.35 1289.76 716.35 1289.76 742.16 1293.78 741.91 1293.78 716.35"/><polygon class="cls-19" points="1288.93 630.9 1268.98 722.84 1289.82 729.59 1308.88 722.84 1288.93 630.9"/><polygon class="cls-20" points="1288.93 630.9 1268.98 722.84 1289.82 729.59 1288.93 630.9"/><polygon class="cls-17" points="1385.73 725.24 1382.91 725.24 1382.91 743.18 1385.73 743.36 1385.73 725.24"/><polygon class="cls-18" points="1388.47 725.24 1385.65 725.24 1385.65 743.36 1388.47 743.18 1388.47 725.24"/><polygon class="cls-19" points="1385.07 665.25 1371.06 729.79 1385.69 734.53 1399.07 729.79 1385.07 665.25"/><polygon class="cls-20" points="1385.07 665.25 1371.06 729.79 1385.69 734.53 1385.07 665.25"/><path class="cls-15" d="M100.38,726.44a32.16,32.16,0,1,1-64.31,0c0-24.73,14.4-69.1,32.15-69.1S100.38,708.64,100.38,726.44Z" transform="translate(0)"/><path class="cls-16" d="M100.38,726.44c0-22.83-14.4-69.1-32.16-69.1V758.68A32.2,32.2,0,0,0,100.38,726.44Z" transform="translate(0)"/><polygon class="cls-17" points="65.62 726.53 63.68 792.51 72.77 792.51 70.83 726.53 65.62 726.53"/><polygon class="cls-18" points="68.22 726.53 68.22 792.51 72.77 792.51 70.83 726.53 68.22 726.53"/><path class="cls-15" d="M1250.81,736.89a27.85,27.85,0,1,1-55.7,0c0-21.43,12.47-59.86,27.85-59.86S1250.81,721.46,1250.81,736.89Z" transform="translate(0)"/><path class="cls-16" d="M1250.81,736.89c0-19.78-12.47-59.86-27.85-59.86v87.78A27.89,27.89,0,0,0,1250.81,736.89Z" transform="translate(0)"/><polygon class="cls-17" points="1220.7 736.96 1219.02 794.11 1226.9 794.11 1225.21 736.96 1220.7 736.96"/><polygon class="cls-18" points="1222.96 736.96 1222.96 794.11 1226.9 794.11 1225.21 736.96 1222.96 736.96"/><path class="cls-15" d="M272,730.5a30.38,30.38,0,1,1-60.75,0c0-23.37,13.6-65.29,30.38-65.29S272,713.67,272,730.5Z" transform="translate(0)"/><path class="cls-16" d="M272,730.5c0-21.58-13.6-65.29-30.37-65.29V761A30.41,30.41,0,0,0,272,730.5Z" transform="translate(0)"/><polygon class="cls-17" points="239.19 730.58 237.36 792.91 245.95 792.91 244.12 730.58 239.19 730.58"/><polygon class="cls-18" points="241.66 730.58 241.66 792.91 245.95 792.91 244.12 730.58 241.66 730.58"/><path class="cls-15" d="M1377.46,713.9a27.77,27.77,0,1,1-55.53,0c0-21.36,12.43-59.68,27.77-59.68S1377.46,698.52,1377.46,713.9Z" transform="translate(0)"/><path class="cls-16" d="M1377.46,713.9c0-19.72-12.43-59.68-27.76-59.68v87.52A27.8,27.8,0,0,0,1377.46,713.9Z" transform="translate(0)"/><polygon class="cls-17" points="1347.44 713.98 1345.77 770.94 1353.62 770.94 1351.95 713.98 1347.44 713.98"/><polygon class="cls-18" points="1349.69 713.98 1349.69 770.94 1353.62 770.94 1351.95 713.98 1349.69 713.98"/><polygon class="cls-17" points="301.69 740.59 298.58 792.64 301.69 792.9 301.69 740.59"/><polygon class="cls-18" points="301.61 740.59 301.61 792.9 304.73 792.64 301.61 740.59"/><path class="cls-19" d="M323.75,748.55a21.9,21.9,0,0,1-21.9,21.9h-.05V687.91h.05c3,0,8.11,11.13,12.67,24.05l-10,5.71,11.6-.94C320.38,729.53,323.75,743,323.75,748.55Z" transform="translate(0)"/><path class="cls-20" d="M301.8,687.91v82.54A21.9,21.9,0,0,1,280,748.55a50.69,50.69,0,0,1,1.35-9.42l12.69.44-11.78-4.42C286.78,716.45,297.05,688.11,301.8,687.91Z" transform="translate(0)"/><polygon class="cls-17" points="580.25 720.4 575.93 792.56 580.25 792.52 580.25 720.4"/><polygon class="cls-18" points="580.14 720.4 580.14 792.52 584.46 792.56 580.14 720.4"/><path class="cls-19" d="M610.84,731.43a30.36,30.36,0,0,1-30.36,30.36h-.08V647.36h.08c4.09,0,11.23,15.43,17.55,33.35l-13.81,7.91,16.07-1.3C606.16,705.06,610.84,723.67,610.84,731.43Z" transform="translate(0)"/><path class="cls-20" d="M580.4,647.36V761.79a30.35,30.35,0,0,1-30.28-30.36A70.1,70.1,0,0,1,552,718.37l17.6.61-16.33-6.12C559.58,686.93,573.82,647.64,580.4,647.36Z" transform="translate(0)"/><path class="cls-19" d="M272.84,792.58a10.77,10.77,0,0,0-21.07,0Z" transform="translate(0)"/><path class="cls-13" d="M147.74,757.69a10.77,10.77,0,0,0-21.07,0Z" transform="translate(0)"/><path class="cls-9" d="M168.58,743.23a10.77,10.77,0,0,0-21.07,0Z" transform="translate(0)"/><path class="cls-9" d="M186.28,743.23a10.77,10.77,0,0,0-21.07,0Z" transform="translate(0)"/><path class="cls-10" d="M32,743.23a10.77,10.77,0,0,0-21.07,0Z" transform="translate(0)"/><path class="cls-13" d="M1315.86,762.74a10.77,10.77,0,0,0-21.07,0Z" transform="translate(0)"/><path class="cls-13" d="M1396.26,757.69a10.77,10.77,0,0,0-21.07,0Z" transform="translate(0)"/><path class="cls-15" d="M91.31,783.75a10.77,10.77,0,0,1,9.79,6.3,7.58,7.58,0,0,1,14,2.23H80.78A10.77,10.77,0,0,1,91.31,783.75Z" transform="translate(0)"/><path class="cls-20" d="M956.74,784a10.76,10.76,0,0,1,9.79,6.3,7.58,7.58,0,0,1,14,2.23h-34.3A10.77,10.77,0,0,1,956.74,784Z" transform="translate(0)"/><path class="cls-20" d="M496.1,786.26a7.6,7.6,0,0,0-6.56,3.79,10.75,10.75,0,0,0-17-3.51,9.08,9.08,0,0,0-13.85,5.72h44.84A8.06,8.06,0,0,0,496.1,786.26Z" transform="translate(0)"/><path class="cls-15" d="M1262.37,783a10.77,10.77,0,0,1,9.79,6.3,7.58,7.58,0,0,1,14,2.23h-34.3A10.79,10.79,0,0,1,1262.37,783Z" transform="translate(0)"/><path class="cls-10" d="M1360,783.74a10.77,10.77,0,0,1,9.79,6.3,7.58,7.58,0,0,1,14,2.23h-34.3A10.77,10.77,0,0,1,1360,783.74Z" transform="translate(0)"/><path class="cls-20" d="M164.07,792a10.1,10.1,0,0,1,17.06-4.42,13.46,13.46,0,0,1,20.75-7.25,16.83,16.83,0,0,1,31.24,12Z" transform="translate(0)"/><path class="cls-70" d="M1151,745.54c-5.83-.12-14.91-.36-21.77.48-12.79,1.57-26.17,19.58-37.26,27.38-2.44,1.71-19,3.29-27.68,5.4s-9.88,3.56-11.4,6.2-1.58,9-1.64,13.77a29.87,29.87,0,0,0,.46,6.85c-7.69.55-6,6.51-3.48,12.38,2.68,6.31,6,5.8,13.54,5.8h251.41a3,3,0,0,0,3-3v-92.5a3,3,0,0,0-3-3H1154a3,3,0,0,0-3,3Z" transform="translate(0)"/><path class="cls-71" d="M1316.21,779.84v8.82H1051.8a11.31,11.31,0,0,1,1.08-3.66c1.26-2.19,2.34-3.56,7.59-5.16Z" transform="translate(0)"/><path class="cls-72" d="M1316.21,788.66H1051.8a76.52,76.52,0,0,0-.56,10.11,29.87,29.87,0,0,0,.46,6.85c-7.69.55-6,6.51-3.48,12.38,2.68,6.31,6,5.8,13.54,5.8h251.41a3,3,0,0,0,3-3Z" transform="translate(0)"/><path class="cls-73" d="M1051.63,805.63h17.48l31,13.77h227v1.37a3,3,0,0,1-3,3H1061.76c-7.51,0-10.86.51-13.54-5.8C1045.74,812.15,1044,806.21,1051.63,805.63Z" transform="translate(0)"/><path class="cls-74" d="M1246.09,803.71a21.29,21.29,0,0,1,21.26,20.09h-42.51A21.29,21.29,0,0,1,1246.09,803.71Z" transform="translate(0)"/><circle class="cls-75" cx="1246.09" cy="825" r="17"/><path class="cls-76" d="M1246.09,814a11,11,0,1,1-11,11A11,11,0,0,1,1246.09,814Z" transform="translate(0)"/><path class="cls-74" d="M1246.09,820a.75.75,0,1,1-.75.75.76.76,0,0,1,.75-.75Zm0,2.25a2.74,2.74,0,1,1-2.74,2.74,2.74,2.74,0,0,1,2.74-2.74ZM1242.6,825a.75.75,0,1,1-.75-.75.75.75,0,0,1,.75.75Zm8.48,0a.75.75,0,1,1-.75-.75.76.76,0,0,1,.75.75Zm-7.46,2.47a.74.74,0,0,0-1,0,.74.74,0,1,0,1,0Zm6-6a.75.75,0,1,0,0,1.06.75.75,0,0,0,0-1.06Zm-1.06,6a.75.75,0,1,0,1.06,0,.75.75,0,0,0-1.06,0Zm-6-6a.75.75,0,1,0,1,0,.74.74,0,0,0-1,0Zm11.18,7.27a8.54,8.54,0,0,1-3.91,3.92.35.35,0,0,1-.16-.09c-.39-.39.19-1.59,1.29-2.69s2.3-1.68,2.69-1.3a.51.51,0,0,1,.09.16Zm-15.32-7.48a8.51,8.51,0,0,1,3.92-3.92.51.51,0,0,1,.16.09c.38.39-.2,1.59-1.3,2.69s-2.3,1.68-2.69,1.29a.38.38,0,0,1-.09-.15Zm3.92,11.4a8.56,8.56,0,0,1-3.92-3.92.51.51,0,0,1,.09-.16c.39-.38,1.59.2,2.69,1.3s1.68,2.3,1.3,2.69a.51.51,0,0,1-.16.09Zm7.49-15.32a8.49,8.49,0,0,1,3.91,3.92.38.38,0,0,1-.09.15c-.39.39-1.59-.19-2.69-1.29s-1.68-2.3-1.29-2.69a.35.35,0,0,1,.16-.09ZM1238,827.77a8.57,8.57,0,0,1,0-5.54.41.41,0,0,1,.18-.05c.54,0,1,1.26,1,2.82s-.44,2.82-1,2.82a.41.41,0,0,1-.18-.05Zm16.13-5.54a8.57,8.57,0,0,1,0,5.54.41.41,0,0,1-.18.05c-.55,0-1-1.27-1-2.82s.44-2.82,1-2.82a.41.41,0,0,1,.18.05Zm-5.3,10.83a8.57,8.57,0,0,1-5.54,0,.34.34,0,0,1,0-.18c0-.54,1.26-1,2.81-1s2.82.44,2.82,1a.35.35,0,0,1-.05.18Zm-2.77-16.59a8.74,8.74,0,0,1,2.77.46.41.41,0,0,1,.05.18c0,.55-1.26,1-2.82,1s-2.81-.44-2.81-1a.39.39,0,0,1,0-.18,8.74,8.74,0,0,1,2.77-.46Zm0,12a.75.75,0,1,1-.75.75A.75.75,0,0,1,1246.09,828.49Z" transform="translate(0)"/><path class="cls-74" d="M1077.35,801.17h10.37a16.6,16.6,0,0,1,16.55,16.55v6.08H1060.8v-6.09A16.6,16.6,0,0,1,1077.35,801.17Z" transform="translate(0)"/><circle class="cls-75" cx="1082.96" cy="825" r="17" transform="translate(-95.15 1507.27) rotate(-67.38)"/><path class="cls-76" d="M1083,814a11,11,0,1,1-11,11A11,11,0,0,1,1083,814Z" transform="translate(0)"/><path class="cls-74" d="M1083,820a.75.75,0,1,1-.75.75.76.76,0,0,1,.75-.75Zm0,2.25a2.74,2.74,0,1,1-2.74,2.74,2.74,2.74,0,0,1,2.74-2.74Zm-3.49,2.74a.75.75,0,1,1-.75-.75.75.75,0,0,1,.75.75Zm8.48,0a.75.75,0,1,1-.75-.75.76.76,0,0,1,.75.75Zm-7.46,2.47a.74.74,0,0,0-1,0,.74.74,0,0,0,1,1,.74.74,0,0,0,0-1Zm6-6a.75.75,0,1,0,0,1.06.75.75,0,0,0,0-1.06Zm-1.06,6a.75.75,0,1,0,1.06,0,.75.75,0,0,0-1.06,0Zm-6-6a.75.75,0,0,0,1,1.06.75.75,0,0,0,0-1.06.74.74,0,0,0-1,0Zm11.18,7.27a8.56,8.56,0,0,1-3.92,3.92.51.51,0,0,1-.16-.09c-.38-.39.2-1.59,1.3-2.69s2.3-1.68,2.69-1.3a.51.51,0,0,1,.09.16Zm-15.32-7.48a8.51,8.51,0,0,1,3.92-3.92.51.51,0,0,1,.16.09c.38.39-.2,1.59-1.3,2.69s-2.3,1.68-2.69,1.29a.38.38,0,0,1-.09-.15Zm3.92,11.4a8.56,8.56,0,0,1-3.92-3.92.51.51,0,0,1,.09-.16c.39-.38,1.59.2,2.69,1.3s1.68,2.3,1.3,2.69a.51.51,0,0,1-.16.09Zm7.48-15.32a8.51,8.51,0,0,1,3.92,3.92.38.38,0,0,1-.09.15c-.39.39-1.59-.19-2.69-1.29s-1.68-2.3-1.3-2.69a.51.51,0,0,1,.16-.09Zm-11.8,10.43a8.57,8.57,0,0,1,0-5.54.35.35,0,0,1,.18-.05c.54,0,1,1.26,1,2.82s-.44,2.82-1,2.82a.35.35,0,0,1-.18-.05Zm16.13-5.54a8.57,8.57,0,0,1,0,5.54.41.41,0,0,1-.18.05c-.55,0-1-1.27-1-2.82s.44-2.82,1-2.82a.41.41,0,0,1,.18.05Zm-5.3,10.83a8.57,8.57,0,0,1-5.54,0,.35.35,0,0,1,0-.18c0-.54,1.27-1,2.82-1s2.82.44,2.82,1a.35.35,0,0,1,0,.18ZM1083,816.47a8.74,8.74,0,0,1,2.77.46.41.41,0,0,1,0,.18c0,.55-1.26,1-2.82,1s-2.82-.44-2.82-1a.41.41,0,0,1,0-.18,8.74,8.74,0,0,1,2.77-.46Zm0,12a.75.75,0,1,1-.75.75A.75.75,0,0,1,1083,828.49Z" transform="translate(0)"/><rect class="cls-77" x="1302.29" y="770.74" width="8.5" height="6" rx="1.12"/><rect class="cls-66" x="1303.16" y="771.61" width="6.76" height="4.25" rx="0.5"/><rect class="cls-78" x="1306.19" y="771.61" width="3.73" height="4.25" rx="0.25"/><rect class="cls-47" x="1160.16" y="731.02" width="13.9" height="11" rx="1.84"/><rect class="cls-79" x="1178.09" y="731.02" width="13.9" height="11" rx="1.84"/><rect class="cls-77" x="1182.1" y="781.25" width="8.5" height="6" rx="1.12"/><rect class="cls-66" x="1182.97" y="782.12" width="6.76" height="4.25" rx="0.5"/><rect class="cls-78" x="1186" y="782.12" width="3.73" height="4.25" rx="0.25"/><path class="cls-80" d="M1110.48,763c-2.22,2.38-5.65,5.15-6.67,8.22-1,2.85-1.06,6.57,1.53,6.67,3.36.13,34.19,0,35.71-.08s1.71-1.44,1.78-3.42c.05-1.53.69-12.31,1-18,.38-6.79-2.33-6.56-11.93-6.37-5.06.1-7.54,1-9.16,2.08C1118.13,755.23,1112.21,761.16,1110.48,763Z" transform="translate(0)"/><path class="cls-71" d="M1147,731h4v11h-4a1.85,1.85,0,0,1-1.85-1.84v-7.32A1.85,1.85,0,0,1,1147,731Z" transform="translate(0)"/><path class="cls-81" d="M1110.48,763c-2.22,2.38-5.65,5.15-6.67,8.22-1,2.85-1.06,6.57,1.53,6.67,3.36.13,34.19,0,35.71-.08s1.71-1.44,1.78-3.42c.05-1.53.69-12.31,1-18,.38-6.79-2.33-6.56-11.93-6.37-5.06.1-7.54,1-9.16,2.08-4.62,3.09-10.54,9-12.27,10.89Zm.67.62a95.84,95.84,0,0,1,7.43-7.1,48.45,48.45,0,0,1,4.68-3.64c2.39-1.6,5.89-1.88,8.67-1.93a68.28,68.28,0,0,1,7,0,5.32,5.32,0,0,1,3.18,1c1,1,.87,3.11.8,4.35-.13,2.45-.28,4.89-.42,7.34-.2,3.54-.47,7.13-.59,10.67,0,.5-.05,2.07-.47,2.42a.73.73,0,0,1-.41.12c-2,0-4,0-6,0l-11.92.06-11.27,0c-2.12,0-4.31,0-6.43,0s-1.09-4.27-.69-5.46C1105.63,768.69,1109.11,765.84,1111.15,763.65Z" transform="translate(0)"/><path class="cls-82" d="M1109,764.57h2.31a.56.56,0,0,1,.56.56v12a.56.56,0,0,1-.56.55H1109a2.73,2.73,0,0,1-1.27-.3h-.06l-2.5.49a.93.93,0,0,1-1.09-.74l-.34-1.67a.94.94,0,0,1,.73-1.1l1.67-.32v-6.57A2.87,2.87,0,0,1,1109,764.57Z" transform="translate(0)"/><path class="cls-83" d="M1110.84,764.57v11.19a.55.55,0,0,1-.55.55H1108a2.9,2.9,0,0,1-1.28-.3h0l-2.5.49H1104l-.22-1.09a.94.94,0,0,1,.73-1.1l1.67-.32v-6.57a2.87,2.87,0,0,1,2.86-2.87Z" transform="translate(0)"/><path class="cls-84" d="M1151,745.54v34.3h-.92V745.52l.92,0Zm0,43.12V819.4h-.92V788.66Z" transform="translate(0)"/><rect class="cls-47" x="1150.07" y="779.84" width="0.92" height="8.83"/><rect class="cls-47" x="1278.96" y="731.02" width="13.9" height="11" rx="1.84"/><rect class="cls-79" x="1261.03" y="731.02" width="13.9" height="11" rx="1.84"/><path class="cls-71" d="M1051.55,790.71h264.66V793H1051.39C1051.43,792.21,1051.48,791.45,1051.55,790.71Z" transform="translate(0)"/><rect class="cls-47" x="1150.07" y="790.71" width="0.92" height="2.27"/><path class="cls-85" d="M1058.52,790.92v12.43a2.27,2.27,0,0,1-2.28,2.28h-4.54a29.87,29.87,0,0,1-.46-6.85,75,75,0,0,1,.57-10.13h4.43A2.28,2.28,0,0,1,1058.52,790.92Z" transform="translate(0)"/><rect class="cls-86" x="1062.34" y="789.34" width="10.67" height="5.01" rx="1.12"/><path class="cls-83" d="M1148.72,819.4q.08-36.18.13-72.36l-24.08.14c-.7.27-1.39.58-2.09.92l25.26-.14-.13,70.52h-38.52v-.16a24.48,24.48,0,0,0-2.54-11.37,21.45,21.45,0,0,0-4-5.71c-2-2.19-2.7-3.44-2.7-6.57,0-9.39.05-18.78.08-28.17l-.94.87q0,13.65-.06,27.3c0,3.45.75,4.78,3,7.18a21.13,21.13,0,0,1,3.8,5.49c1.51,3.16,2.9,7.95,2.39,11.54l-.07.52Z" transform="translate(0)"/><rect class="cls-77" x="1140.06" y="790.21" width="6" height="8.5" rx="1.12"/><rect class="cls-66" x="1140.62" y="791.01" width="4.88" height="6.91" rx="0.91"/><rect class="cls-78" x="1143.16" y="791.01" width="2.34" height="6.91" rx="0.91"/><rect class="cls-66" x="1262.98" y="794.39" width="9.62" height="10.54" rx="0.5"/><rect class="cls-86" x="1264.71" y="790.55" width="6.16" height="2.54" rx="0.23"/><rect class="cls-47" x="1150.99" y="749.9" width="165.22" height="2.27"/><path class="cls-87" d="M1206,768.46h1.55l-3.39-7.57h-1.56l-3.39,7.57h1.55l.65-1.42h4l.64,1.42Zm-1.21-2.75h-2.81l1.4-3.23,1.41,3.23Zm10.33,2.75h1.42v-7.55h-1.63l-2.36,3.25-2.37-3.25h-1.64v7.55h1.43V763l2.4,3.29h.28l2.47-3.27v5.47Zm4.57-3.27h2.18c.58,0,1.42.36,1.42,1s-.84.9-1.42.9h-2.18v-1.94Zm0-3h2.18c.91,0,1.19.59,1.19.93s-.29.82-1.19.82h-2.18v-1.75Zm2.18-1.3h-3.58v7.57h3.58c1.57,0,2.83-.54,2.83-2.22a1.84,1.84,0,0,0-1.21-1.69,1.53,1.53,0,0,0,1-1.46c0-1.53-1.11-2.2-2.6-2.2Zm9.5,0v4.33c0,1.3-.67,2.09-1.85,2.09a1.86,1.86,0,0,1-2-2.09v-4.33h-1.42v4.33a3.16,3.16,0,0,0,3.36,3.38,3.07,3.07,0,0,0,3.27-3.38v-4.33Zm3.26,0v7.57h5.31v-1.32H1236v-6.25Zm12.77,7.57h1.55l-3.39-7.57H1244l-3.39,7.57h1.55l.65-1.42h4l.64,1.42Zm-1.21-2.75h-2.81l1.4-3.23,1.41,3.23Zm8.82-.12-3.7-4.7h-1.15v7.57h1.42v-5.1l4,5.1h.89v-7.57H1255v4.7Zm8.88.94a2.79,2.79,0,0,1-1.9.77,2.43,2.43,0,0,1-2.61-2.56,2.48,2.48,0,0,1,2.61-2.63,2.59,2.59,0,0,1,1.82.72l1-.92a3.89,3.89,0,0,0-2.77-1.16,3.81,3.81,0,0,0-4,4,3.71,3.71,0,0,0,4,3.89,4,4,0,0,0,2.87-1.12l-1-1Zm7.85.53h-4.24v-1.71h4.09V764h-4.09v-1.75h4.24v-1.38H1266v7.57h5.66Z" transform="translate(0)"/><path class="cls-83" d="M1159,744.16h34.15a1.21,1.21,0,0,1,.88.37,1.22,1.22,0,0,1,.37.88v72.74a1.25,1.25,0,0,1-1.25,1.25H1159a1.23,1.23,0,0,1-1.25-1.25V745.41a1.25,1.25,0,0,1,1.25-1.25Zm0,.92a.37.37,0,0,0-.24.1.32.32,0,0,0-.09.23v72.74a.31.31,0,0,0,.33.33h34.15a.32.32,0,0,0,.23-.09.33.33,0,0,0,.1-.24V745.41a.29.29,0,0,0-.1-.23.33.33,0,0,0-.23-.1Z" transform="translate(0)"/><path class="cls-83" d="M1278.23,727.67h34.68a1.78,1.78,0,0,1,1.78,1.78v88.17a1.78,1.78,0,0,1-1.78,1.78h-34.68a1.78,1.78,0,0,1-1.77-1.78V729.45a1.8,1.8,0,0,1,.52-1.26,1.78,1.78,0,0,1,1.25-.52Zm0,.92a.84.84,0,0,0-.6.25.89.89,0,0,0-.26.61v88.17a.87.87,0,0,0,.26.61.86.86,0,0,0,.6.25h34.68a.85.85,0,0,0,.86-.86V729.45a.85.85,0,0,0-.86-.86Z" transform="translate(0)"/><rect class="cls-86" x="1303.46" y="765.11" width="6.16" height="2.54" rx="0.23"/><path class="cls-88" d="M731.31,972.15H690.58a4.75,4.75,0,0,1-4.75-4.75h0a4.75,4.75,0,0,1,4.75-4.75h40.73a4.75,4.75,0,0,1,4.75,4.75h0A4.75,4.75,0,0,1,731.31,972.15Z" transform="translate(0)"/><path class="cls-88" d="M753,972.15h-4.89a4.75,4.75,0,0,1-4.75-4.75h0a4.75,4.75,0,0,1,4.75-4.75H753a4.75,4.75,0,0,1,4.75,4.75h0A4.75,4.75,0,0,1,753,972.15Z" transform="translate(0)"/></svg>