<svg xmlns="http://www.w3.org/2000/svg" viewBox="0 0 1966.12 695.69"><defs><style>.cls-1,.cls-4{fill:#edf2ff;}.cls-1{fill-rule:evenodd;}.cls-2{fill:#c9d5f8;}.cls-3{fill:#b6c9ff;}.cls-5{fill:#dbe5ff;}.cls-6{fill:#fff;}.cls-7{fill:#94b4f8;}.cls-8{fill:#7b98ee;}.cls-9{fill:#401737;}</style></defs><g id="background"><path class="cls-1" d="M1488.41,175.91c-7.06-7-19-10.66-31.14-10.88v0h-1.37v0c-12.11.22-24.08,3.84-31.13,10.88-6.81,6.81-10.47,17-8.69,28.24,1.25,7.87,5.91,16.9,11.55,25.76l23.79,35.68L1448,284.12l.1,0c.44,0,16.59,0,17,0l.09,0-3.44-18.53,23.79-35.68c5.64-8.86,10.3-17.89,11.55-25.76C1498.88,192.9,1495.22,182.72,1488.41,175.91ZM1456.59,273H1452l1.16-5.88a146.23,146.23,0,0,0,6.84,0l1.15,5.88Zm3.57-7.58-.23-1.17h0v0h0a.43.43,0,0,0-.39-.37h-1v-1.52a.25.25,0,0,0-.25-.24h-3.47a.24.24,0,0,0-.24.24v1.52h-.95a.43.43,0,0,0-.4.37h0v0h0l-.23,1.17-5.11-7.19h17.37Z" transform="translate(-74.8 -165)"/><polygon class="cls-2" points="767.95 691.18 1097.54 361.59 1097.54 351.21 757.58 691.18 767.95 691.18"/><polygon class="cls-2" points="745.85 691.18 1097.54 339.48 1097.54 329.11 735.47 691.18 745.85 691.18"/><polygon class="cls-2" points="701.63 691.18 1094.91 297.9 1084.53 297.9 691.25 691.18 701.63 691.18"/><polygon class="cls-2" points="723.74 691.18 1097.54 317.37 1097.54 307 713.36 691.18 723.74 691.18"/><polygon class="cls-2" points="706.36 598.03 865.8 438.58 855.43 438.58 706.36 587.65 706.36 598.03"/><polygon class="cls-2" points="686.51 607.5 675.07 618.93 675.07 629.31 696.88 607.5 686.51 607.5"/><polygon class="cls-2" points="888.35 416.03 1006.48 297.9 996.11 297.9 888.35 405.66 888.35 416.03"/><polygon class="cls-2" points="675.07 673.52 1050.69 297.9 1040.32 297.9 675.07 663.15 675.07 673.52"/><polygon class="cls-2" points="1062.43 297.9 675.07 685.25 675.07 691.18 679.52 691.18 1072.8 297.9 1062.43 297.9"/><polygon class="cls-2" points="877.53 438.58 675.07 641.04 675.07 651.42 887.91 438.58 877.53 438.58"/><polygon class="cls-2" points="888.35 438.14 1028.59 297.9 1018.22 297.9 888.35 427.76 888.35 438.14"/><polygon class="cls-2" points="900.59 691.18 1097.54 494.23 1097.54 483.85 890.22 691.18 900.59 691.18"/><polygon class="cls-2" points="922.7 691.18 1097.54 516.33 1097.54 505.96 912.32 691.18 922.7 691.18"/><polygon class="cls-2" points="812.16 691.18 1097.54 405.8 1097.54 395.42 801.79 691.18 812.16 691.18"/><polygon class="cls-2" points="878.48 691.18 1097.54 472.12 1097.54 461.74 868.11 691.18 878.48 691.18"/><polygon class="cls-2" points="856.38 691.18 1097.54 450.01 1097.54 439.64 846 691.18 856.38 691.18"/><polygon class="cls-2" points="834.27 691.18 1097.54 427.9 1097.54 417.53 823.89 691.18 834.27 691.18"/><polygon class="cls-2" points="944.8 691.18 1097.54 538.44 1097.54 528.06 934.43 691.18 944.8 691.18"/><polygon class="cls-2" points="706.36 575.92 843.69 438.58 833.32 438.58 754.99 516.91 754.99 517.03 754.87 517.03 706.36 565.54 706.36 575.92"/><polygon class="cls-2" points="888.35 393.92 984.37 297.9 974 297.9 888.35 383.55 888.35 393.92"/><polygon class="cls-2" points="888.35 349.71 940.16 297.9 929.79 297.9 888.35 339.33 888.35 349.71"/><polygon class="cls-2" points="754.99 483.07 799.48 438.58 789.11 438.58 754.99 472.69 754.99 483.07"/><polygon class="cls-2" points="706.36 531.7 721.03 517.03 710.66 517.03 706.36 521.33 706.36 531.7"/><polygon class="cls-2" points="888.35 371.82 962.27 297.9 951.89 297.9 888.35 361.44 888.35 371.82"/><polygon class="cls-2" points="754.99 505.17 821.59 438.58 811.21 438.58 754.99 494.8 754.99 505.17"/><polygon class="cls-2" points="706.36 553.81 743.14 517.03 732.77 517.03 706.36 543.44 706.36 553.81"/><polygon class="cls-2" points="754.99 460.96 777.38 438.58 767 438.58 754.99 450.59 754.99 460.96"/><polygon class="cls-2" points="888.35 325.09 888.35 327.6 918.05 297.9 907.68 297.9 887.83 317.75 887.83 325.09 888.35 325.09"/><polygon class="cls-2" points="887.83 297.9 887.83 306.02 895.95 297.9 887.83 297.9"/><polygon class="cls-2" points="790.06 691.18 1097.54 383.69 1097.54 373.32 779.68 691.18 790.06 691.18"/><polygon class="cls-2" points="1031.49 691.18 1097.54 625.13 1097.54 614.75 1021.12 691.18 1031.49 691.18"/><polygon class="cls-2" points="1075.7 691.18 1097.54 669.34 1097.54 658.97 1065.33 691.18 1075.7 691.18"/><polygon class="cls-2" points="1097.54 691.18 1097.54 681.07 1087.43 691.18 1097.54 691.18"/><polygon class="cls-2" points="965.17 691.18 1097.54 558.81 1097.54 548.43 954.8 691.18 965.17 691.18"/><polygon class="cls-2" points="987.28 691.18 1097.54 580.92 1097.54 570.54 976.9 691.18 987.28 691.18"/><polygon class="cls-2" points="1009.39 691.18 1097.54 603.02 1097.54 592.65 999.01 691.18 1009.39 691.18"/><polygon class="cls-2" points="1053.6 691.18 1097.54 647.23 1097.54 636.86 1043.22 691.18 1053.6 691.18"/><polygon class="cls-2" points="1460.78 533.91 1460.78 544.28 1617.49 387.56 1617.49 377.19 1460.78 533.91"/><polygon class="cls-2" points="1460.78 511.8 1460.78 522.18 1617.49 365.46 1617.49 355.08 1460.78 511.8"/><polygon class="cls-2" points="1586.91 319.34 1460.78 445.48 1460.78 455.85 1597.29 319.34 1586.91 319.34"/><polygon class="cls-2" points="1609.03 319.34 1460.78 467.59 1460.78 477.96 1617.49 321.25 1617.49 319.34 1609.03 319.34"/><polygon class="cls-2" points="1460.78 578.12 1460.78 588.49 1617.49 431.78 1617.49 421.4 1460.78 578.12"/><polygon class="cls-2" points="1460.78 489.7 1460.78 500.07 1617.49 343.35 1617.49 332.98 1460.78 489.7"/><polygon class="cls-2" points="1460.78 556.01 1460.78 566.39 1617.49 409.67 1617.49 399.3 1460.78 556.01"/><polygon class="cls-2" points="1460.78 600.23 1460.78 610.6 1617.49 453.89 1617.49 443.51 1460.78 600.23"/><polygon class="cls-2" points="1488.84 693.07 1617.49 564.42 1617.49 554.04 1478.46 693.07 1488.84 693.07"/><polygon class="cls-2" points="1460.78 666.55 1460.78 676.92 1617.49 520.2 1617.49 509.83 1460.78 666.55"/><polygon class="cls-2" points="1460.78 688.65 1460.78 693.07 1466.73 693.07 1617.49 542.31 1617.49 531.94 1460.78 688.65"/><polygon class="cls-2" points="1460.78 644.44 1460.78 654.82 1617.49 498.1 1617.49 487.72 1460.78 644.44"/><polygon class="cls-2" points="1460.78 622.34 1460.78 632.71 1617.49 475.99 1617.49 465.62 1460.78 622.34"/><polygon class="cls-2" points="1510.94 693.07 1617.49 586.52 1617.49 576.15 1500.57 693.07 1510.94 693.07"/><polygon class="cls-2" points="1460.78 319.34 1460.78 323.22 1464.65 319.34 1460.78 319.34"/><polygon class="cls-2" points="1498.49 319.34 1460.78 357.06 1460.78 367.43 1508.87 319.34 1498.49 319.34"/><polygon class="cls-2" points="1520.6 319.34 1460.78 379.16 1460.78 389.54 1530.97 319.34 1520.6 319.34"/><polygon class="cls-2" points="1564.81 319.34 1460.78 423.37 1460.78 433.75 1575.18 319.34 1564.81 319.34"/><polygon class="cls-2" points="1476.38 319.34 1460.78 334.95 1460.78 345.32 1486.76 319.34 1476.38 319.34"/><polygon class="cls-2" points="1542.7 319.34 1460.78 401.27 1460.78 411.64 1553.08 319.34 1542.7 319.34"/><polygon class="cls-2" points="1597.64 693.07 1617.49 673.22 1617.49 662.84 1587.26 693.07 1597.64 693.07"/><polygon class="cls-2" points="1555.16 693.07 1617.49 630.74 1617.49 620.36 1544.78 693.07 1555.16 693.07"/><polygon class="cls-2" points="1577.27 693.07 1617.49 652.84 1617.49 642.47 1566.89 693.07 1577.27 693.07"/><polygon class="cls-2" points="1617.49 693.07 1617.49 684.95 1609.37 693.07 1617.49 693.07"/><polygon class="cls-2" points="1533.05 693.07 1617.49 608.63 1617.49 598.26 1522.68 693.07 1533.05 693.07"/><polygon class="cls-2" points="285.88 650.51 562.49 373.9 552.12 373.9 285.88 640.14 285.88 650.51"/><polygon class="cls-2" points="285.88 562.08 474.06 373.9 463.69 373.9 285.88 551.71 285.88 562.08"/><polygon class="cls-2" points="285.88 606.3 518.27 373.9 507.9 373.9 285.88 595.92 285.88 606.3"/><polygon class="cls-2" points="287.34 693.27 564.95 415.66 564.95 405.28 285.88 684.35 285.88 693.27 287.34 693.27"/><polygon class="cls-2" points="285.88 584.19 496.17 373.9 485.79 373.9 285.88 573.82 285.88 584.19"/><polygon class="cls-2" points="285.88 662.24 285.88 672.62 564.95 393.55 564.95 383.18 285.88 662.24"/><polygon class="cls-2" points="375.77 693.27 564.95 504.08 564.95 493.71 365.39 693.27 375.77 693.27"/><polygon class="cls-2" points="309.44 693.27 564.95 437.76 564.95 427.39 299.07 693.27 309.44 693.27"/><polygon class="cls-2" points="397.87 693.27 564.95 526.19 564.95 515.82 387.5 693.27 397.87 693.27"/><polygon class="cls-2" points="331.55 693.27 564.95 459.87 564.95 449.5 321.18 693.27 331.55 693.27"/><polygon class="cls-2" points="353.66 693.27 564.95 481.98 564.95 471.6 343.29 693.27 353.66 693.27"/><polygon class="cls-2" points="285.88 628.41 540.38 373.9 530.01 373.9 285.88 618.03 285.88 628.41"/><polygon class="cls-2" points="320.92 394.41 341.42 373.9 331.05 373.9 320.92 384.03 320.92 394.41"/><polygon class="cls-2" points="397.37 373.9 320.92 450.35 320.92 455.31 315.96 455.31 285.88 485.39 285.88 495.77 407.75 373.9 397.37 373.9"/><polygon class="cls-2" points="285.88 539.98 451.96 373.9 441.58 373.9 285.88 529.6 285.88 539.98"/><polygon class="cls-2" points="285.88 517.87 429.85 373.9 419.48 373.9 285.88 507.5 285.88 517.87"/><polygon class="cls-2" points="419.98 693.27 564.95 548.3 564.95 537.92 409.6 693.27 419.98 693.27"/><polygon class="cls-2" points="320.92 416.51 363.53 373.9 353.15 373.9 320.92 406.14 320.92 416.51"/><polygon class="cls-2" points="320.92 438.62 385.64 373.9 375.26 373.9 320.92 428.25 320.92 438.62"/><polygon class="cls-2" points="293.85 455.31 285.88 463.29 285.88 473.66 304.23 455.31 293.85 455.31"/><polygon class="cls-2" points="508.41 693.27 564.95 636.72 564.95 626.35 498.03 693.27 508.41 693.27"/><polygon class="cls-2" points="552.62 693.27 564.95 680.94 564.95 670.56 542.24 693.27 552.62 693.27"/><polygon class="cls-2" points="486.3 693.27 564.95 614.61 564.95 604.24 475.92 693.27 486.3 693.27"/><polygon class="cls-2" points="464.19 693.27 564.95 592.51 564.95 582.13 453.82 693.27 464.19 693.27"/><polygon class="cls-2" points="530.51 693.27 564.95 658.83 564.95 648.46 520.14 693.27 530.51 693.27"/><polygon class="cls-2" points="442.08 693.27 564.95 570.4 564.95 560.03 431.71 693.27 442.08 693.27"/><path class="cls-3" d="M1924.46,368.36H1845.9v-1.75a26.46,26.46,0,0,1,47.89-15.53,19.25,19.25,0,0,1,30.67,15.53Zm-75-3.5h71.39a15.75,15.75,0,0,0-26.28-9.91l-1.56,1.42-1.11-1.79a22.95,22.95,0,0,0-42.44,10.28Z" transform="translate(-74.8 -165)"/><polygon class="cls-4" points="1829.41 465.07 1829.41 273.2 1705.83 273.2 1630.27 288.91 1422.74 288.91 1422.74 374.77 1367.75 374.77 1367.75 286.3 1277.71 286.3 1277.71 233.88 1227.95 233.88 1227.95 286.3 1130.52 286.3 1127.38 239.3 845.99 240.93 845.8 324.03 821.07 324.03 821.07 300.17 795.48 300.17 795.48 263.22 756.78 263.22 756.78 300.01 729.29 299.95 729.29 320.38 704.64 320.38 704.64 223.83 571.91 223.83 571.91 309.53 570.21 309.53 570.21 348.23 487.19 348.23 487.19 307.38 460.32 307.38 460.32 274.06 438.82 274.06 438.82 306.3 427 306.3 427 259.01 408.72 259.01 408.72 306.3 378.63 306.3 378.63 329.44 386.55 329.44 386.55 375.1 378.63 375.1 378.63 414.87 350.25 414.87 350.25 375.1 196.88 375.1 196.88 453.86 89.1 453.86 89.1 693.45 1756.68 693.39 1756.68 499.76 1780.25 499.76 1780.25 693.94 1905.88 693.94 1905.88 465.07 1829.41 465.07"/><polygon class="cls-2" points="246.8 589.78 246.8 600.16 403.52 443.44 403.52 433.07 246.8 589.78"/><polygon class="cls-2" points="246.8 567.68 246.8 578.05 403.52 421.34 403.52 410.96 246.8 567.68"/><polygon class="cls-2" points="372.94 375.22 246.8 501.36 246.8 511.73 383.31 375.22 372.94 375.22"/><polygon class="cls-2" points="395.05 375.22 246.8 523.47 246.8 533.84 403.52 377.13 403.52 375.22 395.05 375.22"/><polygon class="cls-2" points="246.8 634 246.8 644.37 403.52 487.65 403.52 477.28 246.8 634"/><polygon class="cls-2" points="246.8 545.57 246.8 555.95 403.52 399.23 403.52 388.86 246.8 545.57"/><polygon class="cls-2" points="246.8 611.89 246.8 622.26 403.52 465.55 403.52 455.17 246.8 611.89"/><polygon class="cls-2" points="246.8 656.11 246.8 666.48 403.52 509.76 403.52 499.39 246.8 656.11"/><polygon class="cls-2" points="331.05 692.77 403.52 620.29 403.52 609.92 320.67 692.77 331.05 692.77"/><polygon class="cls-2" points="286.83 692.77 403.52 576.08 403.52 565.71 276.46 692.77 286.83 692.77"/><polygon class="cls-2" points="308.94 692.77 403.52 598.19 403.52 587.81 298.56 692.77 308.94 692.77"/><polygon class="cls-2" points="264.73 692.77 403.52 553.98 403.52 543.6 254.35 692.77 264.73 692.77"/><polygon class="cls-2" points="246.8 678.21 246.8 688.59 403.52 531.87 403.52 521.5 246.8 678.21"/><polygon class="cls-2" points="353.15 692.77 403.52 642.4 403.52 632.03 342.78 692.77 353.15 692.77"/><polygon class="cls-2" points="246.8 375.22 246.8 379.1 250.68 375.22 246.8 375.22"/><polygon class="cls-2" points="284.52 375.22 246.8 412.93 246.8 423.31 294.89 375.22 284.52 375.22"/><polygon class="cls-2" points="306.62 375.22 246.8 435.04 246.8 445.41 317 375.22 306.62 375.22"/><polygon class="cls-2" points="350.83 375.22 246.8 479.25 246.8 489.63 361.21 375.22 350.83 375.22"/><polygon class="cls-2" points="262.41 375.22 246.8 390.83 246.8 401.2 272.79 375.22 262.41 375.22"/><polygon class="cls-2" points="328.73 375.22 246.8 457.15 246.8 467.52 339.1 375.22 328.73 375.22"/><polygon class="cls-2" points="397.37 692.77 403.52 686.62 403.52 676.24 386.99 692.77 397.37 692.77"/><polygon class="cls-2" points="375.26 692.77 403.52 664.51 403.52 654.13 364.89 692.77 375.26 692.77"/><polygon class="cls-2" points="220.03 692.77 364.95 547.84 364.95 537.46 209.65 692.77 220.03 692.77"/><polygon class="cls-2" points="208.24 672.08 208.24 682.45 364.95 525.73 364.95 515.36 208.24 672.08"/><polygon class="cls-2" points="334.38 479.62 208.24 605.75 208.24 616.13 344.75 479.62 334.38 479.62"/><polygon class="cls-2" points="356.49 479.62 208.24 627.86 208.24 638.24 364.95 481.52 364.95 479.62 356.49 479.62"/><polygon class="cls-2" points="264.24 692.77 364.95 592.05 364.95 581.68 253.86 692.77 264.24 692.77"/><polygon class="cls-2" points="208.24 649.97 208.24 660.34 364.95 503.63 364.95 493.25 208.24 649.97"/><polygon class="cls-2" points="242.13 692.77 364.95 569.95 364.95 559.57 231.76 692.77 242.13 692.77"/><polygon class="cls-2" points="286.35 692.77 364.95 614.16 364.95 603.79 275.97 692.77 286.35 692.77"/><polygon class="cls-2" points="352.66 692.77 364.95 680.48 364.95 670.11 342.29 692.77 352.66 692.77"/><polygon class="cls-2" points="330.56 692.77 364.95 658.37 364.95 648 320.18 692.77 330.56 692.77"/><polygon class="cls-2" points="308.45 692.77 364.95 636.27 364.95 625.89 298.08 692.77 308.45 692.77"/><polygon class="cls-2" points="208.24 479.62 208.24 483.49 212.11 479.62 208.24 479.62"/><polygon class="cls-2" points="245.95 479.62 208.24 517.33 208.24 527.71 256.33 479.62 245.95 479.62"/><polygon class="cls-2" points="268.06 479.62 208.24 539.44 208.24 549.81 278.43 479.62 268.06 479.62"/><polygon class="cls-2" points="312.27 479.62 208.24 583.65 208.24 594.02 322.64 479.62 312.27 479.62"/><polygon class="cls-2" points="223.85 479.62 208.24 495.23 208.24 505.6 234.22 479.62 223.85 479.62"/><polygon class="cls-2" points="290.16 479.62 208.24 561.54 208.24 571.92 300.54 479.62 290.16 479.62"/><polygon class="cls-2" points="624.68 690.47 769.61 545.54 769.61 535.17 614.31 690.47 624.68 690.47"/><polygon class="cls-2" points="612.9 669.78 612.9 680.15 769.61 523.44 769.61 513.06 612.9 669.78"/><polygon class="cls-2" points="739.04 477.32 612.9 603.46 612.9 613.83 749.41 477.32 739.04 477.32"/><polygon class="cls-2" points="761.14 477.32 612.9 625.57 612.9 635.94 769.61 479.23 769.61 477.32 761.14 477.32"/><polygon class="cls-2" points="668.9 690.47 769.61 589.76 769.61 579.38 658.52 690.47 668.9 690.47"/><polygon class="cls-2" points="612.9 647.67 612.9 658.05 769.61 501.33 769.61 490.96 612.9 647.67"/><polygon class="cls-2" points="646.79 690.47 769.61 567.65 769.61 557.27 636.42 690.47 646.79 690.47"/><polygon class="cls-2" points="691.01 690.47 769.61 611.87 769.61 601.49 680.63 690.47 691.01 690.47"/><polygon class="cls-2" points="757.32 690.47 769.61 678.18 769.61 667.81 746.95 690.47 757.32 690.47"/><polygon class="cls-2" points="735.22 690.47 769.61 656.08 769.61 645.7 724.84 690.47 735.22 690.47"/><polygon class="cls-2" points="713.11 690.47 769.61 633.97 769.61 623.6 702.74 690.47 713.11 690.47"/><polygon class="cls-2" points="612.9 477.32 612.9 481.2 616.77 477.32 612.9 477.32"/><polygon class="cls-2" points="650.61 477.32 612.9 515.03 612.9 525.41 660.99 477.32 650.61 477.32"/><polygon class="cls-2" points="672.72 477.32 612.9 537.14 612.9 547.51 683.09 477.32 672.72 477.32"/><polygon class="cls-2" points="716.93 477.32 612.9 581.35 612.9 591.73 727.3 477.32 716.93 477.32"/><polygon class="cls-2" points="628.5 477.32 612.9 492.93 612.9 503.3 638.88 477.32 628.5 477.32"/><polygon class="cls-2" points="694.82 477.32 612.9 559.25 612.9 569.62 705.2 477.32 694.82 477.32"/><polygon class="cls-2" points="850.88 454.15 719 586.02 729.38 586.02 850.88 464.53 850.88 454.15"/><polygon class="cls-2" points="850.88 432.05 717.59 565.33 717.59 575.71 850.88 442.42 850.88 432.05"/><polygon class="cls-2" points="850.88 372.87 843.73 372.87 717.59 499.01 717.59 509.39 850.88 376.1 850.88 372.87"/><polygon class="cls-2" points="850.88 387.83 717.59 521.12 717.59 531.5 850.88 398.21 850.88 387.83"/><polygon class="cls-2" points="850.88 498.37 763.22 586.02 773.59 586.02 850.88 508.74 850.88 498.37"/><polygon class="cls-2" points="850.88 409.94 717.59 543.23 717.59 553.6 850.88 420.31 850.88 409.94"/><polygon class="cls-2" points="850.88 476.26 741.11 586.02 751.49 586.02 850.88 486.63 850.88 476.26"/><polygon class="cls-2" points="850.88 520.47 785.33 586.02 795.7 586.02 850.88 530.85 850.88 520.47"/><polygon class="cls-2" points="850.88 564.69 829.54 586.02 839.91 586.02 850.88 575.06 850.88 564.69"/><polygon class="cls-2" points="850.88 542.58 807.43 586.02 817.81 586.02 850.88 552.95 850.88 542.58"/><polygon class="cls-2" points="717.59 372.87 717.59 376.75 721.47 372.87 717.59 372.87"/><polygon class="cls-2" points="755.31 372.87 717.59 410.59 717.59 420.96 765.68 372.87 755.31 372.87"/><polygon class="cls-2" points="777.41 372.87 717.59 432.69 717.59 443.07 787.79 372.87 777.41 372.87"/><polygon class="cls-2" points="821.63 372.87 717.59 476.9 717.59 487.28 832 372.87 821.63 372.87"/><polygon class="cls-2" points="733.2 372.87 717.59 388.48 717.59 398.86 743.58 372.87 733.2 372.87"/><polygon class="cls-2" points="799.52 372.87 717.59 454.8 717.59 465.17 809.89 372.87 799.52 372.87"/><polygon class="cls-2" points="983.53 454.15 851.65 586.02 862.03 586.02 983.53 464.53 983.53 454.15"/><polygon class="cls-2" points="983.53 432.05 850.24 565.33 850.24 575.71 983.53 442.42 983.53 432.05"/><polygon class="cls-2" points="983.53 372.87 976.38 372.87 850.24 499.01 850.24 509.39 983.53 376.1 983.53 372.87"/><polygon class="cls-2" points="983.53 387.83 850.24 521.12 850.24 531.5 983.53 398.21 983.53 387.83"/><polygon class="cls-2" points="983.53 498.37 895.87 586.02 906.24 586.02 983.53 508.74 983.53 498.37"/><polygon class="cls-2" points="983.53 409.94 850.24 543.23 850.24 553.6 983.53 420.31 983.53 409.94"/><polygon class="cls-2" points="983.53 476.26 873.76 586.02 884.14 586.02 983.53 486.63 983.53 476.26"/><polygon class="cls-2" points="983.53 520.47 917.98 586.02 928.35 586.02 983.53 530.85 983.53 520.47"/><polygon class="cls-2" points="983.53 564.69 962.19 586.02 972.56 586.02 983.53 575.06 983.53 564.69"/><polygon class="cls-2" points="983.53 542.58 940.08 586.02 950.46 586.02 983.53 552.95 983.53 542.58"/><polygon class="cls-2" points="850.24 372.87 850.24 376.75 854.12 372.87 850.24 372.87"/><polygon class="cls-2" points="887.96 372.87 850.24 410.59 850.24 420.96 898.33 372.87 887.96 372.87"/><polygon class="cls-2" points="910.06 372.87 850.24 432.69 850.24 443.07 920.44 372.87 910.06 372.87"/><polygon class="cls-2" points="954.27 372.87 850.24 476.9 850.24 487.28 964.65 372.87 954.27 372.87"/><polygon class="cls-2" points="865.85 372.87 850.24 388.48 850.24 398.86 876.23 372.87 865.85 372.87"/><polygon class="cls-2" points="932.17 372.87 850.24 454.8 850.24 465.17 942.54 372.87 932.17 372.87"/><polygon class="cls-2" points="1016.25 310.93 884.37 442.81 894.75 442.81 1016.25 321.31 1016.25 310.93"/><polygon class="cls-2" points="1016.25 288.83 882.96 422.12 882.96 432.49 1016.25 299.2 1016.25 288.83"/><polygon class="cls-2" points="997.98 240.77 882.96 355.79 882.96 366.17 1008.36 240.77 997.98 240.77"/><polygon class="cls-2" points="1016.25 244.62 882.96 377.9 882.96 388.28 1016.25 254.99 1016.25 244.62"/><polygon class="cls-2" points="1016.25 355.15 928.59 442.81 938.96 442.81 1016.25 365.52 1016.25 355.15"/><polygon class="cls-2" points="1016.25 266.72 882.96 400.01 882.96 410.38 1016.25 277.1 1016.25 266.72"/><polygon class="cls-2" points="1016.25 333.04 906.48 442.81 916.85 442.81 1016.25 343.42 1016.25 333.04"/><polygon class="cls-2" points="1016.25 377.26 950.69 442.81 961.07 442.81 1016.25 387.63 1016.25 377.26"/><polygon class="cls-2" points="1016.25 421.47 994.91 442.81 1005.28 442.81 1016.25 431.84 1016.25 421.47"/><polygon class="cls-2" points="1016.25 399.36 972.8 442.81 983.17 442.81 1016.25 409.74 1016.25 399.36"/><polygon class="cls-2" points="909.56 240.77 882.96 267.37 882.96 277.74 919.93 240.77 909.56 240.77"/><polygon class="cls-2" points="931.67 240.77 882.96 289.48 882.96 299.85 942.04 240.77 931.67 240.77"/><polygon class="cls-2" points="975.88 240.77 882.96 333.69 882.96 344.06 986.25 240.77 975.88 240.77"/><polygon class="cls-2" points="887.45 240.77 882.96 245.26 882.96 255.64 897.83 240.77 887.45 240.77"/><polygon class="cls-2" points="953.77 240.77 882.96 311.58 882.96 321.95 964.15 240.77 953.77 240.77"/><polygon class="cls-2" points="1397.88 596.03 1408.48 585.43 1398.56 585.43 1397.88 586.12 1397.88 596.03"/><polygon class="cls-2" points="1457.88 526.12 1457.88 536.03 1563.88 430.03 1563.88 420.12 1457.88 526.12"/><polygon class="cls-2" points="1397.88 617.17 1429.61 585.43 1419.69 585.43 1397.88 607.25 1397.88 617.17"/><polygon class="cls-2" points="1457.88 547.25 1457.88 557.17 1563.88 451.17 1563.88 441.25 1457.88 547.25"/><polygon class="cls-2" points="1457.88 504.98 1457.88 514.9 1563.88 408.9 1563.88 398.98 1457.88 504.98"/><polygon class="cls-2" points="1457.88 441.57 1457.88 451.49 1563.88 345.49 1563.88 335.57 1457.88 441.57"/><polygon class="cls-2" points="1397.88 638.3 1450.75 585.43 1440.83 585.43 1397.88 628.38 1397.88 638.3"/><polygon class="cls-2" points="1457.88 568.38 1457.88 578.3 1563.88 472.3 1563.88 462.38 1457.88 568.38"/><polygon class="cls-2" points="1457.88 462.71 1457.88 472.63 1563.88 366.63 1563.88 356.71 1457.88 462.71"/><polygon class="cls-2" points="1457.88 483.85 1457.88 493.76 1563.88 387.76 1563.88 377.85 1457.88 483.85"/><polygon class="cls-2" points="1427.29 693.43 1563.88 556.85 1563.88 546.93 1417.37 693.43 1427.29 693.43"/><polygon class="cls-2" points="1469.56 693.43 1563.88 599.12 1563.88 589.2 1459.64 693.43 1469.56 693.43"/><polygon class="cls-2" points="1511.83 693.43 1563.88 641.38 1563.88 631.47 1501.91 693.43 1511.83 693.43"/><polygon class="cls-2" points="1448.42 693.43 1563.88 577.98 1563.88 568.06 1438.51 693.43 1448.42 693.43"/><polygon class="cls-2" points="1397.88 670.66 1397.88 680.58 1563.88 514.58 1563.88 504.66 1397.88 670.66"/><polygon class="cls-2" points="1532.97 693.43 1563.88 662.52 1563.88 652.61 1523.05 693.43 1532.97 693.43"/><polygon class="cls-2" points="1457.88 420.44 1457.88 430.36 1563.88 324.36 1563.88 314.44 1457.88 420.44"/><polygon class="cls-2" points="1397.88 691.79 1397.88 693.43 1406.15 693.43 1563.88 535.71 1563.88 525.79 1397.88 691.79"/><polygon class="cls-2" points="1397.88 649.52 1397.88 659.44 1563.88 493.44 1563.88 483.52 1397.88 649.52"/><polygon class="cls-2" points="1546.94 289.1 1457.88 378.17 1457.88 388.09 1556.86 289.1 1546.94 289.1"/><polygon class="cls-2" points="1525.81 289.1 1457.88 357.03 1457.88 366.95 1535.73 289.1 1525.81 289.1"/><polygon class="cls-2" points="1457.88 399.3 1457.88 409.22 1563.88 303.22 1563.88 293.3 1457.88 399.3"/><polygon class="cls-2" points="1504.67 289.1 1457.88 335.9 1457.88 345.82 1514.59 289.1 1504.67 289.1"/><polygon class="cls-2" points="1462.4 289.1 1457.88 293.63 1457.88 303.54 1472.32 289.1 1462.4 289.1"/><polygon class="cls-2" points="1483.54 289.1 1457.88 314.76 1457.88 324.68 1493.46 289.1 1483.54 289.1"/><polygon class="cls-2" points="1490.69 693.43 1563.88 620.25 1563.88 610.33 1480.78 693.43 1490.69 693.43"/><polygon class="cls-2" points="1554.1 693.43 1563.88 683.66 1563.88 673.74 1544.18 693.43 1554.1 693.43"/><rect class="cls-5" x="904.18" y="78.65" width="56.34" height="3.5"/><rect class="cls-5" x="426.9" y="109.65" width="136.64" height="3.5"/><rect class="cls-5" x="881.65" y="78.65" width="11.27" height="3.5"/><rect class="cls-5" x="813.28" y="61.63" width="105.92" height="3.5"/><rect class="cls-5" x="790.75" y="61.63" width="11.27" height="3.5"/><rect class="cls-5" x="1717.29" y="93.42" width="12.15" height="3.5"/><rect class="cls-5" x="1612.34" y="93.42" width="92.37" height="3.5"/><rect class="cls-5" x="1674.39" y="75.74" width="93.23" height="3.5"/><path class="cls-3" d="M1166.78,232.13h-155v-1.75A29.87,29.87,0,0,1,1059,206.05a34.16,34.16,0,0,1,57.83,3.87,29.86,29.86,0,0,1,51.66,20.41v1.75Zm-151.43-3.5H1165a26.36,26.36,0,0,0-47.13-14.46l-1.81,2.32-1.17-2.7a30.66,30.66,0,0,0-53.94-4.28l-1.06,1.65-1.53-1.25a26.36,26.36,0,0,0-43,18.72Z" transform="translate(-74.8 -165)"/><path class="cls-3" d="M1481.12,350.45l-1.5-2.5-.19-.33c-.67-1.19-2.45-4.37-7.74-5.88l1-3.36a15.93,15.93,0,0,1,8.46,5.41,16.22,16.22,0,0,1,8.49-5.41l1,3.36c-4.9,1.4-6.82,4.37-6.9,4.5Z" transform="translate(-74.8 -165)"/><path class="cls-3" d="M1514.73,368.51l-1.5-2.5-.19-.32c-.67-1.2-2.45-4.38-7.74-5.88l1-3.37a15.9,15.9,0,0,1,8.45,5.42,16.28,16.28,0,0,1,8.5-5.42l1,3.37c-4.9,1.39-6.82,4.36-6.9,4.49Z" transform="translate(-74.8 -165)"/><path class="cls-3" d="M882.93,353l-1.5-2.47c0-.07-.1-.17-.17-.29a10.26,10.26,0,0,0-6.74-5.06l1-3.37a14.37,14.37,0,0,1,7.44,4.64,14.8,14.8,0,0,1,7.48-4.64l1,3.37a10.65,10.65,0,0,0-6,3.85Z" transform="translate(-74.8 -165)"/><path class="cls-3" d="M917.52,336.46,916,334l-.17-.29a10.29,10.29,0,0,0-6.75-5.07l.95-3.37a14.33,14.33,0,0,1,7.44,4.64,14.75,14.75,0,0,1,7.48-4.64l.95,3.37a10.58,10.58,0,0,0-6,3.86Z" transform="translate(-74.8 -165)"/><path class="cls-3" d="M291,371.37H197.55v-1.75a21,21,0,0,1,20.95-20.95,20.76,20.76,0,0,1,16.95,8.65A29.16,29.16,0,0,1,291,369.62Zm-89.91-3.5h86.35a25.65,25.65,0,0,0-50-6L236.11,366l-1.91-4a17.44,17.44,0,0,0-33.07,5.82Z" transform="translate(-74.8 -165)"/><path class="cls-3" d="M1730.38,240.23H1594.1v-1.75a26.42,26.42,0,0,1,41.64-21.66,30.21,30.21,0,0,1,50.87,3.34,26.42,26.42,0,0,1,45.52,18.28v1.75Zm-132.72-3.5h130.91a22.92,22.92,0,0,0-41-12.35l-1.81,2.32-1.18-2.7a26.71,26.71,0,0,0-47-3.73l-1.06,1.65-1.52-1.24a22.93,22.93,0,0,0-37.38,16Z" transform="translate(-74.8 -165)"/><path class="cls-3" d="M520.68,240.23H384.4v-1.75A26.42,26.42,0,0,1,426,216.82a30.21,30.21,0,0,1,50.87,3.34,26.42,26.42,0,0,1,45.52,18.28v1.75ZM388,236.73H518.87a22.92,22.92,0,0,0-41-12.35l-1.81,2.32L474.9,224a26.71,26.71,0,0,0-47-3.73l-1.06,1.65-1.52-1.24a22.93,22.93,0,0,0-37.38,16Z" transform="translate(-74.8 -165)"/><path class="cls-3" d="M842.76,291.91H704.62v-3.5H841a24.43,24.43,0,0,0-43.67-13.28l-1.81,2.33-1.18-2.7a28.44,28.44,0,0,0-26.08-17.09,28.11,28.11,0,0,0-10.49,2l-1.38.54-.77-1.26A36.65,36.65,0,0,0,724,241.11a37.16,37.16,0,0,0-35.33,26.22l-.52,1.71-1.69-.56a22.82,22.82,0,0,0-21.49,4l-1.1.91-1.11-.91a22.89,22.89,0,0,0-14.42-5.14v-3.5a26.4,26.4,0,0,1,15.53,5.08,26.34,26.34,0,0,1,15.52-5.08,26.07,26.07,0,0,1,6.47.81A40.69,40.69,0,0,1,724,237.61a40.13,40.13,0,0,1,33.84,18.3,32,32,0,0,1,38.5,15,27.93,27.93,0,0,1,48.21,19.22v1.75Z" transform="translate(-74.8 -165)"/><path class="cls-3" d="M1420.77,362.36H1246.24v-3.5h171.58a30.75,30.75,0,0,0,.26-3.93,29.79,29.79,0,0,0-56-14.22l-1.15,2.1-1.65-1.72a25.77,25.77,0,0,0-30.49-5l-1.52.79-.82-1.5A33.39,33.39,0,0,0,1297.2,318a33.82,33.82,0,0,0-7.94,1l-1.62.4-.48-1.6a38.6,38.6,0,0,0-75.3,6.13l-.22,1.76-1.76-.25a29.48,29.48,0,0,0-14.33,1.52l-1.2-3.28a32.82,32.82,0,0,1,14.29-1.9,42.1,42.1,0,0,1,81.38-6.53,36.83,36.83,0,0,1,38.69,17,29.29,29.29,0,0,1,12-2.58,29,29,0,0,1,19.45,7.4A33.28,33.28,0,0,1,1421,360.93Z" transform="translate(-74.8 -165)"/><path class="cls-3" d="M1358.8,314.09l-2.09-2.81a31,31,0,1,0-45.27-9.41l-3,1.75a34.45,34.45,0,1,1,50.39,10.47Z" transform="translate(-74.8 -165)"/></g><g id="color"><polygon class="cls-6" points="906.33 188.96 906.33 529.53 899.54 529.53 899.54 537.85 906.33 537.85 906.33 693.18 1145.9 693.18 1145.9 188.96 906.33 188.96"/><rect class="cls-7" x="31.53" y="667.62" width="11.99" height="26.32"/><path class="cls-6" d="M1764.54,845.08h90.51V525.81h3.1l4-4.54h-7.07s7,0,7,0l-80.66-36.89s0-142.09,0-142.09h3.74v-9.76H1642v-.06l-.12.06h-.57v.33l-83.73,46.77,2.55,3.66,4,1.13v39.82h-9.23v11.11H1564v38.4h-9.24v11.11h9.24v37.83h-9.24v11.12h9.24v37.83h-9.24v11.11h9.24v38.68h-9.8v11.11h9.8v37.83h-9.8v11.12h9.8V719.3h-9.8v11.11h9.8v37.83h-9.81v11.11h9.81v37.83h-9.81V828.3h9.81v16.78h0V858.8h152v-4.26h.06v4.26h139.25V845.08h-90.75Z" transform="translate(-74.8 -165)"/><polygon class="cls-8" points="1489.41 220.34 1489.41 225.54 1567.91 183.97 1706.7 183.97 1706.7 177.97 1568.14 177.97 1489.41 220.34"/><polygon class="cls-8" points="1644.6 362.55 1566.83 326.85 1566.33 332.57 1641.4 366.88 1780.19 367.11 1780.19 362.71 1644.6 362.55"/><polygon class="cls-3" points="1787.46 356.26 1783.49 360.8 1644.83 360.8 1567.05 325.1 1566.97 319.83 1706.7 319.36 1787.46 356.26"/><polygon class="cls-8" points="1540.81 678.4 1641.44 678.4 1641.44 692.74 1523.34 692.74 1540.81 678.4"/><rect class="cls-3" x="1508.22" y="231.78" width="45.07" height="26.06"/><polygon class="cls-7" points="1508.22 257.84 1553.32 257.84 1553.32 270.32 1493.07 270.32 1508.22 257.84"/><rect class="cls-3" x="1508.22" y="281" width="45.07" height="26.06"/><polygon class="cls-7" points="1508.22 307.07 1553.32 307.07 1553.32 319.55 1493.07 319.55 1508.22 307.07"/><rect class="cls-3" x="1508.22" y="330.23" width="45.07" height="26.06"/><polygon class="cls-7" points="1508.22 356.3 1553.32 356.3 1553.32 368.77 1493.07 368.77 1508.22 356.3"/><rect class="cls-3" x="1508.22" y="379.46" width="45.07" height="26.06"/><polygon class="cls-7" points="1508.22 405.52 1553.32 405.52 1553.32 418 1493.07 418 1508.22 405.52"/><rect class="cls-3" x="1508.22" y="428.69" width="45.07" height="26.06"/><polygon class="cls-7" points="1508.22 454.75 1553.32 454.75 1553.32 467.23 1493.07 467.23 1508.22 454.75"/><rect class="cls-3" x="1508.22" y="477.91" width="45.07" height="26.06"/><polygon class="cls-7" points="1508.22 503.98 1553.32 503.98 1553.32 516.46 1493.07 516.46 1508.22 503.98"/><rect class="cls-3" x="1508.22" y="527.14" width="45.07" height="26.06"/><polygon class="cls-7" points="1508.22 553.21 1553.32 553.21 1553.32 565.68 1493.07 565.68 1508.22 553.21"/><rect class="cls-3" x="1508.22" y="576.37" width="45.07" height="26.06"/><polygon class="cls-7" points="1508.22 602.43 1553.32 602.43 1553.32 614.91 1493.07 614.91 1508.22 602.43"/><rect class="cls-3" x="1508.22" y="625.59" width="45.07" height="26.06"/><polygon class="cls-7" points="1508.22 651.66 1553.32 651.66 1553.32 664.14 1493.07 664.14 1508.22 651.66"/><rect class="cls-3" x="1589.12" y="231.67" width="97.72" height="26.17"/><rect class="cls-3" x="1589.12" y="280.95" width="97.72" height="26.17"/><rect class="cls-3" x="1588.4" y="380.07" width="176.7" height="26.25"/><rect class="cls-7" x="1588.4" y="380.07" width="52.98" height="25.44"/><rect class="cls-3" x="1588.4" y="429.25" width="176.7" height="26.25"/><rect class="cls-7" x="1588.4" y="429.25" width="52.98" height="25.44"/><rect class="cls-3" x="1588.4" y="478.43" width="176.7" height="26.25"/><rect class="cls-7" x="1588.4" y="478.43" width="52.98" height="25.44"/><rect class="cls-3" x="1588.4" y="525.87" width="176.7" height="26.25"/><rect class="cls-7" x="1588.4" y="525.87" width="52.98" height="25.44"/><rect class="cls-3" x="1588.4" y="574.17" width="176.7" height="26.25"/><rect class="cls-7" x="1588.4" y="574.17" width="52.98" height="25.44"/><rect class="cls-3" x="1588.4" y="622.48" width="176.7" height="26.25"/><rect class="cls-7" x="1588.4" y="622.48" width="52.98" height="25.44"/><rect class="cls-8" x="1507.65" y="231.54" width="5.1" height="26.31"/><rect class="cls-8" x="1589.12" y="232.65" width="97.42" height="3.73"/><rect class="cls-8" x="1681.74" y="231.54" width="5.1" height="26.31"/><rect class="cls-8" x="1589.12" y="282" width="97.42" height="3.73"/><rect class="cls-8" x="1681.74" y="280.88" width="5.1" height="26.31"/><rect class="cls-8" x="1588.4" y="380.72" width="176.4" height="3.73"/><rect class="cls-8" x="1760.01" y="379.61" width="5.1" height="26.31"/><rect class="cls-8" x="1588.4" y="430.61" width="176.4" height="3.73"/><rect class="cls-8" x="1760.01" y="429.49" width="5.1" height="26.31"/><rect class="cls-8" x="1588.4" y="477.87" width="176.4" height="3.73"/><rect class="cls-8" x="1760.01" y="476.75" width="5.1" height="26.31"/><rect class="cls-8" x="1588.4" y="526.81" width="176.4" height="3.73"/><rect class="cls-8" x="1760.01" y="525.69" width="5.1" height="26.31"/><rect class="cls-8" x="1588.4" y="575.04" width="176.4" height="3.73"/><rect class="cls-8" x="1760.01" y="573.93" width="5.1" height="26.31"/><rect class="cls-8" x="1588.4" y="622.29" width="176.4" height="3.73"/><rect class="cls-8" x="1760.01" y="621.17" width="5.1" height="26.31"/><rect class="cls-8" x="1589.12" y="379.61" width="5.1" height="26.31"/><rect class="cls-8" x="1589.12" y="429.49" width="5.1" height="26.31"/><rect class="cls-8" x="1589.12" y="476.75" width="5.1" height="26.31"/><rect class="cls-8" x="1589.12" y="525.69" width="5.1" height="26.31"/><rect class="cls-8" x="1589.12" y="573.93" width="5.1" height="26.31"/><rect class="cls-8" x="1589.12" y="621.17" width="5.1" height="26.31"/><rect class="cls-8" x="1507.65" y="280.88" width="5.1" height="26.31"/><rect class="cls-8" x="1507.65" y="330.25" width="5.1" height="26.31"/><rect class="cls-8" x="1507.65" y="379.61" width="5.1" height="26.31"/><rect class="cls-8" x="1507.65" y="428.97" width="5.1" height="26.31"/><rect class="cls-8" x="1507.65" y="478.33" width="5.1" height="26.31"/><rect class="cls-8" x="1507.65" y="527.7" width="5.1" height="26.31"/><rect class="cls-8" x="1507.65" y="577.06" width="5.1" height="26.31"/><rect class="cls-8" x="1507.65" y="625.55" width="5.1" height="26.31"/><rect class="cls-6" x="743.66" y="386.45" width="197.73" height="113.31"/><rect class="cls-6" x="644.71" y="495.81" width="260.13" height="195.34"/><rect class="cls-6" x="636.95" y="492.32" width="267.21" height="9.05"/><rect class="cls-6" x="1134.12" y="386.45" width="177.44" height="109.45"/><rect class="cls-6" x="1217.59" y="656.37" width="260.13" height="200.48" transform="translate(2620.5 1348.21) rotate(180)"/><rect class="cls-6" x="1214.23" y="841.28" width="278.43" height="15.56" transform="translate(2632.1 1533.13) rotate(180)"/><rect class="cls-6" x="1214.39" y="745.77" width="285.51" height="23.47" transform="translate(2639.48 1349.99) rotate(180)"/><rect class="cls-6" x="895.1" y="177.59" width="257.7" height="10.33"/><rect class="cls-7" x="767.77" y="413.98" width="26.96" height="21.37"/><rect class="cls-7" x="819.14" y="413.98" width="26.96" height="21.37"/><rect class="cls-7" x="870.51" y="413.98" width="26.96" height="21.37"/><rect class="cls-7" x="767.77" y="453.86" width="26.96" height="21.37"/><rect class="cls-7" x="819.14" y="453.86" width="26.96" height="21.37"/><rect class="cls-7" x="870.51" y="453.86" width="26.96" height="21.37"/><polygon class="cls-8" points="767.77 434.04 767.77 416.36 791.99 416.36 791.99 434.04 789.21 434.04 789.21 419.3 770.55 419.3 770.55 434.04 767.77 434.04"/><polygon class="cls-8" points="819.87 434.04 819.87 416.36 843.73 416.36 843.73 434.04 841 434.04 841 419.3 822.61 419.3 822.61 434.04 819.87 434.04"/><polygon class="cls-8" points="871.65 434.24 871.65 416.55 894.51 416.55 894.51 434.24 891.89 434.24 891.89 419.5 874.28 419.5 874.28 434.24 871.65 434.24"/><polygon class="cls-8" points="768.54 474.37 768.54 456.69 791.99 456.69 791.99 474.37 789.3 474.37 789.3 459.63 771.24 459.63 771.24 474.37 768.54 474.37"/><polygon class="cls-8" points="819.87 474.37 819.87 456.69 843.47 456.69 843.47 474.37 840.76 474.37 840.76 459.63 822.58 459.63 822.58 474.37 819.87 474.37"/><polygon class="cls-8" points="871.04 474.37 871.04 456.69 894.79 456.69 894.79 474.37 892.07 474.37 892.07 459.63 873.77 459.63 873.77 474.37 871.04 474.37"/><rect class="cls-7" x="1158.71" y="453.86" width="26.97" height="21.37"/><polygon class="cls-8" points="1158.71 473.98 1158.71 456.3 1183.21 456.3 1183.21 473.98 1180.4 473.98 1180.4 459.24 1161.52 459.24 1161.52 473.98 1158.71 473.98"/><rect class="cls-7" x="1207.19" y="453.86" width="26.97" height="21.37"/><polygon class="cls-8" points="1208.33 474.37 1208.33 456.69 1231.19 456.69 1231.19 474.37 1228.57 474.37 1228.57 459.63 1210.96 459.63 1210.96 474.37 1208.33 474.37"/><rect class="cls-7" x="1259.71" y="453.86" width="26.97" height="21.37"/><polygon class="cls-8" points="1260.53 474.37 1260.53 456.69 1283.38 456.69 1283.38 474.37 1280.76 474.37 1280.76 459.63 1263.15 459.63 1263.15 474.37 1260.53 474.37"/><rect class="cls-7" x="1259.71" y="414.32" width="26.97" height="21.37"/><polygon class="cls-8" points="1260.53 433.84 1260.53 416.16 1283.38 416.16 1283.38 433.84 1280.76 433.84 1280.76 419.11 1263.15 419.11 1263.15 433.84 1260.53 433.84"/><rect class="cls-7" x="1206.28" y="414.32" width="26.97" height="21.37"/><polygon class="cls-8" points="1208.33 433.84 1208.33 416.16 1231.19 416.16 1231.19 433.84 1228.57 433.84 1228.57 419.11 1210.96 419.11 1210.96 433.84 1208.33 433.84"/><rect class="cls-7" x="1158.71" y="414.32" width="26.97" height="21.37"/><polygon class="cls-8" points="1159.62 433.84 1159.62 416.16 1182.47 416.16 1182.47 433.84 1179.85 433.84 1179.85 419.11 1162.24 419.11 1162.24 433.84 1159.62 433.84"/><rect class="cls-3" x="668.72" y="516.98" width="22.78" height="21.61"/><polygon class="cls-8" points="671.1 538.57 671.1 519.43 690.57 519.43 690.57 538.57 688.5 538.57 688.5 521.8 673.13 521.8 673.13 538.57 671.1 538.57"/><rect class="cls-3" x="717.59" y="516.98" width="22.78" height="21.61"/><rect class="cls-3" x="766.01" y="516.98" width="22.78" height="21.61"/><rect class="cls-3" x="813.62" y="516.98" width="22.78" height="21.61"/><rect class="cls-3" x="861.63" y="516.98" width="22.78" height="21.61"/><rect class="cls-3" x="1166" y="516.98" width="22.78" height="21.61"/><rect class="cls-3" x="1214.02" y="516.98" width="22.78" height="21.61"/><rect class="cls-3" x="1263.07" y="516.98" width="22.78" height="21.61"/><rect class="cls-3" x="1311.33" y="516.98" width="22.78" height="21.61"/><rect class="cls-3" x="1359.41" y="516.98" width="22.78" height="21.61"/><polygon class="cls-8" points="1362.05 538.1 1362.05 519.35 1382.19 519.35 1382.19 538.1 1380.05 538.1 1380.05 521.67 1364.14 521.67 1364.14 538.1 1362.05 538.1"/><polygon class="cls-8" points="1313.62 538.1 1313.62 519.35 1333.77 519.35 1333.77 538.1 1331.63 538.1 1331.63 521.67 1315.72 521.67 1315.72 538.1 1313.62 538.1"/><polygon class="cls-8" points="1265.21 538.1 1265.21 519.35 1285.36 519.35 1285.36 538.1 1283.22 538.1 1283.22 521.67 1267.31 521.67 1267.31 538.1 1265.21 538.1"/><polygon class="cls-8" points="1216.8 538.1 1216.8 519.35 1236.94 519.35 1236.94 538.1 1234.81 538.1 1234.81 521.67 1218.89 521.67 1218.89 538.1 1216.8 538.1"/><polygon class="cls-8" points="1168.38 538.1 1168.38 519.35 1188.53 519.35 1188.53 538.1 1186.39 538.1 1186.39 521.67 1170.48 521.67 1170.48 538.1 1168.38 538.1"/><rect class="cls-3" x="913.73" y="359.01" width="220.75" height="33.85"/><rect class="cls-3" x="913.73" y="403.58" width="216.67" height="33.85"/><rect class="cls-3" x="915.09" y="448.14" width="220.04" height="33.85"/><rect class="cls-3" x="915.09" y="494.69" width="215.31" height="33.85"/><rect class="cls-3" x="914.48" y="538.66" width="215.91" height="33.85"/><rect class="cls-8" x="916.45" y="402.21" width="4.82" height="35.22"/><rect class="cls-8" x="916.45" y="447.59" width="4.82" height="34.73"/><rect class="cls-8" x="915.09" y="492.98" width="4.82" height="35.55"/><rect class="cls-8" x="915.81" y="538.66" width="4.82" height="34.36"/><rect class="cls-8" x="1130.31" y="491.85" width="4.82" height="36.37"/><rect class="cls-8" x="1130.31" y="403.03" width="4.82" height="35.14"/><rect class="cls-8" x="1130.31" y="448.24" width="4.82" height="33.79"/><rect class="cls-8" x="1130.31" y="538.17" width="4.82" height="34.86"/><rect class="cls-3" x="919.17" y="222.37" width="218.03" height="33.85"/><rect class="cls-3" x="916.45" y="267.94" width="220.75" height="33.85"/><rect class="cls-3" x="917.81" y="313.47" width="216.67" height="33.85"/><rect class="cls-8" x="916.45" y="212.66" width="4.82" height="98.15"/><rect class="cls-8" x="1128.95" y="212.66" width="4.82" height="98.15"/><rect class="cls-6" x="892.64" y="211.91" width="260.72" height="8.5"/><rect class="cls-6" x="892.64" y="256.86" width="260.72" height="8.5"/><rect class="cls-6" x="892.64" y="302.41" width="260.72" height="8.5"/><rect class="cls-6" x="892.64" y="348.01" width="260.72" height="8.5"/><rect class="cls-8" x="907.29" y="188.96" width="239.18" height="6.36"/><rect class="cls-3" x="644.91" y="606.32" width="258.37" height="69.96"/><rect class="cls-3" x="1143.16" y="606.32" width="258.37" height="69.96"/><rect class="cls-6" x="633.03" y="676.28" width="42.04" height="17.21"/><rect class="cls-6" x="619.81" y="581.31" width="42.04" height="23.01"/><rect class="cls-6" x="1398.08" y="492.82" width="13.91" height="10.03"/><rect class="cls-7" x="989.26" y="604.32" width="76.5" height="71.96"/><rect class="cls-8" x="983.2" y="604.32" width="35.72" height="4.37"/><rect class="cls-8" x="991.36" y="604.32" width="5.2" height="71.96"/><rect class="cls-8" x="1025.77" y="606.32" width="34.09" height="2.37"/><rect class="cls-8" x="1059.08" y="605.5" width="4.87" height="70.78"/><polygon class="cls-7" points="904.52 501.38 782.4 501.38 792.01 493.59 904.52 493.59 904.52 501.38"/><polygon class="cls-7" points="1143.24 501.38 1265.36 501.38 1255.75 493.59 1143.24 493.59 1143.24 501.38"/><polygon class="cls-7" points="767.82 580.75 904.57 580.75 904.57 604.23 739.92 604.23 767.82 580.75"/><polygon class="cls-7" points="1280.76 580.75 1144 580.75 1144 604.23 1308.66 604.23 1280.76 580.75"/><rect class="cls-8" x="954.23" y="606.86" width="146.65" height="4.71"/><polygon class="cls-6" points="809.82 603.53 738.14 675.21 747.89 675.21 819.57 603.53 809.82 603.53"/><polygon class="cls-6" points="892.91 603.53 821.24 675.21 830.99 675.21 902.66 603.53 892.91 603.53"/><polygon class="cls-6" points="830.59 603.53 758.92 675.21 768.66 675.21 840.34 603.53 830.59 603.53"/><polygon class="cls-6" points="789.05 603.53 717.37 675.21 727.12 675.21 798.8 603.53 789.05 603.53"/><polygon class="cls-6" points="904.28 612.94 842.01 675.21 851.76 675.21 904.28 622.69 904.28 612.94"/><polygon class="cls-6" points="974.43 483.21 1010.02 447.63 1000.27 447.63 964.68 483.21 974.43 483.21"/><polygon class="cls-6" points="1057.52 483.21 1093.11 447.63 1083.36 447.63 1047.77 483.21 1057.52 483.21"/><polygon class="cls-6" points="1036.75 483.21 1072.34 447.63 1062.59 447.63 1027 483.21 1036.75 483.21"/><polygon class="cls-6" points="974.43 437.62 1010.02 402.02 1000.27 402.02 964.68 437.62 974.43 437.62"/><polygon class="cls-6" points="1057.52 437.62 1093.11 402.02 1083.36 402.02 1047.77 437.62 1057.52 437.62"/><polygon class="cls-6" points="1036.75 437.62 1072.34 402.02 1062.59 402.02 1027 437.62 1036.75 437.62"/><polygon class="cls-6" points="978.51 392.01 1014.1 356.42 1004.35 356.42 968.76 392.01 978.51 392.01"/><polygon class="cls-6" points="1061.6 392.01 1097.19 356.42 1087.44 356.42 1051.85 392.01 1061.6 392.01"/><polygon class="cls-6" points="1040.83 392.01 1076.42 356.42 1066.67 356.42 1031.08 392.01 1040.83 392.01"/><polygon class="cls-6" points="978.51 347.41 1014.1 311.82 1004.35 311.82 968.76 347.41 978.51 347.41"/><polygon class="cls-6" points="1061.6 347.41 1097.19 311.82 1087.44 311.82 1051.85 347.41 1061.6 347.41"/><polygon class="cls-6" points="1040.83 347.41 1076.42 311.82 1066.67 311.82 1031.08 347.41 1040.83 347.41"/><polygon class="cls-6" points="1533.98 256.85 1551.79 239.04 1551.79 232.27 1551.06 232.27 1526.48 256.85 1533.98 256.85"/><polygon class="cls-6" points="1518.01 256.85 1542.59 232.27 1535.1 232.27 1510.52 256.85 1518.01 256.85"/><polygon class="cls-6" points="1533.98 306.33 1551.79 288.52 1551.79 281.75 1551.06 281.75 1526.48 306.33 1533.98 306.33"/><polygon class="cls-6" points="1518.01 306.33 1542.59 281.75 1535.1 281.75 1510.52 306.33 1518.01 306.33"/><polygon class="cls-6" points="1533.98 355.81 1551.79 338 1551.79 331.23 1551.06 331.23 1526.48 355.81 1533.98 355.81"/><polygon class="cls-6" points="1518.01 355.81 1542.59 331.23 1535.1 331.23 1510.52 355.81 1518.01 355.81"/><polygon class="cls-6" points="1533.98 405.29 1551.79 387.48 1551.79 380.71 1551.06 380.71 1526.48 405.29 1533.98 405.29"/><polygon class="cls-6" points="1518.01 405.29 1542.59 380.71 1535.1 380.71 1510.52 405.29 1518.01 405.29"/><polygon class="cls-6" points="1533.98 454.77 1551.79 436.96 1551.79 430.19 1551.06 430.19 1526.48 454.77 1533.98 454.77"/><polygon class="cls-6" points="1518.01 454.77 1542.59 430.19 1535.1 430.19 1510.52 454.77 1518.01 454.77"/><polygon class="cls-6" points="1533.98 504.25 1551.79 486.44 1551.79 479.67 1551.06 479.67 1526.48 504.25 1533.98 504.25"/><polygon class="cls-6" points="1518.01 504.25 1542.59 479.67 1535.1 479.67 1510.52 504.25 1518.01 504.25"/><polygon class="cls-6" points="1533.98 553.73 1551.79 535.92 1551.79 529.15 1551.06 529.15 1526.48 553.73 1533.98 553.73"/><polygon class="cls-6" points="1518.01 553.73 1542.59 529.15 1535.1 529.15 1510.52 553.73 1518.01 553.73"/><polygon class="cls-6" points="1533.98 603.21 1551.79 585.4 1551.79 578.63 1551.06 578.63 1526.48 603.21 1533.98 603.21"/><polygon class="cls-6" points="1518.01 603.21 1542.59 578.63 1535.1 578.63 1510.52 603.21 1518.01 603.21"/><polygon class="cls-6" points="1533.98 652.7 1551.79 634.89 1551.79 628.12 1551.06 628.12 1526.48 652.7 1533.98 652.7"/><polygon class="cls-6" points="1518.01 652.7 1542.59 628.12 1535.1 628.12 1510.52 652.7 1518.01 652.7"/><polygon class="cls-6" points="978.51 301.81 1014.1 266.22 1004.35 266.22 968.76 301.81 978.51 301.81"/><polygon class="cls-6" points="1061.6 301.81 1097.19 266.22 1087.44 266.22 1051.85 301.81 1061.6 301.81"/><polygon class="cls-6" points="1040.83 301.81 1076.42 266.22 1066.67 266.22 1031.08 301.81 1040.83 301.81"/><polygon class="cls-6" points="978.51 256.21 1014.1 220.62 1004.35 220.62 968.76 256.21 978.51 256.21"/><polygon class="cls-6" points="1061.6 256.21 1097.19 220.62 1087.44 220.62 1051.85 256.21 1061.6 256.21"/><polygon class="cls-6" points="1040.83 256.21 1076.42 220.62 1066.67 220.62 1031.08 256.21 1040.83 256.21"/><polygon class="cls-6" points="974.43 527.54 1010.02 491.95 1000.27 491.95 964.68 527.54 974.43 527.54"/><polygon class="cls-6" points="1057.52 527.54 1093.11 491.95 1083.36 491.95 1047.77 527.54 1057.52 527.54"/><polygon class="cls-6" points="1036.75 527.54 1072.34 491.95 1062.59 491.95 1027 527.54 1036.75 527.54"/><polygon class="cls-6" points="974.43 574.94 1010.02 539.35 1000.27 539.35 964.68 574.94 974.43 574.94"/><polygon class="cls-6" points="1057.52 574.94 1093.11 539.35 1083.36 539.35 1047.77 574.94 1057.52 574.94"/><polygon class="cls-6" points="1036.75 574.94 1072.34 539.35 1062.59 539.35 1027 574.94 1036.75 574.94"/><polygon class="cls-6" points="1304.42 604.53 1232.75 676.21 1242.49 676.21 1314.17 604.53 1304.42 604.53"/><polygon class="cls-6" points="1387.52 604.53 1315.84 676.21 1325.59 676.21 1397.27 604.53 1387.52 604.53"/><polygon class="cls-6" points="1325.2 604.53 1253.52 676.21 1263.27 676.21 1334.94 604.53 1325.2 604.53"/><polygon class="cls-6" points="1283.65 604.53 1211.97 676.21 1221.72 676.21 1293.4 604.53 1283.65 604.53"/><polygon class="cls-6" points="1398.88 613.94 1336.61 676.21 1346.36 676.21 1398.88 623.69 1398.88 613.94"/><rect class="cls-8" x="643.16" y="607.04" width="261.83" height="5.6"/><rect class="cls-6" x="722.17" y="603.67" width="8.87" height="72.77"/><rect class="cls-6" x="817.81" y="603.67" width="8.87" height="72.77"/><rect class="cls-8" x="1398.63" y="607.2" width="4.01" height="69"/><rect class="cls-8" x="1142.78" y="605.59" width="258.5" height="5.98"/><rect class="cls-6" x="1220.62" y="603.67" width="8.87" height="72.77"/><rect class="cls-6" x="1316.77" y="603.67" width="8.87" height="72.77"/><rect class="cls-8" x="914.48" y="359.33" width="222.01" height="4.09"/><rect class="cls-8" x="913.12" y="404.95" width="222.01" height="4.09"/><rect class="cls-8" x="914.48" y="449.95" width="222.01" height="4.09"/><rect class="cls-8" x="914.3" y="493.95" width="216.75" height="4.09"/><rect class="cls-8" x="915.84" y="539.95" width="222.01" height="4.09"/><rect class="cls-8" x="918.56" y="223.73" width="222.01" height="4.09"/><rect class="cls-8" x="915.84" y="268.11" width="222.01" height="4.09"/><rect class="cls-8" x="914.48" y="314.09" width="222.01" height="4.09"/><rect class="cls-6" x="1021.79" y="220.41" width="8.06" height="35.81"/><rect class="cls-6" x="1021.79" y="265.95" width="8.06" height="35.81"/><rect class="cls-6" x="1021.79" y="311.5" width="8.06" height="35.81"/><rect class="cls-6" x="1021.79" y="357.05" width="8.06" height="35.81"/><rect class="cls-6" x="1021.71" y="402.59" width="8.06" height="35.81"/><rect class="cls-6" x="1022.14" y="448.14" width="8.06" height="35.81"/><rect class="cls-6" x="1021.71" y="493.69" width="8.06" height="35.81"/><rect class="cls-6" x="1021.71" y="539.24" width="8.06" height="35.81"/><polygon class="cls-6" points="486.95 140.09 453.1 139.69 453.1 140.09 417.34 140.09 274.31 139.7 274.31 481.57 242.75 481.57 242.75 691.81 383.47 691.81 383.47 694.72 417.34 694.72 417.34 691.75 571.91 691.75 571.91 140.09 486.95 140.09"/><rect class="cls-3" x="293.74" y="179.73" width="19.31" height="35.58"/><rect class="cls-8" x="293.74" y="179.73" width="4.11" height="35.58"/><rect class="cls-8" x="293.74" y="180.78" width="19.13" height="4.17"/><rect class="cls-3" x="334.15" y="179.73" width="19.31" height="35.58"/><rect class="cls-8" x="334.15" y="179.73" width="4.11" height="35.58"/><rect class="cls-8" x="334.15" y="180.78" width="19.13" height="4.17"/><rect class="cls-3" x="374.56" y="179.73" width="19.31" height="35.58"/><rect class="cls-8" x="374.56" y="179.73" width="4.11" height="35.58"/><rect class="cls-8" x="374.56" y="180.78" width="19.13" height="4.17"/><rect class="cls-3" x="293.74" y="232.35" width="19.31" height="35.58"/><rect class="cls-8" x="293.74" y="232.35" width="4.11" height="35.58"/><rect class="cls-8" x="293.74" y="233.39" width="19.13" height="4.17"/><rect class="cls-3" x="334.15" y="232.35" width="19.31" height="35.58"/><rect class="cls-8" x="334.15" y="232.35" width="4.11" height="35.58"/><rect class="cls-8" x="334.15" y="233.39" width="19.13" height="4.17"/><rect class="cls-3" x="374.56" y="232.35" width="19.31" height="35.58"/><rect class="cls-8" x="374.56" y="232.35" width="4.11" height="35.58"/><rect class="cls-8" x="374.56" y="233.39" width="19.13" height="4.17"/><rect class="cls-3" x="293.74" y="284.96" width="19.31" height="35.58"/><rect class="cls-8" x="293.74" y="284.96" width="4.11" height="35.58"/><rect class="cls-8" x="293.74" y="286.01" width="19.13" height="4.17"/><rect class="cls-3" x="334.15" y="284.96" width="19.31" height="35.58"/><rect class="cls-8" x="334.15" y="284.96" width="4.11" height="35.58"/><rect class="cls-8" x="334.15" y="286.01" width="19.13" height="4.17"/><rect class="cls-3" x="374.56" y="284.96" width="19.31" height="35.58"/><rect class="cls-8" x="374.56" y="284.96" width="4.11" height="35.58"/><rect class="cls-8" x="374.56" y="286.01" width="19.13" height="4.17"/><rect class="cls-3" x="293.74" y="337.57" width="19.31" height="35.58"/><rect class="cls-8" x="293.74" y="337.57" width="4.11" height="35.58"/><rect class="cls-8" x="293.74" y="338.62" width="19.13" height="4.17"/><rect class="cls-3" x="334.15" y="337.57" width="19.31" height="35.58"/><rect class="cls-8" x="334.15" y="337.57" width="4.11" height="35.58"/><rect class="cls-8" x="334.15" y="338.62" width="19.13" height="4.17"/><rect class="cls-3" x="374.56" y="337.57" width="19.31" height="35.58"/><rect class="cls-8" x="374.56" y="337.57" width="4.11" height="35.58"/><rect class="cls-8" x="374.56" y="338.62" width="19.13" height="4.17"/><rect class="cls-3" x="293.74" y="390.19" width="19.31" height="35.58"/><rect class="cls-8" x="293.74" y="390.19" width="4.11" height="35.58"/><rect class="cls-8" x="293.74" y="391.23" width="19.13" height="4.17"/><rect class="cls-3" x="334.15" y="390.19" width="19.31" height="35.58"/><rect class="cls-8" x="334.15" y="390.19" width="4.11" height="35.58"/><rect class="cls-8" x="334.15" y="391.23" width="19.13" height="4.17"/><rect class="cls-3" x="374.56" y="390.19" width="19.31" height="35.58"/><rect class="cls-8" x="374.56" y="390.19" width="4.11" height="35.58"/><rect class="cls-8" x="374.56" y="391.23" width="19.13" height="4.17"/><rect class="cls-3" x="293.74" y="443.77" width="19.31" height="36.81"/><rect class="cls-8" x="293.74" y="443.77" width="4.11" height="36.81"/><rect class="cls-8" x="293.74" y="443.85" width="19.13" height="4.31"/><rect class="cls-3" x="334.15" y="443.77" width="19.31" height="36.81"/><rect class="cls-8" x="334.15" y="443.77" width="4.11" height="36.81"/><rect class="cls-8" x="334.15" y="443.85" width="19.13" height="4.31"/><rect class="cls-3" x="374.56" y="443.77" width="19.31" height="36.81"/><rect class="cls-8" x="374.56" y="443.77" width="4.11" height="36.81"/><rect class="cls-8" x="374.56" y="443.85" width="19.13" height="4.31"/><rect class="cls-3" x="467.41" y="179.73" width="90.59" height="33.69"/><rect class="cls-7" x="467.41" y="179.73" width="20.2" height="32.95"/><rect class="cls-8" x="466.37" y="179.73" width="5.81" height="33.69"/><rect class="cls-8" x="467.41" y="180.78" width="90.59" height="5.02"/><rect class="cls-8" x="551.87" y="179.73" width="5.09" height="33.69"/><rect class="cls-3" x="467.41" y="231.97" width="90.59" height="33.69"/><rect class="cls-7" x="467.41" y="232.34" width="17.44" height="32.95"/><rect class="cls-8" x="467.41" y="231.97" width="5.81" height="33.69"/><rect class="cls-8" x="467.41" y="233.02" width="90.59" height="5.02"/><rect class="cls-8" x="551.87" y="231.97" width="5.09" height="33.69"/><rect class="cls-3" x="467.41" y="284.22" width="90.59" height="33.69"/><rect class="cls-7" x="467.41" y="284.58" width="17.44" height="32.95"/><rect class="cls-8" x="467.41" y="284.22" width="5.81" height="33.69"/><rect class="cls-8" x="467.41" y="285.26" width="90.59" height="5.02"/><rect class="cls-8" x="551.87" y="284.22" width="5.09" height="33.69"/><rect class="cls-3" x="467.41" y="338.4" width="90.59" height="30.63"/><rect class="cls-7" x="467.41" y="336.82" width="17.44" height="32.95"/><rect class="cls-8" x="467.41" y="338.4" width="5.17" height="30.63"/><rect class="cls-8" x="467.41" y="339.37" width="90.59" height="4.56"/><rect class="cls-8" x="552.92" y="337.5" width="5.09" height="33.69"/><rect class="cls-3" x="467.41" y="388.7" width="90.59" height="33.69"/><rect class="cls-7" x="467.41" y="389.1" width="17.44" height="32.95"/><rect class="cls-8" x="466.44" y="388.7" width="5.81" height="33.69"/><rect class="cls-8" x="467.41" y="390.72" width="90.59" height="5.02"/><rect class="cls-8" x="551.87" y="388.7" width="5.09" height="33.69"/><rect class="cls-3" x="467.41" y="439.97" width="90.59" height="33.69"/><rect class="cls-7" x="467.41" y="440.1" width="17.44" height="32.95"/><rect class="cls-8" x="467.41" y="439.97" width="5.81" height="33.69"/><rect class="cls-8" x="467.41" y="440.94" width="90.59" height="5.02"/><rect class="cls-8" x="551.87" y="440.94" width="5.09" height="33.69"/><rect class="cls-3" x="467.41" y="494" width="90.59" height="30.93"/><rect class="cls-7" x="467.41" y="492.85" width="17.44" height="32.95"/><rect class="cls-8" x="467.41" y="494" width="5.81" height="31.9"/><rect class="cls-8" x="467.41" y="495.2" width="90.59" height="5.02"/><rect class="cls-8" x="551.87" y="493.59" width="5.09" height="31.75"/><rect class="cls-3" x="467.41" y="543.17" width="90.59" height="33.34"/><rect class="cls-7" x="467.41" y="543.36" width="17.44" height="32.95"/><rect class="cls-8" x="467.41" y="545.43" width="5.81" height="31.72"/><rect class="cls-8" x="467.41" y="544.14" width="90.59" height="5.02"/><rect class="cls-8" x="551.87" y="545.43" width="5.09" height="31.72"/><rect class="cls-3" x="467.41" y="597.16" width="90.59" height="33.34"/><rect class="cls-7" x="467.41" y="597.94" width="17.44" height="32.95"/><rect class="cls-8" x="467.41" y="599.42" width="5.81" height="31.72"/><rect class="cls-8" x="467.41" y="598.12" width="90.59" height="5.02"/><rect class="cls-8" x="551.87" y="597.97" width="5.09" height="31.72"/><rect class="cls-3" x="428.93" y="179.73" width="15.35" height="20.07"/><rect class="cls-8" x="439.33" y="179.73" width="3.93" height="20.07"/><rect class="cls-8" x="428.93" y="180.78" width="15.35" height="4.17"/><rect class="cls-3" x="428.93" y="285.38" width="15.35" height="20.07"/><rect class="cls-8" x="439.33" y="285.38" width="3.93" height="20.07"/><rect class="cls-8" x="428.93" y="285.38" width="15.35" height="4.17"/><rect class="cls-3" x="428.93" y="389.12" width="15.35" height="20.07"/><rect class="cls-8" x="439.33" y="389.12" width="3.93" height="20.07"/><rect class="cls-8" x="428.93" y="389.12" width="15.35" height="4.17"/><rect class="cls-7" x="269.66" y="499.98" width="170.14" height="130.47"/><rect class="cls-7" x="269.66" y="647.31" width="170.14" height="45.62"/><rect class="cls-3" x="269.66" y="499.98" width="124.21" height="130.58"/><rect class="cls-3" x="269.66" y="647.31" width="124.21" height="44.49"/><rect class="cls-6" x="390.97" y="499.98" width="5.81" height="130.16"/><rect class="cls-6" x="390.97" y="646.77" width="5.81" height="46.09"/><rect class="cls-8" x="477.51" y="139.98" width="9.6" height="39.75"/><rect class="cls-8" x="477.51" y="631.02" width="9.6" height="61.84"/><rect class="cls-8" x="406.6" y="139.7" width="9.6" height="340.89"/><rect class="cls-8" x="384.22" y="481.57" width="9.6" height="18.68"/><rect class="cls-8" x="269.66" y="646.17" width="7.36" height="46.77"/><rect class="cls-8" x="431.65" y="646.17" width="7.36" height="46.77"/><rect class="cls-8" x="431.65" y="499.98" width="7.36" height="131.16"/><rect class="cls-8" x="396.78" y="500.41" width="43.02" height="6.49"/><rect class="cls-8" x="396.78" y="647.58" width="43.02" height="6.49"/><rect class="cls-8" x="269.66" y="500.41" width="121.31" height="6.49"/><rect class="cls-8" x="269.66" y="647.58" width="121.31" height="6.49"/><rect class="cls-8" x="1129.95" y="311.22" width="4.82" height="81.98"/><rect class="cls-8" x="1508.22" y="232.65" width="44.81" height="3.73"/><rect class="cls-8" x="1508.22" y="281.13" width="44.81" height="3.73"/><rect class="cls-8" x="1508.22" y="330.49" width="44.81" height="3.73"/><rect class="cls-8" x="1508.22" y="379.85" width="44.81" height="3.73"/><rect class="cls-8" x="1508.22" y="429.21" width="44.81" height="3.73"/><rect class="cls-8" x="1508.22" y="478.58" width="44.81" height="3.73"/><rect class="cls-8" x="1508.22" y="527.94" width="44.81" height="3.73"/><rect class="cls-8" x="1508.22" y="577.3" width="44.81" height="3.73"/><rect class="cls-8" x="1508.22" y="625.79" width="44.81" height="3.73"/><path class="cls-3" d="M1803.32,858.86a22.95,22.95,0,0,1,33.75-18.4,16.08,16.08,0,0,1,32-.21,13.4,13.4,0,0,1,20.63,8.32h4.5a10.19,10.19,0,0,1,17.44,10.29Z" transform="translate(-74.8 -165)"/><path class="cls-3" d="M223.87,770.75a36.17,36.17,0,0,0,72.33,0c0-20-26-100.15-36.17-100.15S223.87,750.78,223.87,770.75Z" transform="translate(-74.8 -165)"/><polygon class="cls-3" points="1886.19 682.33 1868.53 682.33 1872.76 660.89 1881.96 660.89 1886.19 682.33"/><rect class="cls-6" x="1863.38" y="682.02" width="29.66" height="11.71"/><rect class="cls-6" x="1817.97" y="531.9" width="21.59" height="8.79"/><polygon class="cls-6" points="338.48 648.77 294.48 692.77 304.85 692.77 348.85 648.77 338.48 648.77"/><polygon class="cls-6" points="279.09 630.1 392.55 516.65 392.55 506.27 268.72 630.1 279.09 630.1"/><polygon class="cls-6" points="301.2 630.1 392.55 538.76 392.55 528.38 290.82 630.1 301.2 630.1"/><polygon class="cls-6" points="360.58 648.77 316.58 692.77 326.96 692.77 370.96 648.77 360.58 648.77"/><polygon class="cls-6" points="350.38 504.22 268.46 586.15 268.46 596.52 360.76 504.22 350.38 504.22"/><polygon class="cls-8" points="719.25 538.57 719.25 519.43 738.71 519.43 738.71 538.57 736.65 538.57 736.65 521.8 721.27 521.8 721.27 538.57 719.25 538.57"/><polygon class="cls-8" points="767.66 538.57 767.66 519.43 787.13 519.43 787.13 538.57 785.06 538.57 785.06 521.8 769.69 521.8 769.69 538.57 767.66 538.57"/><polygon class="cls-8" points="816.08 538.57 816.08 519.43 835.54 519.43 835.54 538.57 833.48 538.57 833.48 521.8 818.1 521.8 818.1 538.57 816.08 538.57"/><polygon class="cls-8" points="864.49 538.57 864.49 519.43 883.95 519.43 883.95 538.57 881.89 538.57 881.89 521.8 866.51 521.8 866.51 538.57 864.49 538.57"/><rect class="cls-8" x="916.45" y="311.22" width="4.82" height="81.98"/></g><g id="line"><path class="cls-9" d="M120.32,860.69h-28V830.87h28Zm-24.48-3.5h21V834.37h-21Z" transform="translate(-74.8 -165)"/><rect class="cls-9" x="29.66" y="656.9" width="3.5" height="11.37"/><rect class="cls-9" x="39.86" y="656.9" width="3.5" height="10.71"/><rect class="cls-9" x="19.46" y="656.9" width="3.5" height="10.71"/><rect class="cls-9" x="16.34" y="656.44" width="30" height="3.5"/><rect class="cls-9" x="29.53" y="667.62" width="3.5" height="26.32"/><rect class="cls-9" x="77.94" y="648.96" width="65.94" height="3.5"/><rect class="cls-9" x="77.94" y="656.99" width="65.94" height="3.5"/><rect class="cls-9" x="77.94" y="665.02" width="65.94" height="3.5"/><rect class="cls-9" x="69.7" y="674.67" width="83.83" height="3.5"/><rect class="cls-9" x="87.35" y="644.48" width="3.5" height="49.75"/><rect class="cls-9" x="131.76" y="644.48" width="3.5" height="49.75"/><rect class="cls-9" y="692.19" width="1848.53" height="3.5"/><rect class="cls-9" x="220.1" y="692.19" width="1746.03" height="3.5"/><path class="cls-9" d="M1563.54,386.29l-5.26-1.5-4-5.77,86.59-48.26h145.26V344H1641.87Zm-3.1-4.53,2.69.77,77.86-42h141.63v-6.26H1641.77l-82.42,45.94Z" transform="translate(-74.8 -165)"/><path class="cls-9" d="M1762.52,424.6H1661.3V394.93h101.22Zm-97.72-3.5H1759V398.43H1664.8Z" transform="translate(-74.8 -165)"/><path class="cls-9" d="M1762.52,474.25H1661.3V444.58h101.22Zm-97.72-3.5H1759V448.08H1664.8Z" transform="translate(-74.8 -165)"/><path class="cls-9" d="M1717.13,860.27H1561.58V843.33h155.55Zm-152.05-3.5h148.55v-9.94H1565.08Z" transform="translate(-74.8 -165)"/><polygon class="cls-9" points="1728.52 695.26 1638.82 695.26 1638.82 678.32 1734.23 678.32 1734.23 681.82 1642.32 681.82 1642.32 691.76 1728.52 691.76 1728.52 695.26"/><path class="cls-9" d="M1628.4,622.06h-48.57V592.22h48.57Zm-45.07-3.5h41.57V595.72h-41.57Z" transform="translate(-74.8 -165)"/><path class="cls-9" d="M1628.4,671h-48.57V641.17h48.57Zm-45.07-3.5h41.57V644.67h-41.57Z" transform="translate(-74.8 -165)"/><path class="cls-9" d="M1628.4,720h-48.57V690.11h48.57Zm-45.07-3.5h41.57V693.61h-41.57Z" transform="translate(-74.8 -165)"/><path class="cls-9" d="M1628.4,768.89h-48.57V739.05h48.57Zm-45.07-3.5h41.57V742.55h-41.57Z" transform="translate(-74.8 -165)"/><path class="cls-9" d="M1628.4,817.83h-48.57V788h48.57Zm-45.07-3.5h41.57V791.5h-41.57Z" transform="translate(-74.8 -165)"/><path class="cls-9" d="M1629,474.38H1580.4V444.54H1629Zm-45.07-3.5h41.57V448H1583.9Z" transform="translate(-74.8 -165)"/><path class="cls-9" d="M1629,424.87H1580.4V395H1629Zm-45.07-3.5h41.57V398.53H1583.9Z" transform="translate(-74.8 -165)"/><path class="cls-9" d="M1629,523.32H1580.4V493.49H1629Zm-45.07-3.5h41.57V497H1583.9Z" transform="translate(-74.8 -165)"/><path class="cls-9" d="M1629,572.27H1580.4V542.43H1629Zm-45.07-3.5h41.57V545.93H1583.9Z" transform="translate(-74.8 -165)"/><polygon class="cls-9" points="1640.45 695.26 1486.78 695.26 1486.78 663.29 1490.28 663.29 1490.28 691.76 1640.45 691.76 1640.45 695.26"/><polygon class="cls-9" points="1491 651.08 1487.5 651.08 1487.5 616.1 1477.69 616.1 1477.69 600.39 1486.78 600.39 1486.78 565.4 1490.28 565.4 1490.28 603.89 1481.19 603.89 1481.19 612.6 1491 612.6 1491 651.08"/><rect class="cls-9" x="1486.78" y="516.46" width="3.5" height="36.74"/><rect class="cls-9" x="1486.78" y="467.51" width="3.5" height="36.23"/><rect class="cls-9" x="1486.78" y="417.72" width="3.5" height="37.59"/><rect class="cls-9" x="1486.78" y="368.77" width="3.5" height="37.55"/><rect class="cls-9" x="1486.78" y="319.83" width="3.5" height="36.74"/><rect class="cls-9" x="1486.78" y="270.32" width="3.5" height="37.17"/><polygon class="cls-9" points="1707.58 319.36 1704.08 319.36 1704.08 179.01 1567.07 179.01 1490.28 220.51 1490.28 258.11 1486.78 258.11 1486.78 218.42 1566.18 175.51 1707.58 175.51 1707.58 319.36"/><rect class="cls-9" x="1638.76" y="406.33" width="3.5" height="22.64"/><rect class="cls-9" x="1638.76" y="455.51" width="3.5" height="22.4"/><rect class="cls-9" x="1638.76" y="504.25" width="3.5" height="22.61"/><rect class="cls-9" x="1638.76" y="553.19" width="3.5" height="20.76"/><rect class="cls-9" x="1638.76" y="600.21" width="3.5" height="21.98"/><rect class="cls-9" x="1638.76" y="648.44" width="3.5" height="31.63"/><polygon class="cls-9" points="1781.27 660.74 1777.77 660.74 1777.77 362.55 1643.57 362.55 1642.26 361.95 1642.26 380.07 1638.76 380.07 1638.76 356.5 1644.34 359.05 1781.27 359.05 1781.27 660.74"/><path class="cls-9" d="M1858.21,527.56H1718.38l-79.13-36.32-.14-8.64H1781l.35.16,82.87,37.88Zm-139.07-3.5h137.48l1.91-2.18-78.26-35.77h-137.6l0,2.88Z" transform="translate(-74.8 -165)"/><path class="cls-9" d="M1840.78,622.26h-180.2V592.51h180.2Zm-176.7-3.5h173.2V596h-173.2Z" transform="translate(-74.8 -165)"/><path class="cls-9" d="M1840.78,670.5h-180.2V640.74h180.2Zm-176.7-3.5h173.2V644.24h-173.2Z" transform="translate(-74.8 -165)"/><path class="cls-9" d="M1840.78,718.73h-180.2V689h180.2Zm-176.7-3.5h173.2V692.48h-173.2Z" transform="translate(-74.8 -165)"/><path class="cls-9" d="M1840.78,767h-180.2V737.21h180.2Zm-176.7-3.5h173.2V740.71h-173.2Z" transform="translate(-74.8 -165)"/><path class="cls-9" d="M1840.78,815.2h-180.2V785.44h180.2Zm-176.7-3.5h173.2V788.94h-173.2Z" transform="translate(-74.8 -165)"/><path class="cls-9" d="M1840.78,573.08h-180.2V543.33h180.2Zm-176.7-3.5h173.2V546.83h-173.2Z" transform="translate(-74.8 -165)"/><path class="cls-9" d="M1628.4,634.27h-76.63V618.56h76.63Zm-73.13-3.5h69.63v-8.71h-69.63Z" transform="translate(-74.8 -165)"/><path class="cls-9" d="M1641.44,634.27h-16.5V618.56h16.5Zm-13-3.5h9.5v-8.71h-9.5Z" transform="translate(-74.8 -165)"/><path class="cls-9" d="M1628.4,683.21h-76.63V667.5h76.63Zm-73.13-3.5h69.63V671h-69.63Z" transform="translate(-74.8 -165)"/><path class="cls-9" d="M1641.44,683.23h-16.5V667.5h16.5Zm-13-3.5h9.5V671h-9.5Z" transform="translate(-74.8 -165)"/><path class="cls-9" d="M1628.44,732.15h-76.67v-15.7h76.67Zm-73.17-3.5h69.67V720h-69.67Z" transform="translate(-74.8 -165)"/><path class="cls-9" d="M1641.44,732.14h-16.5V716.45h16.5Zm-13-3.5h9.5V720h-9.5Z" transform="translate(-74.8 -165)"/><rect class="cls-9" x="1550.13" y="602.14" width="3.5" height="12.21"/><path class="cls-9" d="M1641.44,781.1h-16.5V765.39h16.5Zm-13-3.5h9.5v-8.71h-9.5Z" transform="translate(-74.8 -165)"/><polygon class="cls-9" points="1553.54 616.09 1488.53 616.09 1488.53 612.59 1550.04 612.59 1550.04 603.89 1488.53 603.89 1488.53 600.39 1553.54 600.39 1553.54 616.09"/><path class="cls-9" d="M1628.44,830h-76.67V814.33h76.67Zm-73.17-3.5h69.67v-8.71h-69.67Z" transform="translate(-74.8 -165)"/><path class="cls-9" d="M1641.44,830h-16.5V814.33h16.5Zm-13-3.5h9.5v-8.71h-9.5Z" transform="translate(-74.8 -165)"/><path class="cls-9" d="M1629,486.59h-76.63V470.88H1629Zm-73.13-3.5h69.63v-8.71h-69.63Z" transform="translate(-74.8 -165)"/><path class="cls-9" d="M1642.65,486.59H1625.5V470.88h17.15Zm-13.65-3.5h10.15v-8.71H1629Z" transform="translate(-74.8 -165)"/><path class="cls-9" d="M1629,437.08h-76.66V421.37H1629Zm-73.16-3.5h69.66v-8.71h-69.66Z" transform="translate(-74.8 -165)"/><path class="cls-9" d="M1642.65,437.07H1625.5v-15.7h17.15Zm-13.65-3.5h10.15v-8.7H1629Z" transform="translate(-74.8 -165)"/><path class="cls-9" d="M1629,535.53h-76.66V519.82H1629Zm-73.16-3.5h69.66v-8.71h-69.66Z" transform="translate(-74.8 -165)"/><path class="cls-9" d="M1642,535.53H1625.5V519.82H1642Zm-13-3.5h9.51v-8.71H1629Z" transform="translate(-74.8 -165)"/><path class="cls-9" d="M1629,584.47h-76.63v-15.7H1629Zm-73.13-3.5h69.63v-8.7h-69.63Z" transform="translate(-74.8 -165)"/><path class="cls-9" d="M1642,584.47H1625.5v-15.7H1642Zm-13-3.5h9.51v-8.7H1629Z" transform="translate(-74.8 -165)"/><rect class="cls-9" x="1564.35" y="177.26" width="3.5" height="142.09"/><rect class="cls-9" x="1635.43" y="231.67" width="3.5" height="26.44"/><rect class="cls-9" x="1611.24" y="231.67" width="3.5" height="26.44"/><rect class="cls-9" x="1659.86" y="231.67" width="3.5" height="26.44"/><rect class="cls-9" x="1588.25" y="243.2" width="97.72" height="3.5"/><rect class="cls-9" x="1635.43" y="281.24" width="3.5" height="26.44"/><rect class="cls-9" x="1611.24" y="281.24" width="3.5" height="26.44"/><rect class="cls-9" x="1659.86" y="281.24" width="3.5" height="26.44"/><rect class="cls-9" x="1588.25" y="292.76" width="97.72" height="3.5"/><rect class="cls-9" x="1701.48" y="379.12" width="3.5" height="26.44"/><rect class="cls-9" x="1732.48" y="379.12" width="3.5" height="26.44"/><rect class="cls-9" x="1611.24" y="379.12" width="3.5" height="26.44"/><rect class="cls-9" x="1671.57" y="379.12" width="3.5" height="26.44"/><rect class="cls-9" x="1588.25" y="391.52" width="53.14" height="3.5"/><rect class="cls-9" x="1701.48" y="428.5" width="3.5" height="26.44"/><rect class="cls-9" x="1732.48" y="428.5" width="3.5" height="26.44"/><rect class="cls-9" x="1611.24" y="428.5" width="3.5" height="26.44"/><rect class="cls-9" x="1671.57" y="428.5" width="3.5" height="26.44"/><rect class="cls-9" x="1588.25" y="440.89" width="51.71" height="3.5"/><rect class="cls-9" x="1701.48" y="476.52" width="3.5" height="26.44"/><rect class="cls-9" x="1732.48" y="476.52" width="3.5" height="26.44"/><rect class="cls-9" x="1611.24" y="476.52" width="3.5" height="26.44"/><rect class="cls-9" x="1671.57" y="476.52" width="3.5" height="26.44"/><rect class="cls-9" x="1588.25" y="488.92" width="50.71" height="3.5"/><rect class="cls-9" x="1701.48" y="525.36" width="3.5" height="26.44"/><rect class="cls-9" x="1732.48" y="525.36" width="3.5" height="26.44"/><rect class="cls-9" x="1611.24" y="525.36" width="3.5" height="26.44"/><rect class="cls-9" x="1671.57" y="525.36" width="3.5" height="26.44"/><rect class="cls-9" x="1588.25" y="537.76" width="50.93" height="3.5"/><rect class="cls-9" x="1701.48" y="572.8" width="3.5" height="26.44"/><rect class="cls-9" x="1732.48" y="572.8" width="3.5" height="26.44"/><rect class="cls-9" x="1611.24" y="572.8" width="3.5" height="26.44"/><rect class="cls-9" x="1671.57" y="572.8" width="3.5" height="26.44"/><rect class="cls-9" x="1588.25" y="585.2" width="51.93" height="3.5"/><rect class="cls-9" x="1701.48" y="621.1" width="3.5" height="26.44"/><rect class="cls-9" x="1732.48" y="621.1" width="3.5" height="26.44"/><rect class="cls-9" x="1611.24" y="621.1" width="3.5" height="26.44"/><rect class="cls-9" x="1671.57" y="621.1" width="3.5" height="26.44"/><rect class="cls-9" x="1638.82" y="621.1" width="3.5" height="26.44"/><rect class="cls-9" x="1638.82" y="574.08" width="3.5" height="26.44"/><rect class="cls-9" x="1638.82" y="525.36" width="3.5" height="26.44"/><rect class="cls-9" x="1638.82" y="476.65" width="3.5" height="26.44"/><rect class="cls-9" x="1638.82" y="427.93" width="3.5" height="26.44"/><rect class="cls-9" x="1638.82" y="379.22" width="3.5" height="26.44"/><rect class="cls-9" x="1588.25" y="633.5" width="50.93" height="3.5"/><polygon class="cls-9" points="905.11 495.05 741.91 495.05 741.91 385.69 906.34 385.69 906.34 389.19 745.41 389.19 745.41 491.55 905.11 491.55 905.11 495.05"/><path class="cls-9" d="M870.38,602.58H839.91V578.22h30.47Zm-27-3.5h23.47V581.72H843.41Z" transform="translate(-74.8 -165)"/><path class="cls-9" d="M870.38,642.71H839.91V618.36h30.47Zm-27-3.5h23.47V621.86H843.41Z" transform="translate(-74.8 -165)"/><path class="cls-9" d="M921.75,602.58H891.28V578.22h30.47Zm-27-3.5h23.47V581.72H894.78Z" transform="translate(-74.8 -165)"/><path class="cls-9" d="M921.75,642.71H891.28V618.36h30.47Zm-27-3.5h23.47V621.86H894.78Z" transform="translate(-74.8 -165)"/><path class="cls-9" d="M973.12,602.58H942.65V578.22h30.47Zm-27-3.5h23.47V581.72H946.15Z" transform="translate(-74.8 -165)"/><path class="cls-9" d="M973.12,642.71H942.65V618.36h30.47Zm-27-3.5h23.47V621.86H946.15Z" transform="translate(-74.8 -165)"/><polygon class="cls-9" points="906.85 695.57 644.98 695.57 644.98 692.07 903.35 692.07 903.35 539.76 906.85 539.76 906.85 695.57"/><rect class="cls-9" x="643.23" y="604.65" width="3.5" height="72.61"/><polygon class="cls-9" points="646.73 581.74 643.23 581.74 643.23 500.61 906.85 500.61 906.85 529.67 903.35 529.67 903.35 504.11 646.73 504.11 646.73 581.74"/><path class="cls-9" d="M981.65,669.11H711.42V656.56H981.65Zm-266.73-3.5H978.15v-5.55H714.92Z" transform="translate(-74.8 -165)"/><path class="cls-9" d="M981.65,860.57H704.5V840.52H981.65ZM708,857.07H978.15V844H708Z" transform="translate(-74.8 -165)"/><path class="cls-9" d="M981.58,844H718V768.47H981.58Zm-260.05-3.5H978.08V772H721.53Z" transform="translate(-74.8 -165)"/><path class="cls-9" d="M981.58,772H693.13V745H981.58Zm-285-3.5H978.08v-20H696.63Z" transform="translate(-74.8 -165)"/><path class="cls-9" d="M962.16,706.32H935.89V681.21h26.27Zm-22.77-3.5h19.27V684.71H939.39Z" transform="translate(-74.8 -165)"/><path class="cls-9" d="M913.75,706.32H887.47V681.21h26.28ZM891,702.82h19.28V684.71H891Z" transform="translate(-74.8 -165)"/><path class="cls-9" d="M865.34,706.32H839.06V681.21h26.28Zm-22.78-3.5h19.28V684.71H842.56Z" transform="translate(-74.8 -165)"/><path class="cls-9" d="M816.92,706.32H790.65V681.21h26.27Zm-22.77-3.5h19.27V684.71H794.15Z" transform="translate(-74.8 -165)"/><path class="cls-9" d="M768.51,706.32H742.23V681.21h26.28Zm-22.78-3.5H765V684.71H745.73Z" transform="translate(-74.8 -165)"/><polygon class="cls-9" points="1313.56 495.04 1144.21 495.04 1144.21 491.54 1310.06 491.54 1310.06 389.19 1144.6 389.19 1144.6 385.69 1313.56 385.69 1313.56 495.04"/><path class="cls-9" d="M1261.08,602.19h-30.46V577.83h30.46Zm-27-3.5h23.46V581.33h-23.46Z" transform="translate(-74.8 -165)"/><path class="cls-9" d="M1261.08,642.32h-30.46V618h30.46Zm-27-3.5h23.46V621.47h-23.46Z" transform="translate(-74.8 -165)"/><path class="cls-9" d="M1309.7,602.19h-30.46V577.83h30.46Zm-27-3.5h23.46V581.33h-23.46Z" transform="translate(-74.8 -165)"/><path class="cls-9" d="M1309.7,642.32h-30.46V618h30.46Zm-27-3.5h23.46V621.47h-23.46Z" transform="translate(-74.8 -165)"/><path class="cls-9" d="M1362,602.19h-30.46V577.83H1362Zm-27-3.5h23.46V581.33H1335Z" transform="translate(-74.8 -165)"/><path class="cls-9" d="M1362,642.32h-30.46V618H1362Zm-27-3.5h23.46V621.47H1335Z" transform="translate(-74.8 -165)"/><rect class="cls-9" x="1144.21" y="692.07" width="260.13" height="3.5"/><rect class="cls-9" x="1402.58" y="604.65" width="3.5" height="73.94"/><path class="cls-9" d="M1217.65,772V745h259.74V669.11H1219v-3.5h261.88V745h20.75v26.82H1486Zm3.5-23.47v20l264.83-.15h12.16V748.5Z" transform="translate(-74.8 -165)"/><path class="cls-9" d="M1487.49,669.13H1217.65V656.54h269.84Zm-266.34-3.5H1484V660H1221.15Z" transform="translate(-74.8 -165)"/><path class="cls-9" d="M1494.42,860.57H1217.65V840.52h276.77Zm-273.27-3.5h269.77V844H1221.15Z" transform="translate(-74.8 -165)"/><path class="cls-9" d="M1480.89,844H1217.65V768.47h263.24Zm-259.74-3.5h256.24V772H1221.15Z" transform="translate(-74.8 -165)"/><rect class="cls-9" x="1142.85" y="221.98" width="3.5" height="35.56"/><rect class="cls-9" x="1142.85" y="266.39" width="3.5" height="36.91"/><rect class="cls-9" x="1142.85" y="312.39" width="3.5" height="36.31"/><rect class="cls-9" x="1142.85" y="357.79" width="3.5" height="36.66"/><rect class="cls-9" x="1142.85" y="403.54" width="3.5" height="35.57"/><rect class="cls-9" x="1142.85" y="448.2" width="3.5" height="35.57"/><rect class="cls-9" x="1142.85" y="492.61" width="3.5" height="36.91"/><polygon class="cls-9" points="1146.35 695.59 903.28 695.59 903.28 538.61 906.78 538.61 906.78 692.09 1142.85 692.09 1142.85 538.61 1146.35 538.61 1146.35 695.59"/><rect class="cls-9" x="903.28" y="493.3" width="3.5" height="36.23"/><rect class="cls-9" x="903.28" y="448.2" width="3.5" height="36.41"/><rect class="cls-9" x="903.28" y="403.54" width="3.5" height="35.57"/><rect class="cls-9" x="903.28" y="357.79" width="3.5" height="36.66"/><rect class="cls-9" x="903.28" y="312.39" width="3.5" height="36.31"/><rect class="cls-9" x="903.28" y="266.64" width="3.5" height="36.66"/><rect class="cls-9" x="903.28" y="221.98" width="3.5" height="35.57"/><polygon class="cls-9" points="906.78 212.89 903.28 212.89 903.28 187.15 1146.35 187.15 1146.35 212.89 1142.85 212.89 1142.85 190.65 906.78 190.65 906.78 212.89"/><path class="cls-9" d="M1229.42,355.65H968.22V341.83h261.2Zm-257.7-3.5h254.2v-6.82H971.72Z" transform="translate(-74.8 -165)"/><path class="cls-9" d="M1176.17,860.59H1026v-92h150.15Zm-146.65-3.5h143.15v-85H1029.52Z" transform="translate(-74.8 -165)"/><path class="cls-9" d="M1206.68,772H993.37V737.78h213.31Zm-209.81-3.5h206.31V741.28H996.87Z" transform="translate(-74.8 -165)"/><path class="cls-9" d="M1029.52,860.59h-15.81v-92h15.81Zm-12.31-3.5H1026v-85h-8.81Z" transform="translate(-74.8 -165)"/><path class="cls-9" d="M1188.48,860.59h-15.81v-92h15.81Zm-12.31-3.5H1185v-85h-8.81Z" transform="translate(-74.8 -165)"/><path class="cls-9" d="M1049.86,860.59H1026v-92h23.84Zm-20.34-3.5h16.84v-85h-16.84Z" transform="translate(-74.8 -165)"/><path class="cls-9" d="M1176.17,860.59h-23.84v-92h23.84Zm-20.34-3.5h16.84v-85h-16.84Z" transform="translate(-74.8 -165)"/><path class="cls-9" d="M1155.83,860.59H1046.36V840.68h109.47Zm-106-3.5h102.47V844.18H1049.86Z" transform="translate(-74.8 -165)"/><path class="cls-9" d="M1142.32,844h-80.17V768.55h80.17Zm-76.67-3.5h73.17V772.05h-73.17Z" transform="translate(-74.8 -165)"/><polygon class="cls-9" points="916.46 348.7 912.96 348.7 912.96 310.64 1138.04 310.64 1138.04 348.7 1134.54 348.7 1134.54 314.14 916.46 314.14 916.46 348.7"/><rect class="cls-9" x="1134.54" y="357.61" width="3.5" height="36.84"/><rect class="cls-9" x="1134.54" y="403.54" width="3.5" height="35.25"/><rect class="cls-9" x="1134.54" y="448.2" width="3.5" height="35.57"/><rect class="cls-9" x="1134.54" y="493.29" width="3.5" height="36.24"/><polygon class="cls-9" points="1138.04 576.27 912.96 576.27 912.96 538.61 916.46 538.61 916.46 572.77 1134.54 572.77 1134.54 538.62 1138.04 538.62 1138.04 576.27"/><rect class="cls-9" x="912.96" y="492.86" width="3.5" height="36.66"/><rect class="cls-9" x="912.96" y="448.2" width="3.5" height="35.57"/><rect class="cls-9" x="912.96" y="403.54" width="3.5" height="35.74"/><rect class="cls-9" x="912.96" y="357.79" width="3.5" height="36.23"/><rect class="cls-9" x="1134.54" y="221.97" width="3.5" height="35.23"/><rect class="cls-9" x="1134.54" y="266.91" width="3.5" height="36"/><rect class="cls-9" x="1020.87" y="266.91" width="3.5" height="36"/><rect class="cls-9" x="1020.87" y="313.43" width="3.5" height="36"/><rect class="cls-9" x="1020.87" y="403.67" width="3.5" height="36"/><rect class="cls-9" x="1020.87" y="358.67" width="3.5" height="36"/><rect class="cls-9" x="1020.87" y="447.98" width="3.5" height="36"/><rect class="cls-9" x="1020.87" y="494.22" width="3.5" height="36"/><rect class="cls-9" x="1020.87" y="538.57" width="3.5" height="36"/><rect class="cls-9" x="1020.87" y="221.77" width="3.5" height="36"/><rect class="cls-9" x="1028.67" y="266.91" width="3.5" height="36"/><rect class="cls-9" x="1028.67" y="313.43" width="3.5" height="36"/><rect class="cls-9" x="1028.67" y="403.67" width="3.5" height="36"/><rect class="cls-9" x="1028.67" y="358.67" width="3.5" height="36"/><rect class="cls-9" x="1028.67" y="447.98" width="3.5" height="36"/><rect class="cls-9" x="1028.67" y="494.22" width="3.5" height="36"/><rect class="cls-9" x="1028.67" y="538.57" width="3.5" height="36"/><rect class="cls-9" x="1028.67" y="221.77" width="3.5" height="36"/><rect class="cls-9" x="912.96" y="266.38" width="3.5" height="36.92"/><rect class="cls-9" x="912.96" y="221.98" width="3.5" height="35.23"/><path class="cls-9" d="M1231.72,524.54H967.5V512h264.22ZM971,521h257.22v-5.59H971Z" transform="translate(-74.8 -165)"/><path class="cls-9" d="M1231.72,570.29H967.5V557.7h264.22ZM971,566.79h257.22V561.2H971Z" transform="translate(-74.8 -165)"/><path class="cls-9" d="M1231.72,615H967.5V602.36h264.22ZM971,611.45h257.22v-5.59H971Z" transform="translate(-74.8 -165)"/><path class="cls-9" d="M1231.72,659.61H967.5V647h264.22ZM971,656.11h257.22v-5.59H971Z" transform="translate(-74.8 -165)"/><path class="cls-9" d="M1231.72,705.36H967.5V692.77h264.22ZM971,701.86h257.22v-5.59H971Z" transform="translate(-74.8 -165)"/><path class="cls-9" d="M1231.72,388.73H967.5V376.14h264.22ZM971,385.23h257.22v-5.59H971Z" transform="translate(-74.8 -165)"/><path class="cls-9" d="M1231.72,433.39H967.5V420.8h264.22ZM971,429.89h257.22V424.3H971Z" transform="translate(-74.8 -165)"/><path class="cls-9" d="M1231.72,479.14H967.5V466.55h264.22ZM971,475.64h257.22v-5.59H971Z" transform="translate(-74.8 -165)"/><path class="cls-9" d="M1065.07,760.92v-5.07h-6.17v5.07h-2.37V748.37h2.37v5.29h6.17v-5.29h2.35v12.55Z" transform="translate(-74.8 -165)"/><path class="cls-9" d="M1082,754.7c0,3.25-2,6.49-6.44,6.49s-6.46-3.17-6.46-6.47,2.12-6.62,6.46-6.62A6.25,6.25,0,0,1,1082,754.7Zm-10.56.06c0,2.06,1.16,4.26,4.12,4.26s4.07-2.22,4.11-4.28-1.15-4.48-4.11-4.48S1071.37,752.64,1071.43,754.76Z" transform="translate(-74.8 -165)"/><path class="cls-9" d="M1091.84,751.39a3.6,3.6,0,0,0-3-1.4c-1.76,0-2.6.73-2.6,1.67,0,1.09,1.29,1.39,2.8,1.57,2.62.33,5,1,5,4,0,2.8-2.47,4-5.27,4-2.56,0-4.53-.79-5.46-3.08l2-1a3.56,3.56,0,0,0,3.53,2c1.49,0,2.89-.52,2.89-1.88,0-1.18-1.24-1.67-2.91-1.85-2.56-.3-4.93-1-4.93-3.8,0-2.58,2.55-3.64,4.86-3.66,2,0,4,.56,4.93,2.5Z" transform="translate(-74.8 -165)"/><path class="cls-9" d="M1101.87,757.21h-3.55v3.7H1096V748.36l5.92,0A4.44,4.44,0,1,1,1101.87,757.21Zm-3.55-2.17h3.55a2.22,2.22,0,1,0,0-4.44h-3.55Z" transform="translate(-74.8 -165)"/><path class="cls-9" d="M1108.1,760.91V748.36h2.34v12.55Z" transform="translate(-74.8 -165)"/><path class="cls-9" d="M1116.49,750.51h-4v-2.15h10.33v2.15h-4v10.4h-2.37Z" transform="translate(-74.8 -165)"/><path class="cls-9" d="M1133.19,758.54h-6.56l-1.08,2.37H1123l5.63-12.55h2.58l5.63,12.55h-2.58Zm-3.28-7.55-2.33,5.34h4.66Z" transform="translate(-74.8 -165)"/><path class="cls-9" d="M1140.46,748.36v10.36h6.45v2.19h-8.82V748.36Z" transform="translate(-74.8 -165)"/><path class="cls-9" d="M1460.05,706.32h-26.28V681.21h26.28Zm-22.78-3.5h19.28V684.71h-19.28Z" transform="translate(-74.8 -165)"/><path class="cls-9" d="M1411.64,706.32h-26.28V681.21h26.28Zm-22.78-3.5h19.28V684.71h-19.28Z" transform="translate(-74.8 -165)"/><path class="cls-9" d="M1363.23,706.32H1337V681.21h26.28Zm-22.78-3.5h19.28V684.71h-19.28Z" transform="translate(-74.8 -165)"/><path class="cls-9" d="M1314.81,706.32h-26.28V681.21h26.28Zm-22.78-3.5h19.28V684.71H1292Z" transform="translate(-74.8 -165)"/><path class="cls-9" d="M1266.4,706.32h-26.28V681.21h26.28Zm-22.78-3.5h19.28V684.71h-19.28Z" transform="translate(-74.8 -165)"/><rect class="cls-9" x="720.88" y="604.65" width="3.5" height="72.77"/><rect class="cls-9" x="729.75" y="604.65" width="3.5" height="72.77"/><rect class="cls-9" x="816.51" y="604.65" width="3.5" height="72.77"/><rect class="cls-9" x="825.38" y="604.65" width="3.5" height="72.77"/><rect class="cls-9" x="1219.84" y="604.65" width="3.5" height="72.77"/><rect class="cls-9" x="1228.71" y="604.65" width="3.5" height="72.77"/><rect class="cls-9" x="1315.48" y="604.65" width="3.5" height="72.77"/><rect class="cls-9" x="1324.35" y="604.65" width="3.5" height="72.77"/><rect class="cls-9" x="1025.68" y="605.59" width="3.5" height="71.67"/><rect class="cls-9" x="414.45" y="140.12" width="3.5" height="332.47"/><polygon class="cls-9" points="573.62 695.11 416.2 695.11 416.2 691.61 570.12 691.61 570.12 141.88 416.2 142.12 416.19 138.62 573.62 138.37 573.62 695.11"/><path class="cls-9" d="M492.75,648.75H347.32V303.37l145.43.26Zm-141.93-3.5H489.25V307.12l-138.43-.24Z" transform="translate(-74.8 -165)"/><polygon class="cls-9" points="486.91 695.11 451.31 695.11 451.31 140.52 454.81 140.52 454.81 691.61 486.91 691.61 486.91 695.11"/><polygon class="cls-9" points="385.08 695.11 240.96 695.11 240.96 480.25 416.2 480.25 416.2 483.75 244.46 483.75 244.46 691.61 385.08 691.61 385.08 695.11"/><path class="cls-9" d="M388.9,382.49H366.09V343.41H388.9ZM369.59,379H385.4V346.91H369.59Z" transform="translate(-74.8 -165)"/><path class="cls-9" d="M429.31,382.49H406.5V343.41h22.81ZM410,379h15.81V346.91H410Z" transform="translate(-74.8 -165)"/><path class="cls-9" d="M469.72,382.49H446.91V343.41h22.81ZM450.41,379h15.81V346.91H450.41Z" transform="translate(-74.8 -165)"/><path class="cls-9" d="M388.9,435.1H366.09V396H388.9Zm-19.31-3.5H385.4V399.53H369.59Z" transform="translate(-74.8 -165)"/><path class="cls-9" d="M429.31,435.1H406.5V396h22.81ZM410,431.6h15.81V399.53H410Z" transform="translate(-74.8 -165)"/><path class="cls-9" d="M469.72,435.1H446.91V396h22.81Zm-19.31-3.5h15.81V399.53H450.41Z" transform="translate(-74.8 -165)"/><path class="cls-9" d="M388.9,487.72H366.09V448.64H388.9Zm-19.31-3.5H385.4V452.14H369.59Z" transform="translate(-74.8 -165)"/><path class="cls-9" d="M429.31,487.72H406.5V448.64h22.81ZM410,484.22h15.81V452.14H410Z" transform="translate(-74.8 -165)"/><path class="cls-9" d="M469.72,487.72H446.91V448.64h22.81Zm-19.31-3.5h15.81V452.14H450.41Z" transform="translate(-74.8 -165)"/><path class="cls-9" d="M388.9,540.33H366.09V501.25H388.9Zm-19.31-3.5H385.4V504.75H369.59Z" transform="translate(-74.8 -165)"/><path class="cls-9" d="M429.31,540.33H406.5V501.25h22.81ZM410,536.83h15.81V504.75H410Z" transform="translate(-74.8 -165)"/><path class="cls-9" d="M469.72,540.33H446.91V501.25h22.81Zm-19.31-3.5h15.81V504.75H450.41Z" transform="translate(-74.8 -165)"/><path class="cls-9" d="M388.9,592.94H366.09V553.87H388.9Zm-19.31-3.5H385.4V557.37H369.59Z" transform="translate(-74.8 -165)"/><path class="cls-9" d="M429.31,592.94H406.5V553.87h22.81ZM410,589.44h15.81V557.37H410Z" transform="translate(-74.8 -165)"/><path class="cls-9" d="M469.72,592.94H446.91V553.87h22.81Zm-19.31-3.5h15.81V557.37H450.41Z" transform="translate(-74.8 -165)"/><path class="cls-9" d="M388.9,648.75H366.09V606.48H388.9Zm-19.31-3.5H385.4V610H369.59Z" transform="translate(-74.8 -165)"/><path class="cls-9" d="M429.31,648.75H406.5V606.48h22.81ZM410,645.25h15.81V610H410Z" transform="translate(-74.8 -165)"/><path class="cls-9" d="M469.72,648.75H446.91V606.48h22.81Zm-19.31-3.5h15.81V610H450.41Z" transform="translate(-74.8 -165)"/><path class="cls-9" d="M515.65,797.63H342v-134H515.65Zm-170.14-3.5H512.15v-127H345.51Z" transform="translate(-74.8 -165)"/><path class="cls-9" d="M515.65,860.12H342V811H515.65Zm-170.14-3.5H512.15V814.49H345.51Z" transform="translate(-74.8 -165)"/><path class="cls-9" d="M520.13,367H501.28V343.41h18.85Zm-15.35-3.5h11.85V346.91H504.78Z" transform="translate(-74.8 -165)"/><path class="cls-9" d="M520.13,472.63H501.28V449.06h18.85Zm-15.35-3.5h11.85V452.56H504.78Z" transform="translate(-74.8 -165)"/><path class="cls-9" d="M520.13,576.37H501.28V552.8h18.85Zm-15.35-3.5h11.85V556.3H504.78Z" transform="translate(-74.8 -165)"/><path class="cls-9" d="M633.85,380.6H539.76V343.41h94.09Zm-90.59-3.5h87.09V346.91H543.26Z" transform="translate(-74.8 -165)"/><path class="cls-9" d="M633.85,432.47H539.76V396h94.09ZM543.26,429h87.09V399.53H543.26Z" transform="translate(-74.8 -165)"/><path class="cls-9" d="M633.85,484.34H539.76v-35.7h94.09Zm-90.59-3.5h87.09v-28.7H543.26Z" transform="translate(-74.8 -165)"/><path class="cls-9" d="M633.85,536.21H539.76V502.07h94.09Zm-90.59-3.5h87.09V505.57H543.26Z" transform="translate(-74.8 -165)"/><path class="cls-9" d="M633.85,588.08H539.76V553.94h94.09Zm-90.59-3.5h87.09V557.44H543.26Z" transform="translate(-74.8 -165)"/><path class="cls-9" d="M633.85,640H539.76V604.06h94.09Zm-90.59-3.5h87.09V607.56H543.26Z" transform="translate(-74.8 -165)"/><path class="cls-9" d="M633.85,691.82H539.76V657.68h94.09Zm-90.59-3.5h87.09V661.18H543.26Z" transform="translate(-74.8 -165)"/><path class="cls-9" d="M633.85,743.69H539.76V706.85h94.09Zm-90.59-3.5h87.09V710.35H543.26Z" transform="translate(-74.8 -165)"/><path class="cls-9" d="M633.85,797.73H539.76v-36.3h94.09Zm-90.59-3.5h87.09v-29.3H543.26Z" transform="translate(-74.8 -165)"/><rect class="cls-9" x="485.16" y="140.12" width="3.5" height="40.04"/><rect class="cls-9" x="485.16" y="213.84" width="3.5" height="19.98"/><rect class="cls-9" x="485.16" y="265.71" width="3.5" height="18.75"/><rect class="cls-9" x="485.16" y="317.58" width="3.5" height="22.05"/><rect class="cls-9" x="485.16" y="369.45" width="3.5" height="21.95"/><rect class="cls-9" x="485.16" y="421.32" width="3.5" height="19.58"/><rect class="cls-9" x="485.16" y="473.2" width="3.5" height="21.23"/><rect class="cls-9" x="485.16" y="525.07" width="3.5" height="18.53"/><rect class="cls-9" x="485.16" y="576.94" width="3.5" height="21.23"/><rect class="cls-9" x="485.16" y="630.64" width="3.5" height="62.72"/><rect class="cls-9" x="391.42" y="482" width="3.5" height="18.68"/><rect class="cls-9" x="391.42" y="630.98" width="3.5" height="15.8"/><path class="cls-9" d="M472.63,797.53h-9.32V666h9.32Zm-5.82-3.5h2.32V669.45h-2.32Z" transform="translate(-74.8 -165)"/><path class="cls-9" d="M472.63,860.12h-9.32V811.26h9.32Zm-5.82-3.5h2.32V814.76h-2.32Z" transform="translate(-74.8 -165)"/><rect class="cls-9" x="307.69" y="500.84" width="3.5" height="129.8"/><rect class="cls-9" x="349.86" y="500.84" width="3.5" height="129.8"/><rect class="cls-9" x="307.69" y="649.38" width="3.5" height="43.98"/><rect class="cls-9" x="349.86" y="649.38" width="3.5" height="43.98"/><rect class="cls-9" x="466.71" y="195.81" width="90.59" height="3.5"/><rect class="cls-9" x="521.56" y="180.16" width="3.5" height="33.69"/><rect class="cls-9" x="466.71" y="248.9" width="90.59" height="3.5"/><rect class="cls-9" x="521.56" y="233.25" width="3.5" height="33.69"/><rect class="cls-9" x="466.71" y="301.03" width="90.59" height="3.5"/><rect class="cls-9" x="521.56" y="285.38" width="3.5" height="33.69"/><rect class="cls-9" x="466.71" y="352.53" width="90.59" height="3.5"/><rect class="cls-9" x="521.56" y="336.88" width="3.5" height="33.69"/><rect class="cls-9" x="466.71" y="404.81" width="90.59" height="3.5"/><rect class="cls-9" x="521.56" y="389.16" width="3.5" height="33.69"/><rect class="cls-9" x="466.71" y="456.09" width="90.59" height="3.5"/><rect class="cls-9" x="521.56" y="440.44" width="3.5" height="33.69"/><rect class="cls-9" x="466.71" y="508.47" width="90.59" height="3.5"/><rect class="cls-9" x="521.56" y="493.61" width="3.5" height="32.16"/><rect class="cls-9" x="466.71" y="559.05" width="90.59" height="3.5"/><rect class="cls-9" x="521.56" y="544.19" width="3.5" height="32.16"/><rect class="cls-9" x="466.71" y="613.62" width="90.59" height="3.5"/><rect class="cls-9" x="521.56" y="598.76" width="3.5" height="32.16"/><rect class="cls-6" x="1863.85" y="688.02" width="29.66" height="5.71"/><path class="cls-9" d="M1954.86,825.89h-3.5V735.35a36.75,36.75,0,0,0-36.7-36.7H1907v-3.5h7.69a40.25,40.25,0,0,1,40.2,40.2Z" transform="translate(-74.8 -165)"/><path class="cls-9" d="M1954.86,825.89h-3.5V735.35a40.25,40.25,0,0,1,40.2-40.2h7.69v3.5h-7.69a36.75,36.75,0,0,0-36.7,36.7Z" transform="translate(-74.8 -165)"/><path class="cls-9" d="M1910.47,708.05h-13.82a5.64,5.64,0,0,1-5.63-5.63v-3.5a3.77,3.77,0,0,1,3.77-3.77h21.32v7.27A5.64,5.64,0,0,1,1910.47,708.05Zm-15.68-9.4a.27.27,0,0,0-.27.27v3.5a2.14,2.14,0,0,0,2.13,2.13h13.82a2.14,2.14,0,0,0,2.14-2.13v-3.77Z" transform="translate(-74.8 -165)"/><path class="cls-9" d="M1910.47,708.05h-13.82a5.64,5.64,0,0,1-5.63-5.63v-7.27h21.32a3.78,3.78,0,0,1,3.77,3.77v3.5A5.64,5.64,0,0,1,1910.47,708.05Zm-16-9.4v3.77a2.14,2.14,0,0,0,2.13,2.13h13.82a2.14,2.14,0,0,0,2.14-2.13v-3.5a.28.28,0,0,0-.27-.27Z" transform="translate(-74.8 -165)"/><path class="cls-9" d="M2009.34,708.05h-13.82a5.64,5.64,0,0,1-5.63-5.63v-7.27h21.32a3.78,3.78,0,0,1,3.77,3.77v3.5A5.64,5.64,0,0,1,2009.34,708.05Zm-15.95-9.4v3.77a2.14,2.14,0,0,0,2.13,2.13h13.82a2.14,2.14,0,0,0,2.14-2.13v-3.5a.28.28,0,0,0-.27-.27Z" transform="translate(-74.8 -165)"/><rect class="cls-9" x="1874.91" y="624.46" width="6.8" height="3.5"/><path class="cls-9" d="M1964.12,848.77h-22.55l5.53-24.94h11.49Zm-18.19-3.5h13.82l-4-17.94h-5.87Z" transform="translate(-74.8 -165)"/><path class="cls-9" d="M1969.6,860.48h-33.17V845.27h33.17Zm-29.67-3.5h26.17v-8.21h-26.17Z" transform="translate(-74.8 -165)"/><rect class="cls-9" x="183.48" y="597.9" width="3.5" height="95.25"/><rect class="cls-9" x="253.06" y="790.65" width="25.34" height="3.5" transform="translate(-636.39 508.83) rotate(-63.31)"/><path class="cls-9" d="M260,808.66a38,38,0,0,1-37.91-37.91c0-11.32,7.44-38.07,14.35-58.13S253,668.85,260,668.85s16.69,23.8,23.57,43.77S298,759.43,298,770.75A38,38,0,0,1,260,808.66Zm0-136.31c-2.4,0-9.78,11-20.25,41.41-8.2,23.81-14.16,47.78-14.16,57a34.42,34.42,0,0,0,68.83,0c0-9.21-6-33.18-14.16-57C269.82,683.38,262.44,672.35,260,672.35Z" transform="translate(-74.8 -165)"/><path class="cls-9" d="M1912.8,860.61H1801.43l.15-1.89a24.7,24.7,0,0,1,34.12-20.85A18,18,0,0,1,1853.09,824a17.76,17.76,0,0,1,17.31,13.53,15.16,15.16,0,0,1,20.68,9.3h2.32a11.94,11.94,0,0,1,19.87,12.75Zm-107.5-3.5h105.15a8.43,8.43,0,0,0-14.82-7.48l-.53.69h-6.79l-.29-1.39a11.65,11.65,0,0,0-17.94-7.23l-2.44,1.66-.29-2.94a14.33,14.33,0,0,0-28.54.19l-.23,2.66-2.34-1.27a21.2,21.2,0,0,0-30.94,15.11Z" transform="translate(-74.8 -165)"/></g></svg>