<svg id="Logo" xmlns="http://www.w3.org/2000/svg" viewBox="0 0 223.97 174.96"><defs><style>.cls-1{fill:#d71635;}.cls-2{fill:#72bf44;}.cls-3{fill:#f37021;}.cls-4{fill:#236e27;}.cls-5{fill:#b11116;}</style></defs><path class="cls-1" d="M242.72,369.15v-.27c0-21.6,11.1-41.54,28.91-52a53.58,53.58,0,0,1,65.7,8.81A53.51,53.51,0,0,1,403,317c17.79,10.6,28.81,30.57,28.79,52.12H419.51c0-17.24-8.71-33.16-22.77-41.55a40.89,40.89,0,0,0-21-5.8c-13,0-25.25,6.16-33.58,16.91L337.34,345l-4.86-6.27c-8.38-10.8-20.64-17-33.64-17a41,41,0,0,0-21,5.75c-14.07,8.3-22.83,24.19-22.85,41.46v.26Zm2.06,15.34c.19.81.39,1.6.58,2.36a78.3,78.3,0,0,0,9.11,21.45c1.5,2.44,3.14,4.88,4.89,7.32a91.4,91.4,0,0,1,2.13-17.34l.46-1.88a64.52,64.52,0,0,1-4.49-11.91Zm172.3,0a65.78,65.78,0,0,1-2.61,7.78l.81,3.7a103.86,103.86,0,0,1,1.94,16.75q1.81-2.67,3.42-5.36a77,77,0,0,0,8.46-20.24c.22-.84.44-1.72.65-2.63Z" transform="translate(-225.6 -309.39)"/><path class="cls-2" d="M326.05,423.67l-18.88-62.08L297,384.49H230.13a4.53,4.53,0,0,1,0-9.06h61l17.63-39.77,18.78,61.76,19.6-45.29L363.25,390l7-14.61H445a4.53,4.53,0,1,1,0,9.06H376L362.74,412l-15.68-36.89Z" transform="translate(-225.6 -309.39)"/><path class="cls-3" d="M274.34,419.26l.21-.09c2.73,5.75,17.51,33.61,54.28,50.57,2.17-.74,4.56-1.61,6.9-2.57a55.06,55.06,0,0,1-9.81-4.64c5.92-7.2,5.46-15.91-1.07-24.27-13.17-16.88-31-13.28-58.24-38.73,0,0-8.25,33.8,8.61,56.75A38.68,38.68,0,0,0,305.59,472a25.94,25.94,0,0,0,13-3.2C284.72,452.75,275.88,425.15,274.34,419.26Z" transform="translate(-225.6 -309.39)"/><path class="cls-4" d="M407.79,445.58,399,449.71l7.2.1a55.88,55.88,0,0,1-5.88,10.68,42.45,42.45,0,0,1-9,9.31l-11.73-.31,6.54,3.69a38.57,38.57,0,0,1-18.36,4.95,26.05,26.05,0,0,1-13.52-3.5c5.85-3.9,30.19-17.75,45.39-51l-.32-.17c-24.84,39.49-65,57.77-72.52,60.92a9.09,9.09,0,0,1-3.92-7.23c3.83-1.08,16.23-4.77,23.62-9.39-6.18-8-5.59-17.73,1.44-27.09a43.43,43.43,0,0,1,4-4.65l4.49,7.66,1-12.34c5.81-4.19,12.36-6.95,19.9-10.76l.77,7.44,5.33-10.67a123.67,123.67,0,0,0,26.74-20.21S415.71,422.33,407.79,445.58Z" transform="translate(-225.6 -309.39)"/><path class="cls-5" d="M415.4,389.81h13c.27-.89.52-1.78.75-2.69s.44-1.72.65-2.63H417.08Q416.36,387.19,415.4,389.81Z" transform="translate(-225.6 -309.39)"/><path class="cls-5" d="M257.46,384.49H244.78c.19.81.39,1.6.58,2.36.25,1,.53,2,.82,3h13C258.52,388.06,257.94,386.29,257.46,384.49Z" transform="translate(-225.6 -309.39)"/></svg>